<?xml version="1.0" encoding="UTF-8" standalone="no"?>
<!-- Created with Inkscape (http://www.inkscape.org/) -->
<svg
   xmlns:dc="http://purl.org/dc/elements/1.1/"
   xmlns:cc="http://creativecommons.org/ns#"
   xmlns:rdf="http://www.w3.org/1999/02/22-rdf-syntax-ns#"
   xmlns:svg="http://www.w3.org/2000/svg"
   xmlns="http://www.w3.org/2000/svg"
   xmlns:sodipodi="http://sodipodi.sourceforge.net/DTD/sodipodi-0.dtd"
   xmlns:inkscape="http://www.inkscape.org/namespaces/inkscape"
   width="744.09448819"
   height="1052.3622047"
   id="svg10157"
   sodipodi:version="0.32"
   inkscape:version="0.46"
   sodipodi:docname="Hringbraut.svg"
   inkscape:output_extension="org.inkscape.output.svg.inkscape">
  <defs
     id="defs10159">
    <inkscape:perspective
       sodipodi:type="inkscape:persp3d"
       inkscape:vp_x="0 : 526.18109 : 1"
       inkscape:vp_y="0 : 1000 : 0"
       inkscape:vp_z="744.09448 : 526.18109 : 1"
       inkscape:persp3d-origin="372.04724 : 350.78739 : 1"
       id="perspective10165" />
  </defs>
  <sodipodi:namedview
     id="base"
     pagecolor="#ffffff"
     bordercolor="#666666"
     borderopacity="1.0"
     gridtolerance="10000"
     guidetolerance="10"
     objecttolerance="10"
     inkscape:pageopacity="0.0"
     inkscape:pageshadow="2"
     inkscape:zoom="0.35"
     inkscape:cx="375"
     inkscape:cy="520"
     inkscape:document-units="px"
     inkscape:current-layer="layer1"
     showgrid="false"
     inkscape:window-width="1278"
     inkscape:window-height="1022"
     inkscape:window-x="0"
     inkscape:window-y="0" />
  <metadata
     id="metadata10162">
    <rdf:RDF>
      <cc:Work
         rdf:about="">
        <dc:format>image/svg+xml</dc:format>
        <dc:type
           rdf:resource="http://purl.org/dc/dcmitype/StillImage" />
      </cc:Work>
    </rdf:RDF>
  </metadata>
  <g
     inkscape:label="Layer 1"
     inkscape:groupmode="layer"
     id="layer1">
    <g
       transform="matrix(1.25,0,0,-1.25,-739.07125,3637.8909)"
       id="g7567">
      <g
         id="g361"
         transform="translate(1467.43,2292.874)">
        <path
           d="M 0,0 L -1208.946,0 L -1208.946,450.26 L 56.6,450.26 L 0,0"
           style="fill:#c4cfd0;fill-opacity:1;fill-rule:evenodd;stroke:none"
           id="path363" />
      </g>
      <g
         id="g365"
         transform="translate(926.662,2717.434)">
        <path
           d="M 0,0 L 0.279,0.65"
           style="fill:none;stroke:#080c0c;stroke-width:0.03;stroke-linecap:butt;stroke-linejoin:miter;stroke-miterlimit:3;stroke-dasharray:none;stroke-opacity:1"
           id="path367" />
      </g>
      <g
         id="g369"
         transform="translate(758.263,2427.854)">
        <path
           d="M 0,0 L 38.635,-12.62 L 41.313,-5.35 L 48.965,-7.26 L 45.905,-15.68 L 52.79,-17.59 L 43.609,-40.55 L 10.711,-29.83 L 7.651,-37.48 L -10.711,-31.36 L 0,0"
           style="fill:#0c5393;fill-opacity:1;fill-rule:nonzero;stroke:none"
           id="path371" />
      </g>
      <g
         id="g373"
         transform="translate(987.765,2505.864)">
        <path
           d="M 0,0 L 38.635,-12.63 L 41.315,-5.36 L 48.965,-7.27 L 45.905,-15.69 L 52.785,-17.6 L 43.615,-40.55 L 10.711,-29.84 L 7.651,-37.49 L -10.712,-31.37 L 0,0 z"
           style="fill:none;stroke:#0e1111;stroke-width:1;stroke-linecap:butt;stroke-linejoin:miter;stroke-miterlimit:3;stroke-dasharray:none;stroke-opacity:1"
           id="path375" />
      </g>
      <g
         id="g377"
         transform="translate(1007.05,2350.524)">
        <path
           d="M 0,0 L -9.747,3.05 L -7.497,9.25 L -50.247,23 L -42.497,42 L -32.25,38.84 L -33.747,32.5 L -3.2,23.35 L -1,30.25 L 8.75,27 L 0,0"
           style="fill:#0c5393;fill-opacity:1;fill-rule:nonzero;stroke:none"
           id="path379" />
      </g>
      <g
         id="g381"
         transform="translate(1026.55,2390.123)">
        <path
           d="M 0,0 L -20.59,6.19 L -18,14.81 L 2.59,8.61 L 0,0"
           style="fill:#0c5393;fill-opacity:1;fill-rule:nonzero;stroke:none"
           id="path383" />
      </g>
      <g
         id="g385"
         transform="translate(642.084,2602.303)">
        <path
           d="M 0,0 C -26,-14.66 -35.334,-19.45 -53.334,-26 C -71.334,-32.54 -148.089,-16.66 -148.089,-16.66 L -158,-33.33 C -158,-33.33 -86.11,-47.03 -66.668,-45.33 C -28.668,-42 4,-15.33 26.666,-12 C 49.332,-8.66 130.666,-38 130.666,-38 C 139.462,-41.62 128.666,-50 128.666,-50 C 128.666,-50 77.996,-123.66 46.996,-170.66 C 15.463,-218.47 -100.004,-392.66 -100.004,-392.66 L -63.004,-391.66 C -63.004,-391.66 55.398,-199.19 88.973,-147.39 C 123.973,-93.39 163.854,-50.06 167.854,-47.06 C 171.854,-44.06 177.854,-46.06 177.854,-46.06 L 265.973,-40.85 C 266.108,-41.07 267.248,-38.67 267.336,-38.92 C 267.812,-40.32 268.262,-41.23 269.265,-42.18 L 271.219,-42.45 C 271.219,-42.45 247.472,-94.49 240.996,-104.66 C 234.52,-114.84 229.956,-120.02 209.956,-156.02 C 189.956,-192.02 111.996,-308.66 111.996,-308.66 C 111.254,-309.78 136.344,-313.72 137.021,-312.69 C 137.021,-312.69 230.568,-164.2 246.969,-137.45 C 265.969,-106.45 292.178,-44.5 292.178,-44.5 C 292.692,-44.65 293.217,-44.78 293.76,-44.84 C 294.926,-44.88 299.633,-47.14 301.846,-44.44 C 302.079,-44.15 302.278,-43.85 302.468,-43.54 L 433.996,-34.66 L 439.996,-16.66 L 304.879,-29.28 L 303.551,-29.36 C 303.551,-29.36 303.117,-29.44 302.582,-28.63 C 301.85,-27.53 302.119,-26.09 302.797,-25.05 L 434.026,128.29 L 417.586,129.49 L 288.991,-13.94 L 283.506,-18.58 C 282.764,-19.7 279.89,-20.85 278.65,-20.74 C 275.617,-20.46 274.255,-25.26 272.45,-27.48 C 272.182,-27.8 271.559,-27.96 271.559,-27.96 L 193.849,-31.71 C 193.849,-31.71 189.278,-31.27 189.849,-23.96 C 190.018,-20.45 196.969,-12.45 200.469,-6.95 C 200.469,-6.95 267.969,88.05 280.469,116.05 L 285.877,156.9 L 236.666,96 L 166.666,-7.33 C 166.666,-7.33 163.145,-14.95 157.145,-18.45 C 151.145,-21.95 145.375,-18.32 145.375,-18.32 L 137.642,-16 L 124.098,-11.69 L 76.666,4 C 76.666,4 26,14.67 0,0 z M 282.659,-26.75 C 286.672,-25.29 291.028,-27.38 292.5,-31.34 C 293.912,-35.29 291.863,-39.73 287.91,-41.19 C 283.902,-42.59 279.541,-40.56 278.066,-36.6 C 276.662,-32.59 278.699,-28.22 282.659,-26.75"
           style="fill:#ffffff;fill-opacity:1;fill-rule:nonzero;stroke:none"
           id="path387" />
      </g>
      <g
         id="g389"
         transform="translate(889.226,2414.463)">
        <path
           d="M 0,0 L 43.548,85.31 L 79.973,66.21 L 67.814,42.68 L 63.256,45.22 L 42.087,3.55 L 46.854,1.18 L 36.472,-19.12 L 0,0 z"
           style="fill:none;stroke:#0e1111;stroke-width:1;stroke-linecap:butt;stroke-linejoin:miter;stroke-miterlimit:3;stroke-dasharray:none;stroke-opacity:1"
           id="path391" />
      </g>
      <text
         style="font-size:11.99880028px"
         y="-2472.7007"
         x="1044.8157"
         transform="scale(1.0001,-0.9999)"
         id="text393">
        <tspan
           style="font-size:19.00189972px;font-variant:normal;font-weight:normal;font-stretch:normal;writing-mode:lr-tb;fill:#080c0c;fill-opacity:1;fill-rule:nonzero;stroke:none;font-family:Helvetica;-inkscape-font-specification:Helvetica"
           x="1044.8157 1056.1409 1067.4659 1078.7911 1090.1162 1100.3772 1110.6383 1121.9634 1128.006 1134.0486 1145.3738 1150.3523"
           y="-2472.7007"
           sodipodi:role="line"
           id="tspan395">Landsspítali</tspan>
        <tspan
           style="font-size:19.00189972px;font-variant:normal;font-weight:normal;font-stretch:normal;writing-mode:lr-tb;fill:#080c0c;fill-opacity:1;fill-rule:nonzero;stroke:none;font-family:Helvetica;-inkscape-font-specification:Helvetica"
           x="1044.8157 1059.2952 1070.6202 1080.8813 1091.1423 1102.4674 1107.4459 1118.7711 1129.0321 1134.0106 1145.3358 1155.5968 1162.6844 1174.0096 1185.3347 1196.6599"
           y="-2449.8984"
           sodipodi:role="line"
           id="tspan397">Háskólasjúkrahús</tspan>
      </text>
      <text
         style="font-size:11.99880028px"
         y="-2467.0305"
         x="760.13599"
         transform="scale(1.0001,-0.9999)"
         id="text399">
        <tspan
           style="font-size:26.00259972px;font-variant:normal;font-weight:normal;font-stretch:normal;writing-mode:lr-tb;fill:#004982;fill-opacity:1;fill-rule:nonzero;stroke:none;font-family:Helvetica;-inkscape-font-specification:Helvetica"
           x="760.13599 775.11346 798.74982 812.27118 827.24866 842.2262"
           y="-2467.0305"
           sodipodi:role="line"
           id="tspan401">Lækna-</tspan>
        <tspan
           style="font-size:26.00259972px;font-variant:normal;font-weight:normal;font-stretch:normal;writing-mode:lr-tb;fill:#004982;fill-opacity:1;fill-rule:nonzero;stroke:none;font-family:Helvetica;-inkscape-font-specification:Helvetica"
           x="760.13599 775.11346 790.09094 799.2699 814.24738 829.22485"
           y="-2435.8274"
           sodipodi:role="line"
           id="tspan403">garður</tspan>
        <tspan
           style="font-size:26.00259972px;font-variant:normal;font-weight:normal;font-stretch:normal;writing-mode:lr-tb;fill:#004982;fill-opacity:1;fill-rule:nonzero;stroke:none;font-family:Helvetica;-inkscape-font-specification:Helvetica"
           x="1024.3588 1042.2225 1048.5153 1057.6941 1072.6716 1087.6492 1096.828"
           y="-2365.1809"
           sodipodi:role="line"
           id="tspan405">Eirberg</tspan>
      </text>
      <text
         style="font-size:11.98759079px"
         y="-966.60364"
         x="2587.4192"
         transform="matrix(0.6546734,0.7644688,0.7546511,-0.6462654,0,0)"
         id="text407">
        <tspan
           style="font-size:16.10360146px;font-variant:normal;font-weight:normal;font-stretch:normal;writing-mode:lr-tb;fill:#080c0c;fill-opacity:1;fill-rule:nonzero;stroke:none;font-family:Helvetica;-inkscape-font-specification:Helvetica"
           x="2587.4192 2598.4822 2611.333 2620.6086 2631.6719 2642.7349 2651.1089 2662.1721 2674.1208 2686.9717 2698.0347 2708.196"
           y="-966.60364"
           sodipodi:role="line"
           id="tspan409">SÓLEYJARGATA</tspan>
      </text>
      <text
         style="font-size:11.96482372px"
         y="-675.21326"
         x="2345.1006"
         transform="matrix(0.5282841,0.8566982,0.8456917,-0.5214949,0,0)"
         id="text411">
        <tspan
           style="font-size:18.11676598px;font-variant:normal;font-weight:normal;font-stretch:normal;writing-mode:lr-tb;fill:#080c0c;fill-opacity:1;fill-rule:nonzero;stroke:none;font-family:Helvetica;-inkscape-font-specification:Helvetica"
           x="2345.1006 2358.5432 2371.9858 2377.3845 2390.8271 2405.2844 2417.7307 2431.1733 2443.6194 2457.062"
           y="-675.21326"
           sodipodi:role="line"
           id="tspan413">HRINGBRAUT</tspan>
      </text>
      <text
         style="font-size:11.90957737px"
         y="-2708.8098"
         x="-63.477932"
         transform="matrix(0.9704504,-0.2759009,-0.2710508,-0.9533891,0,0)"
         id="text415">
        <tspan
           style="font-size:15.13369465px;font-variant:normal;font-weight:normal;font-stretch:normal;writing-mode:lr-tb;fill:#080c0c;fill-opacity:1;fill-rule:nonzero;stroke:none;font-family:Helvetica;-inkscape-font-specification:Helvetica"
           x="-63.477932 -52.24873 -44.379208 -33.982361 -22.753159 -11.523958 -1.1271118 10.102088 22.178778 32.575623 42.124985"
           y="-2708.8098"
           sodipodi:role="line"
           id="tspan417">NJARÐARGATA</tspan>
      </text>
      <g
         id="g419"
         transform="translate(343.588,2334.623)">
        <path
           d="M 0,0 L 981.452,-1.5"
           style="fill:none;stroke:#ffffff;stroke-width:19;stroke-linecap:butt;stroke-linejoin:miter;stroke-miterlimit:3;stroke-dasharray:none;stroke-opacity:1"
           id="path421" />
      </g>
      <text
         y="-2326.9736"
         x="817.74701"
         transform="scale(1,-1)"
         id="text423">
        <tspan
           style="font-size:18px;font-variant:normal;font-weight:normal;font-stretch:normal;writing-mode:lr-tb;fill:#0e1111;fill-opacity:1;fill-rule:nonzero;stroke:none;font-family:Helvetica;-inkscape-font-specification:Helvetica"
           x="817.74701 830.11298 843.46899 857.83301 871.18903 884.54498 896.91101 909.27698 922.633 934.99902 948.35498"
           y="-2326.9736"
           sodipodi:role="line"
           id="tspan425">SNORRABRAUT</tspan>
      </text>
      <g
         id="g427"
         transform="translate(944.081,2568.644)">
        <path
           d="M 0,0 C 0,-9.02 -7.312,-16.33 -16.333,-16.33 C -25.353,-16.33 -32.665,-9.02 -32.665,0 C -32.665,9.02 -25.353,16.33 -16.333,16.33 C -7.312,16.33 0,9.02 0,0 z"
           style="fill:none;stroke:#ffffff;stroke-width:13;stroke-linecap:butt;stroke-linejoin:miter;stroke-miterlimit:3;stroke-dasharray:none;stroke-opacity:1"
           id="path429" />
      </g>
      <g
         id="g431"
         transform="translate(1237.08,2334.644)">
        <path
           d="M 0,0 L 9,56 L 132.96,370.96"
           style="fill:none;stroke:#ffffff;stroke-width:15;stroke-linecap:butt;stroke-linejoin:miter;stroke-miterlimit:3;stroke-dasharray:none;stroke-opacity:1"
           id="path433" />
      </g>
      <g
         id="g435"
         transform="translate(693.747,2436.974)">
        <path
           d="M 0,0 C 0,0 -48,-40 -102,-62.66 C -158.743,-86.48 -229.333,-95.33 -229.333,-95.33"
           style="fill:none;stroke:#ffffff;stroke-width:4;stroke-linecap:butt;stroke-linejoin:miter;stroke-miterlimit:3;stroke-dasharray:none;stroke-opacity:1"
           id="path437" />
      </g>
      <g
         id="g439"
         transform="translate(706.08,2307.804)">
        <path
           d="M 0,0 C 0.261,-10.58 -15.527,-19.58 -34.666,-19.16 C -80.333,-18.16 -67.123,6.36 -64.999,8.84 C -59.447,15.33 -57.85,18.17 -43.999,18.17 C -24.854,18.17 -0.333,13.51 0,0 z"
           style="fill:none;stroke:#ffffff;stroke-width:4;stroke-linecap:butt;stroke-linejoin:miter;stroke-miterlimit:4;stroke-dasharray:none;stroke-opacity:1"
           id="path441" />
        <g
           id="g443"
           transform="translate(-130.391,48.99)">
          <path
             d="M 0,0 C -0.259,10.58 15.528,19.59 34.666,19.17 C 80.334,18.17 67.124,-6.35 65,-8.83 C 59.448,-15.32 57.85,-18.16 44,-18.16 C 24.856,-18.16 0.334,-13.5 0,0 z"
             style="fill:none;stroke:#ffffff;stroke-width:4;stroke-linecap:butt;stroke-linejoin:miter;stroke-miterlimit:4;stroke-dasharray:none;stroke-opacity:1"
             id="path445" />
        </g>
      </g>
      <g
         id="g447"
         transform="translate(663.793,2344.563)">
        <path
           d="M 0,0 C -5.195,-1.84 -11.464,-2.92 -18.213,-2.92 C -25.625,-2.92 -32.459,-1.62 -37.927,0.56"
           style="fill:none;stroke:#c4cfd0;stroke-width:2;stroke-linecap:butt;stroke-linejoin:miter;stroke-miterlimit:3;stroke-dasharray:none;stroke-opacity:1"
           id="path449" />
        <g
           id="g451"
           transform="translate(-57.36,-23.04)">
          <path
             d="M 0,0 C 5.948,3.45 14.563,5.62 24.147,5.62 C 33.032,5.62 41.084,3.75 46.951,0.73"
             style="fill:none;stroke:#c4cfd0;stroke-width:2;stroke-linecap:butt;stroke-linejoin:miter;stroke-miterlimit:3;stroke-dasharray:none;stroke-opacity:1"
             id="path453" />
        </g>
      </g>
      <g
         id="g455"
         transform="translate(932.08,2522.644)">
        <path
           d="M 0,0 L 378,9"
           style="fill:none;stroke:#ffffff;stroke-width:15;stroke-linecap:butt;stroke-linejoin:miter;stroke-miterlimit:3;stroke-dasharray:none;stroke-opacity:1"
           id="path457" />
      </g>
      <g
         id="g459"
         transform="translate(1056.08,2607.644)">
        <path
           d="M 0,0 L -154,-103"
           style="fill:none;stroke:#ffffff;stroke-width:14;stroke-linecap:butt;stroke-linejoin:miter;stroke-miterlimit:3;stroke-dasharray:none;stroke-opacity:1"
           id="path461" />
      </g>
      <text
         style="font-size:11.97207451px"
         y="-1552.1415"
         x="2185.8386"
         transform="matrix(0.8284193,0.5716023,0.5642623,-0.817782,0,0)"
         id="text463">
        <tspan
           style="font-size:16.10367966px;font-variant:normal;font-weight:normal;font-stretch:normal;writing-mode:lr-tb;fill:#080c0c;fill-opacity:1;fill-rule:nonzero;stroke:none;font-family:Helvetica;-inkscape-font-specification:Helvetica"
           x="2185.8386 2195.1143 2206.1775 2218.1265"
           y="-1552.1415"
           sodipodi:role="line"
           id="tspan465">LAUF</tspan>
        <tspan
           style="font-size:16.10367966px;font-variant:normal;font-weight:normal;font-stretch:normal;writing-mode:lr-tb;fill:#080c0c;fill-opacity:1;fill-rule:nonzero;stroke:none;font-family:Helvetica;-inkscape-font-specification:Helvetica"
           x="2228.2927 2239.356 2250.4192 2261.4824 2272.5457 2285.3965 2297.3455"
           y="-1552.1448"
           sodipodi:role="line"
           id="tspan467">ÁSVEGUR</tspan>
      </text>
      <text
         style="font-size:11.9227314px"
         y="-2523.0061"
         x="1053.7433"
         transform="matrix(1.0064144,1.1717801e-2,1.1562557e-2,-0.9934919,0,0)"
         id="text469">
        <tspan
           style="font-size:16.10370445px;font-variant:normal;font-weight:normal;font-stretch:normal;writing-mode:lr-tb;fill:#080c0c;fill-opacity:1;fill-rule:nonzero;stroke:none;font-family:Helvetica;-inkscape-font-specification:Helvetica"
           x="1053.7433 1064.8065 1075.8698 1087.8187 1100.6694 1112.6184 1123.6816 1134.7449 1144.9064 1149.7053 1162.556 1174.505"
           y="-2523.0061"
           sodipodi:role="line"
           id="tspan471">BARÓNSSTÍGUR</tspan>
      </text>
      <text
         style="font-size:12px"
         y="-543.099"
         x="2420.4968"
         transform="matrix(0.5248777,0.8511777,0.8511777,-0.5248777,0,0)"
         id="text473">
        <tspan
           style="font-size:18.00000191px;font-variant:normal;font-weight:normal;font-stretch:normal;writing-mode:lr-tb;fill:#080c0c;fill-opacity:1;fill-rule:nonzero;stroke:none;font-family:Helvetica;-inkscape-font-specification:Helvetica"
           x="2420.4968 2434.8608 2447.2268 2462.5808 2472.9487 2485.3147 2490.6787 2497.0327 2502.3967 2515.7527 2529.1086 2534.4727 2547.8289 2562.1929 2574.5588 2587.9148 2600.2808 2613.6367"
           y="-543.099"
           sodipodi:role="line"
           id="tspan475">GAMLA - HRINGBRAUT</tspan>
      </text>
      <text
         style="font-size:11.94436741px"
         y="260.4418"
         x="2664.6592"
         transform="matrix(0.3792721,0.932289,0.9203167,-0.3743982,0,0)"
         id="text477">
        <tspan
           style="font-size:18.11680603px;font-variant:normal;font-weight:normal;font-stretch:normal;writing-mode:lr-tb;fill:#080c0c;fill-opacity:1;fill-rule:nonzero;stroke:none;font-family:Helvetica;-inkscape-font-specification:Helvetica"
           x="2664.6592 2677.1055 2682.5042"
           y="260.4418"
           sodipodi:role="line"
           id="tspan479">EIR</tspan>
        <tspan
           style="font-size:18.11680603px;font-variant:normal;font-weight:normal;font-stretch:normal;writing-mode:lr-tb;fill:#080c0c;fill-opacity:1;fill-rule:nonzero;stroke:none;font-family:Helvetica;-inkscape-font-specification:Helvetica"
           x="2695.9487 2701.3477 2713.7937 2726.24 2740.6973 2753.1436 2764.5752"
           y="260.44543"
           sodipodi:role="line"
           id="tspan481">ÍKSGATA</tspan>
      </text>
    </g>
  </g>
</svg>
