<?xml version="1.0" encoding="UTF-8" standalone="no"?>
<!-- Created with Inkscape (http://www.inkscape.org/) -->
<svg
   xmlns:dc="http://purl.org/dc/elements/1.1/"
   xmlns:cc="http://creativecommons.org/ns#"
   xmlns:rdf="http://www.w3.org/1999/02/22-rdf-syntax-ns#"
   xmlns:svg="http://www.w3.org/2000/svg"
   xmlns="http://www.w3.org/2000/svg"
   xmlns:sodipodi="http://sodipodi.sourceforge.net/DTD/sodipodi-0.dtd"
   xmlns:inkscape="http://www.inkscape.org/namespaces/inkscape"
   width="1759.7925"
   height="1078.8625"
   id="svg10372"
   sodipodi:version="0.32"
   inkscape:version="0.46"
   sodipodi:docname="Laugarvatn.svg"
   inkscape:output_extension="org.inkscape.output.svg.inkscape"
   version="1.0">
  <defs
     id="defs10374">
    <inkscape:perspective
       sodipodi:type="inkscape:persp3d"
       inkscape:vp_x="0 : 526.18109 : 1"
       inkscape:vp_y="0 : 1000 : 0"
       inkscape:vp_z="744.09448 : 526.18109 : 1"
       inkscape:persp3d-origin="372.04724 : 350.78739 : 1"
       id="perspective10380" />
  </defs>
  <sodipodi:namedview
     id="base"
     pagecolor="#ffffff"
     bordercolor="#666666"
     borderopacity="1.0"
     gridtolerance="10000"
     guidetolerance="10"
     objecttolerance="10"
     inkscape:pageopacity="0.0"
     inkscape:pageshadow="2"
     inkscape:zoom="0.35"
     inkscape:cx="375"
     inkscape:cy="520"
     inkscape:document-units="px"
     inkscape:current-layer="layer1"
     showgrid="false"
     inkscape:window-width="1278"
     inkscape:window-height="1022"
     inkscape:window-x="0"
     inkscape:window-y="0" />
  <metadata
     id="metadata10377">
    <rdf:RDF>
      <cc:Work
         rdf:about="">
        <dc:format>image/svg+xml</dc:format>
        <dc:type
           rdf:resource="http://purl.org/dc/dcmitype/StillImage" />
      </cc:Work>
    </rdf:RDF>
  </metadata>
  <g
     inkscape:label="Layer 1"
     inkscape:groupmode="layer"
     id="layer1"
     transform="translate(504.89625,7.06905)">
    <g
       transform="matrix(1.25,0,0,-1.25,-831.39125,1392.7222)"
       id="g7704">
      <g
         id="g483"
         transform="translate(1494.81,856.863)">
        <path
           d="M 0,0 L -9.91,39.3 L 14.7,24.61 L 0,0"
           style="fill:#0e1111;fill-opacity:1;fill-rule:nonzero;stroke:none"
           id="path485" />
      </g>
      <g
         id="g487"
         transform="translate(1476.39,889.884)">
        <path
           d="M 0,0 L 2.15,-8.52 L -21.07,-30.8 L 6.05,-23.95 L 7.96,-31.53 L -30.93,-41.34 L -32.98,-33.21 L -9.38,-10.42 L -36.97,-17.38 L -38.88,-9.81 L 0,0"
           style="fill:#0e1111;fill-opacity:1;fill-rule:nonzero;stroke:none"
           id="path489" />
      </g>
      <g
         id="g491"
         transform="translate(1460.25,915.624)">
        <path
           d="M 0,0 C -24.17,-6.14 -38.8,-30.64 -32.74,-54.84 C -26.6,-79.01 -2.1,-93.64 22.1,-87.58 C 46.28,-81.44 60.9,-56.94 54.85,-32.74 C 48.7,-8.56 24.2,6.07 0,0 z M -1.86,7.37 C 26.4,14.5 55.08,-2.62 62.21,-30.88 C 69.34,-59.14 52.21,-87.82 23.96,-94.96 C -4.3,-102.08 -32.98,-84.96 -40.11,-56.7 C -47.24,-28.44 -30.12,0.25 -1.86,7.37"
           style="fill:#0e1111;fill-opacity:1;fill-rule:nonzero;stroke:none"
           id="path493" />
      </g>
      <g
         id="g495"
         transform="translate(1669.03,256.743)">
        <path
           d="M 0,0 L -1407.739,0.15 L -1407.834,863.09 L -0.09,862.94 L 0,0"
           style="fill:#c4cfd0;fill-opacity:1;fill-rule:evenodd;stroke:none"
           id="path497" />
      </g>
      <g
         id="g499"
         transform="translate(1535.61,678.214)">
        <path
           d="M 0,0 C 0,0 -111.95,62.69 -231.17,86.9 C -325.78,106.12 -777.744,184.03 -805.255,204.19 C -871.856,252.98 -939.151,380.38 -1002.547,405.51 C -1068.217,431.53 -1175.432,400.35 -1175.432,400.35"
           style="fill:none;stroke:#ffffff;stroke-width:22;stroke-linecap:butt;stroke-linejoin:miter;stroke-miterlimit:4;stroke-dasharray:none;stroke-opacity:1"
           id="path501" />
      </g>
      <g
         id="g503"
         transform="translate(1508.8,775.504)">
        <path
           d="M 0,0 L -14.85,-21.84 L -27.51,-70.28"
           style="fill:none;stroke:#ffffff;stroke-width:16;stroke-linecap:butt;stroke-linejoin:miter;stroke-miterlimit:4;stroke-dasharray:none;stroke-opacity:1"
           id="path505" />
        <g
           id="g507"
           transform="translate(-14.85,-21.84)">
          <path
             d="M 0,0 L -86.78,30.14 L -152.73,22.55 L -168.11,2.83"
             style="fill:none;stroke:#ffffff;stroke-width:16;stroke-linecap:butt;stroke-linejoin:miter;stroke-miterlimit:4;stroke-dasharray:none;stroke-opacity:1"
             id="path509" />
          <g
             id="g511"
             transform="translate(-36.3,-187.87)">
            <path
               d="M 0,0 L 31.69,107.53 L -109.59,156.86 L -343,184.92 L -456.87,196.91"
               style="fill:none;stroke:#ffffff;stroke-width:16;stroke-linecap:butt;stroke-linejoin:miter;stroke-miterlimit:4;stroke-dasharray:none;stroke-opacity:1"
               id="path513" />
            <g
               id="g515"
               transform="translate(-281.27,220.8)">
              <path
                 d="M 0,0 L -105.1,-150.88 C -105.1,-150.88 -111,-160.09 -110.74,-176.85 C -110.49,-193.61 -90.28,-192.29 -90.28,-192.29"
                 style="fill:none;stroke:#ffffff;stroke-width:16;stroke-linecap:butt;stroke-linejoin:miter;stroke-miterlimit:4;stroke-dasharray:none;stroke-opacity:1"
                 id="path517" />
              <g
                 id="g519"
                 transform="translate(-77.51,-116.77)">
                <path
                   d="M 0,0 L 50.54,-3.09"
                   style="fill:none;stroke:#ffffff;stroke-width:16;stroke-linecap:butt;stroke-linejoin:miter;stroke-miterlimit:4;stroke-dasharray:none;stroke-opacity:1"
                   id="path521" />
                <g
                   id="g523"
                   transform="translate(327.53,54.73)">
                  <path
                     d="M 0,0 L -10.5,-38.09 L -51.77,-143.51 L -125.23,-121.33 L -109.39,-67.56"
                     style="fill:none;stroke:#ffffff;stroke-width:16;stroke-linecap:butt;stroke-linejoin:miter;stroke-miterlimit:4;stroke-dasharray:none;stroke-opacity:1"
                     id="path525" />
                  <g
                     id="g527"
                     transform="translate(-356.48,-95.16)">
                    <path
                       d="M 0,0 L -205.83,22.08"
                       style="fill:none;stroke:#ffffff;stroke-width:16;stroke-linecap:butt;stroke-linejoin:miter;stroke-miterlimit:4;stroke-dasharray:none;stroke-opacity:1"
                       id="path529" />
                    <g
                       id="g531"
                       transform="translate(-148.897,204.83)">
                      <path
                         d="M 0,0 L 86.697,-194.02"
                         style="fill:none;stroke:#ffffff;stroke-width:16;stroke-linecap:butt;stroke-linejoin:miter;stroke-miterlimit:4;stroke-dasharray:none;stroke-opacity:1"
                         id="path533" />
                      <g
                         id="g535"
                         transform="translate(-93.203,17.4)">
                        <path
                           d="M 0,0 L -12.478,-58.63 L -50.146,-106.59 L -76.72,-117.82 L -45.295,-134.77 L -17.648,-127.8 L -4.411,-99.57"
                           style="fill:none;stroke:#ffffff;stroke-width:16;stroke-linecap:butt;stroke-linejoin:miter;stroke-miterlimit:4;stroke-dasharray:none;stroke-opacity:1"
                           id="path537" />
                        <g
                           id="g539"
                           transform="translate(-12.478,-58.63)">
                          <path
                             d="M 0,0 C 0,0 3.696,-42.31 16.045,-74.02 C 28.403,-105.73 83.453,-214.21 83.453,-214.21 L 97.694,-238.88 L 101.1,-257.26"
                             style="fill:none;stroke:#ffffff;stroke-width:16;stroke-linecap:butt;stroke-linejoin:miter;stroke-miterlimit:4;stroke-dasharray:none;stroke-opacity:1"
                             id="path541" />
                          <g
                             id="g543"
                             transform="translate(54.057,-151.5)">
                            <path
                               d="M 0,0 L -37.441,0.47"
                               style="fill:none;stroke:#ffffff;stroke-width:16;stroke-linecap:butt;stroke-linejoin:miter;stroke-miterlimit:4;stroke-dasharray:none;stroke-opacity:1"
                               id="path545" />
                            <g
                               id="g547"
                               transform="translate(32.75,-71.84)">
                              <path
                                 d="M 0,0 L -16.549,-17.24 L -173.897,-66.51"
                                 style="fill:none;stroke:#ffffff;stroke-width:16;stroke-linecap:butt;stroke-linejoin:miter;stroke-miterlimit:4;stroke-dasharray:none;stroke-opacity:1"
                                 id="path549" />
                              <g
                                 id="g551"
                                 transform="translate(-46.491,-19.39)">
                                <path
                                   d="M 0,0 L -2.601,21.51 L -43.011,11.32 L -55.402,-24.1"
                                   style="fill:none;stroke:#ffffff;stroke-width:16;stroke-linecap:butt;stroke-linejoin:miter;stroke-miterlimit:4;stroke-dasharray:none;stroke-opacity:1"
                                   id="path553" />
                                <g
                                   id="g555"
                                   transform="translate(-327.087,147.76)">
                                <path
                                   d="M 0,0 L 27.691,-11.11 L 80.344,-4.61 L 155.476,-60.31 L 168.77,-59.22 L 192.19,-103.08 C 192.19,-103.08 212.585,-153.54 207.769,-173.8 C 202.951,-194.06 143.162,-271.54 143.162,-271.54 C 143.162,-271.54 110.726,-277.46 110.744,-286.5 C 110.763,-295.55 125.685,-309.88 125.685,-309.88"
                                   style="fill:none;stroke:#ffffff;stroke-width:16;stroke-linecap:butt;stroke-linejoin:miter;stroke-miterlimit:4;stroke-dasharray:none;stroke-opacity:1"
                                   id="path557" />
                                <g
                                   id="g559"
                                   transform="translate(72.283,-214.76)">
                                <path
                                   d="M 0,0 L 20.754,-1.56 L 54.859,-29.15 L 86.244,-28.02"
                                   style="fill:none;stroke:#ffffff;stroke-width:16;stroke-linecap:butt;stroke-linejoin:miter;stroke-miterlimit:4;stroke-dasharray:none;stroke-opacity:1"
                                   id="path561" />
                                <g
                                   id="g563"
                                   transform="translate(99.211,-13.35)">
                                <path
                                   d="M 0,0 C 0,0 -23.705,27.87 -15.748,41.19 C -7.797,54.5 23.648,28.51 23.648,28.51"
                                   style="fill:none;stroke:#ffffff;stroke-width:16;stroke-linecap:butt;stroke-linejoin:miter;stroke-miterlimit:4;stroke-dasharray:none;stroke-opacity:1"
                                   id="path565" />
                                <g
                                   id="g567"
                                   transform="translate(33.766,409.15)">
                                <path
                                   d="M 0,0 L -31.575,-40.38 L -86.508,11.8 L -57.327,48.57"
                                   style="fill:none;stroke:#ffffff;stroke-width:16;stroke-linecap:butt;stroke-linejoin:miter;stroke-miterlimit:4;stroke-dasharray:none;stroke-opacity:1"
                                   id="path569" />
                                <g
                                   id="g571"
                                   transform="translate(-29.43,-38.54)">
                                <path
                                   d="M 0,0 L -36.591,-52.22 L -64.338,-37.46"
                                   style="fill:none;stroke:#ffffff;stroke-width:16;stroke-linecap:butt;stroke-linejoin:miter;stroke-miterlimit:4;stroke-dasharray:none;stroke-opacity:1"
                                   id="path573" />
                                <g
                                   id="g575"
                                   transform="translate(-24.026,17.96)">
                                <path
                                   d="M 0,0 C 0,0 -29.698,-43.69 -50.487,-24.06 C -71.277,-4.41 -33.052,32.38 -33.052,32.38 C -33.052,32.38 -41.668,39.94 -56.487,44.56 C -71.304,49.18 -119.261,42.3 -136.292,47.05 C -153.321,51.8 -172.544,83.15 -172.544,83.15 L -249.818,147.35"
                                   style="fill:none;stroke:#ffffff;stroke-width:16;stroke-linecap:butt;stroke-linejoin:miter;stroke-miterlimit:4;stroke-dasharray:none;stroke-opacity:1"
                                   id="path577" />
                                </g>
                                </g>
                                </g>
                                </g>
                                </g>
                                </g>
                              </g>
                            </g>
                          </g>
                        </g>
                      </g>
                    </g>
                  </g>
                </g>
              </g>
            </g>
          </g>
        </g>
      </g>
      <g
         id="g579"
         transform="translate(539.434,547.603)">
        <path
           d="M 0,0 L 8.326,-4.53 L 23.949,2.95 L 61.432,-67.94 L 18.07,-88.69 L -21.332,-10.2 L 0,0"
           style="fill:#0c5393;fill-opacity:1;fill-rule:nonzero;stroke:none"
           id="path581" />
      </g>
      <g
         id="g583"
         transform="translate(759.177,558.284)">
        <path
           d="M 0,0 L -5.839,23.15 L 8.89,26.87 L -1.807,69.28 L 61.325,85.21 L 71.495,44.9 L 84.124,48.09 L 90.495,22.83 L 0,0"
           style="fill:#0c5393;fill-opacity:1;fill-rule:nonzero;stroke:none"
           id="path585" />
      </g>
      <g
         id="g587"
         transform="translate(913.036,554.114)">
        <path
           d="M 0,0 C 0,0 24.996,-9.36 40.749,-2.78 C 56.504,3.81 79.798,25.36 79.798,25.36"
           style="fill:none;stroke:#ffffff;stroke-width:14;stroke-linecap:butt;stroke-linejoin:miter;stroke-miterlimit:4;stroke-dasharray:none;stroke-opacity:1"
           id="path589" />
      </g>
      <text
         style="font-size:11.90167522px"
         y="-998.49725"
         x="687.737"
         transform="matrix(0.9901047,-0.1938922,-0.1904826,-0.972692,0,0)"
         id="text591">
        <tspan
           style="font-size:25.22278404px;font-variant:normal;font-weight:normal;writing-mode:lr-tb;fill:#080c0c;fill-opacity:1;fill-rule:nonzero;stroke:none;font-family:ArialMT;-inkscape-font-specification:ArialMT"
           x="687.737 702.03833 719.1394 737.62769 757.52844 774.62952 793.1178 810.21887 827.31989 843.00848 861.49677 878.59784 895.69891 912.79993 932.70068 951.18903"
           y="-998.49725"
           sodipodi:role="line"
           id="tspan593">LAUGARVATNSVEGUR</tspan>
      </text>
      <text
         style="font-size:11.92092514px"
         y="-1039.697"
         x="-426.54614"
         transform="matrix(0.3628554,-0.9413984,-0.9248459,-0.3564824,0,0)"
         id="text595">
        <tspan
           style="font-size:20.17827988px;font-variant:normal;font-weight:normal;writing-mode:lr-tb;fill:#080c0c;fill-opacity:1;fill-rule:nonzero;stroke:none;font-family:ArialMT;-inkscape-font-specification:ArialMT"
           x="-426.54614 -414.92343 -401.06097 -386.08868 -369.98642 -356.12393 -341.15164 -327.28915 -312.31689 -298.45441 -283.48212"
           y="-1039.697"
           sodipodi:role="line"
           id="tspan597">LAUGARBRAUT</tspan>
      </text>
      <text
         style="font-size:11.99258232px"
         y="-1098.0216"
         x="-129.42647"
         transform="matrix(0.7350903,-0.6910428,-0.6788811,-0.7221754,0,0)"
         id="text599">
        <tspan
           style="font-size:20.17820168px;font-variant:normal;font-weight:normal;writing-mode:lr-tb;fill:#080c0c;fill-opacity:1;fill-rule:nonzero;stroke:none;font-family:ArialMT;-inkscape-font-specification:ArialMT"
           x="-129.42647 -115.56405"
           y="-1098.0216"
           sodipodi:role="line"
           id="tspan601">SK</tspan>
        <tspan
           style="font-size:20.17820168px;font-variant:normal;font-weight:normal;writing-mode:lr-tb;fill:#080c0c;fill-opacity:1;fill-rule:nonzero;stroke:none;font-family:ArialMT;-inkscape-font-specification:ArialMT"
           x="-101.70768 -85.605476 -73.982826 -60.120407 -47.387966 -32.415733"
           y="-1098.0276"
           sodipodi:role="line"
           id="tspan603">ÓLATÚN</tspan>
      </text>
      <text
         style="font-size:11.8983717px"
         y="-770.74371"
         x="777.20929"
         transform="matrix(0.998436,-0.1449792,-0.1424121,-0.9808873,0,0)"
         id="text605">
        <tspan
           style="font-size:20.17805862px;font-variant:normal;font-weight:normal;writing-mode:lr-tb;fill:#080c0c;fill-opacity:1;fill-rule:nonzero;stroke:none;font-family:ArialMT;-inkscape-font-specification:ArialMT"
           x="777.20929 788.83185 794.84491 809.81708 824.78918 838.65149 853.6236 867.48596 882.45807 896.32037 911.29254"
           y="-770.74371"
           sodipodi:role="line"
           id="tspan607">LINDARBRAUT</tspan>
      </text>
      <text
         style="font-size:11.97726917px"
         y="435.61697"
         x="1133.4874"
         transform="matrix(0.6359303,0.783258,0.7694856,-0.6247449,0,0)"
         id="text609">
        <tspan
           style="font-size:20.17815399px;font-variant:normal;font-weight:normal;writing-mode:lr-tb;fill:#080c0c;fill-opacity:1;fill-rule:nonzero;stroke:none;font-family:ArialMT;-inkscape-font-specification:ArialMT"
           x="1133.4874 1145.11 1151.1232 1166.0953 1181.0675 1194.9299 1209.9021 1223.7645 1238.7367 1252.5991 1267.5713"
           y="435.61697"
           sodipodi:role="line"
           id="tspan611">LINDARBRAUT</tspan>
      </text>
      <text
         style="font-size:11.9285984px"
         y="-1185.3854"
         x="-350.92902"
         transform="matrix(0.4115663,-0.921151,-0.9049424,-0.4043369,0,0)"
         id="text613">
        <tspan
           style="font-size:19.94624329px;font-variant:normal;font-weight:normal;writing-mode:lr-tb;fill:#080c0c;fill-opacity:1;fill-rule:nonzero;stroke:none;font-family:ArialMT;-inkscape-font-specification:ArialMT"
           x="-350.92902 -337.40546 -327.21292 -313.68936 -299.06879 -285.54523 -272.02167 -257.40106 -243.87752 -229.25691 -215.73337 -201.11278"
           y="-1185.3854"
           sodipodi:role="line"
           id="tspan615">BJARKARBRAUT</tspan>
      </text>
      <text
         style="font-size:11.89683247px"
         y="-874.63214"
         x="916.45209"
         transform="matrix(1.0022141,-0.1160019,-0.1139551,-0.984601,0,0)"
         id="text617">
        <tspan
           style="font-size:20.17812347px;font-variant:normal;font-weight:normal;writing-mode:lr-tb;fill:#080c0c;fill-opacity:1;fill-rule:nonzero;stroke:none;font-family:ArialMT;-inkscape-font-specification:ArialMT"
           x="916.45209 931.42426 945.28662 959.14899 973.01135 983.50397 997.36633 1011.2287 1026.2009 1040.0632 1055.0354"
           y="-874.63214"
           sodipodi:role="line"
           id="tspan619">REYKJABRAUT</tspan>
        <tspan
           style="font-size:20.17812347px;font-variant:normal;font-weight:normal;writing-mode:lr-tb;fill:#080c0c;fill-opacity:1;fill-rule:nonzero;stroke:none;font-family:ArialMT;-inkscape-font-specification:ArialMT"
           x="1119.4279 1132.1603 1148.2625 1163.2346 1175.9669 1190.9391 1207.0413 1218.6638"
           y="-876.08093"
           sodipodi:role="line"
           id="tspan621">TORFHOLT</tspan>
      </text>
      <text
         style="font-size:11.92075443px"
         y="-1078.049"
         x="-1128.6859"
         transform="matrix(-0.3612114,-0.942031,-0.9254736,0.3548482,0,0)"
         id="text623">
        <tspan
           style="font-size:20.1782093px;font-variant:normal;font-weight:normal;writing-mode:lr-tb;fill:#080c0c;fill-opacity:1;fill-rule:nonzero;stroke:none;font-family:ArialMT;-inkscape-font-specification:ArialMT"
           x="-1128.6859 -1113.7137 -1098.7415 -1092.7284 -1078.866 -1063.8937 -1047.7915 -1036.1688"
           y="-1078.049"
           sodipodi:role="line"
           id="tspan625">HRÍSHOLT</tspan>
      </text>
      <text
         style="font-size:11.90694427px"
         y="-304.19724"
         x="853.86713"
         transform="matrix(0.9769431,0.2519557,0.2475351,-0.9597612,0,0)"
         id="text627">
        <tspan
           style="font-size:20.17814445px;font-variant:normal;font-weight:normal;writing-mode:lr-tb;fill:#080c0c;fill-opacity:1;fill-rule:nonzero;stroke:none;font-family:ArialMT;-inkscape-font-specification:ArialMT"
           x="853.86713 868.65771 882.33844 896.01923 910.80981 924.4906 938.17139 952.96198 966.64276 981.43335"
           y="-304.19724"
           sodipodi:role="line"
           id="tspan629">HVERABRAUT</tspan>
      </text>
      <text
         style="font-size:11.38415146px"
         y="-616.84705"
         x="674.94141"
         transform="matrix(0.9486762,2.2199405e-3,2.4671554e-3,-1.0540947,0,0)"
         id="text631">
        <tspan
           style="font-size:40.04611969px;font-variant:normal;font-weight:normal;font-stretch:normal;writing-mode:lr-tb;fill:#004982;fill-opacity:1;fill-rule:nonzero;stroke:none;font-family:Helvetica;-inkscape-font-specification:Helvetica"
           x="674.94141 686.07422 708.33984 721.67523 743.94086 755.07367 766.20654 788.47217 810.73779 833.00342"
           y="-616.84705"
           sodipodi:role="line"
           id="tspan633">Íþróttahús</tspan>
      </text>
      <text
         style="font-size:11.46745872px"
         y="-931.98169"
         x="625.01398"
         transform="matrix(0.9118374,-0.2618183,-0.2909112,-1.0131567,0,0)"
         id="text635">
        <tspan
           style="font-size:22.13596535px;font-variant:normal;font-weight:normal;font-stretch:normal;writing-mode:lr-tb;fill:#0c5393;fill-opacity:1;fill-rule:nonzero;stroke:none;font-family:Helvetica;-inkscape-font-specification:Helvetica"
           x="625.01398 639.77869 645.93243 658.24005 670.54767 682.85522 695.16284 701.31665"
           y="-931.98169"
           sodipodi:role="line"
           id="tspan637">Stúdenta</tspan>
        <tspan
           style="font-size:22.13596535px;font-variant:normal;font-weight:normal;font-stretch:normal;writing-mode:lr-tb;fill:#0c5393;fill-opacity:1;fill-rule:nonzero;stroke:none;font-family:Helvetica;-inkscape-font-specification:Helvetica"
           x="625.01398 668.09058 674.24438 686.55194 698.85956 711.16718 716.08136"
           y="-908.07709"
           sodipodi:role="line"
           id="tspan639">íbúðir</tspan>
      </text>
      <text
         style="font-size:11.38416386px"
         y="-458.7283"
         x="1301.9436"
         transform="matrix(0.9486723,3.5659398e-3,3.9629877e-3,-1.0540898,0,0)"
         id="text641">
        <tspan
           style="font-size:40.04554367px;font-variant:normal;font-weight:normal;font-stretch:normal;writing-mode:lr-tb;fill:#004982;fill-opacity:1;fill-rule:nonzero;stroke:none;font-family:Helvetica;-inkscape-font-specification:Helvetica"
           x="1301.9436 1313.0763 1335.3417 1348.6768 1370.9421 1382.0748 1393.2074 1415.4728 1426.6055 1439.9406 1475.5411 1497.8064 1520.0718 1540.0945 1562.3599 1573.4924 1595.7578 1609.093 1620.2257 1649.1385"
           y="-458.7283"
           sodipodi:role="line"
           id="tspan643">Íþróttafræðasetur HÍ</tspan>
      </text>
      <text
         style="font-size:11.38437366px"
         y="-488.27628"
         x="405.57358"
         transform="matrix(0.9485822,1.3574468e-2,1.508524e-2,-1.0539891,0,0)"
         id="text645">
        <tspan
           style="font-size:40.04576874px;font-variant:normal;font-weight:normal;font-stretch:normal;writing-mode:lr-tb;fill:#004982;fill-opacity:1;fill-rule:nonzero;stroke:none;font-family:Helvetica;-inkscape-font-specification:Helvetica"
           x="405.57358 416.7063 438.97174 452.30698 474.57245 485.70517 496.83789 519.10333"
           y="-488.27628"
           sodipodi:role="line"
           id="tspan647">Íþrótta-</tspan>
        <tspan
           style="font-size:40.04576874px;font-variant:normal;font-weight:normal;font-stretch:normal;writing-mode:lr-tb;fill:#004982;fill-opacity:1;fill-rule:nonzero;stroke:none;font-family:Helvetica;-inkscape-font-specification:Helvetica"
           x="405.57358 438.9317 447.82187 470.08731 490.1102 501.24292 523.50836"
           y="-445.03085"
           sodipodi:role="line"
           id="tspan649">miðstöð</tspan>
      </text>
      <g
         id="g651"
         transform="translate(627.245,633.624)">
        <path
           d="M 0,0 L -52.764,-44.81"
           style="fill:none;stroke:#ffffff;stroke-width:4;stroke-linecap:butt;stroke-linejoin:miter;stroke-miterlimit:4;stroke-dasharray:none;stroke-opacity:1"
           id="path653" />
        <g
           id="g655"
           transform="translate(-14.85,-36.93)">
          <path
             d="M 0,0 C -7.801,-6.63 -19.505,-5.68 -26.137,2.12 C -32.764,9.93 -31.814,21.63 -24.006,28.26 C -16.201,34.89 -4.502,33.94 2.131,26.13 C 8.759,18.33 7.809,6.62 0,0 z"
             style="fill:none;stroke:#ffffff;stroke-width:4;stroke-linecap:butt;stroke-linejoin:miter;stroke-miterlimit:4;stroke-dasharray:none;stroke-opacity:1"
             id="path657" />
          <g
             id="g659"
             transform="translate(35.061,-13.21)">
            <path
               d="M 0,0 C -6.791,5.34 -16.615,5.35 -23.457,-0.45 C -30.291,-6.26 -31.87,-15.96 -27.699,-23.53 L 0,0 z"
               style="fill:none;stroke:#ffffff;stroke-width:4;stroke-linecap:butt;stroke-linejoin:miter;stroke-miterlimit:4;stroke-dasharray:none;stroke-opacity:1"
               id="path661" />
            <g
               id="g663"
               transform="translate(-93.323,53.73)">
              <path
                 d="M 0,0 C 6.785,-5.33 16.616,-5.35 23.45,0.46 C 30.291,6.27 31.864,15.97 27.696,23.53 L 0,0 z"
                 style="fill:none;stroke:#ffffff;stroke-width:4;stroke-linecap:butt;stroke-linejoin:miter;stroke-miterlimit:4;stroke-dasharray:none;stroke-opacity:1"
                 id="path665" />
              <g
                 id="g667"
                 transform="translate(54.907,-87.17)">
                <path
                   d="M 0,0 L -66.428,78.2 L -15.551,121.42 L 50.877,43.21 L 0,0 z"
                   style="fill:none;stroke:#ffffff;stroke-width:4;stroke-linecap:butt;stroke-linejoin:miter;stroke-miterlimit:4;stroke-dasharray:none;stroke-opacity:1"
                   id="path669" />
              </g>
            </g>
          </g>
        </g>
      </g>
      <g
         id="g671"
         transform="translate(870.381,682.703)">
        <path
           d="M 0,0 L -4.089,16.21 L 16.11,21.3 L 20.198,5.09 L 0,0"
           style="fill:#0c5393;fill-opacity:1;fill-rule:nonzero;stroke:none"
           id="path673" />
      </g>
      <g
         id="g675"
         transform="translate(855.215,711.934)">
        <path
           d="M 0,0 L -4.091,16.21 L 33.903,25.8 L 37.993,9.58 L 0,0"
           style="fill:#0c5393;fill-opacity:1;fill-rule:nonzero;stroke:none"
           id="path677" />
      </g>
      <g
         id="g679"
         transform="translate(896.68,662.173)">
        <path
           d="M 0,0 L -4.094,16.21 L 38.223,26.89 L 42.313,10.68 L 0,0"
           style="fill:#0c5393;fill-opacity:1;fill-rule:nonzero;stroke:none"
           id="path681" />
      </g>
      <g
         id="g683"
         transform="translate(1313.85,263.253)">
        <path
           d="M 0,0 C 0,0 56.74,33.5 56.8,36.85 C 56.93,43.81 60.74,49.87 56.07,62.66 C 51.4,75.45 30.43,113.95 30.43,113.95 C 30.43,113.95 -10.58,111.46 -18.29,114.88 C -26.01,118.31 -53.02,183.14 -73.77,190.5 C -94.52,197.86 -129.21,182.96 -129.21,182.96 L -146.55,175.51 L -213.11,186.22 L -278.75,223.11 L -307.86,221.63 L -344.794,239.13 L -360.361,239.02 L -381.869,249.68 L -420.608,237.31 C -420.608,237.31 -528.193,223 -566.826,195.07 C -605.453,167.15 -638.058,90.36 -638.058,90.36 C -638.058,90.36 -633.036,56.67 -648.873,39.37 C -659.082,28.21 -677.647,5.04 -677.647,5.04 L 0,0"
           style="fill:#53bad8;fill-opacity:1;fill-rule:evenodd;stroke:none"
           id="path685" />
      </g>
      <g
         id="g687"
         transform="translate(1209.66,492.974)">
        <path
           d="M 0,0 L 1.81,37.59 L -67.71,45.17 L -66.19,61.9 L -61.54,61.48 L -58.24,97.5 L -101.75,101.49 L -105.04,65.46 L -97.64,64.78 L -102.36,10.67 L 0,0"
           style="fill:#0c5393;fill-opacity:1;fill-rule:evenodd;stroke:none"
           id="path689" />
      </g>
      <text
         y="-450.15329"
         x="835.56097"
         transform="scale(1,-1)"
         id="text691">
        <tspan
           style="font-size:22px;font-variant:normal;font-weight:normal;font-stretch:normal;writing-mode:lr-tb;fill:#080c0c;fill-opacity:1;fill-rule:nonzero;stroke:none;font-family:Helvetica;-inkscape-font-specification:Helvetica"
           x="835.56097 848.89301 864.66699 881.651 899.867 915.64099 932.625 948.39899 964.17297 978.71503"
           y="-450.15329"
           sodipodi:role="line"
           id="tspan693">LAUGARVATN</tspan>
      </text>
    </g>
  </g>
</svg>
