<?xml version="1.0" encoding="UTF-8" standalone="no"?>
<!-- Created with Inkscape (http://www.inkscape.org/) -->
<svg
   xmlns:dc="http://purl.org/dc/elements/1.1/"
   xmlns:cc="http://creativecommons.org/ns#"
   xmlns:rdf="http://www.w3.org/1999/02/22-rdf-syntax-ns#"
   xmlns:svg="http://www.w3.org/2000/svg"
   xmlns="http://www.w3.org/2000/svg"
   xmlns:sodipodi="http://sodipodi.sourceforge.net/DTD/sodipodi-0.dtd"
   xmlns:inkscape="http://www.inkscape.org/namespaces/inkscape"
   width="1703.6575"
   height="651.22498"
   id="svg10249"
   sodipodi:version="0.32"
   inkscape:version="0.46"
   sodipodi:docname="Stakkahlíð, Skipholt.svg"
   inkscape:output_extension="org.inkscape.output.svg.inkscape"
   version="1.0">
  <defs
     id="defs10251">
    <inkscape:perspective
       sodipodi:type="inkscape:persp3d"
       inkscape:vp_x="0 : 526.18109 : 1"
       inkscape:vp_y="0 : 1000 : 0"
       inkscape:vp_z="744.09448 : 526.18109 : 1"
       inkscape:persp3d-origin="372.04724 : 350.78739 : 1"
       id="perspective10257" />
  </defs>
  <sodipodi:namedview
     id="base"
     pagecolor="#ffffff"
     bordercolor="#666666"
     borderopacity="1.0"
     gridtolerance="10000"
     guidetolerance="10"
     objecttolerance="10"
     inkscape:pageopacity="0.0"
     inkscape:pageshadow="2"
     inkscape:zoom="0.35"
     inkscape:cx="375"
     inkscape:cy="520"
     inkscape:document-units="px"
     inkscape:current-layer="layer1"
     showgrid="false"
     inkscape:window-width="1278"
     inkscape:window-height="1022"
     inkscape:window-x="0"
     inkscape:window-y="0" />
  <metadata
     id="metadata10254">
    <rdf:RDF>
      <cc:Work
         rdf:about="">
        <dc:format>image/svg+xml</dc:format>
        <dc:type
           rdf:resource="http://purl.org/dc/dcmitype/StillImage" />
      </cc:Work>
    </rdf:RDF>
  </metadata>
  <g
     inkscape:label="Layer 1"
     inkscape:groupmode="layer"
     id="layer1"
     transform="translate(476.82875,-206.74965)">
    <g
       transform="matrix(1.25,0,0,-1.25,-799.93375,2666.2784)"
       id="g7630">
      <path
         d="M 258.484,1517.913 L 1621.41,1517.913 L 1621.41,1959.233 L 258.484,1959.233 L 258.484,1517.913 z"
         style="fill:#c4cfd0;fill-opacity:1;fill-rule:nonzero;stroke:none"
         id="path695" />
      <g
         id="g697"
         transform="translate(493.239,1839.134)">
        <path
           d="M 0,0 L 465.164,17.22"
           style="fill:none;stroke:#ffffff;stroke-width:15;stroke-linecap:butt;stroke-linejoin:miter;stroke-miterlimit:4;stroke-dasharray:none;stroke-opacity:1"
           id="path699" />
      </g>
      <g
         id="g701"
         transform="translate(959.407,1938.073)">
        <path
           d="M 0,0 L -16.621,-336.61 C -16.621,-336.61 85.593,-334.78 183.333,-327.39 C 225.213,-324.22 225.993,-292.05 225.993,-292.05 L 281.333,12.67"
           style="fill:none;stroke:#ffffff;stroke-width:16;stroke-linecap:butt;stroke-linejoin:miter;stroke-miterlimit:4;stroke-dasharray:none;stroke-opacity:1"
           id="path703" />
      </g>
      <g
         id="g705"
         transform="translate(945.403,1601.354)">
        <path
           d="M 0,0 C 0,0 -268.707,-22.21 -288.707,-12.21 C -332.707,14.79 -326.707,64.79 -326.707,64.79"
           style="fill:none;stroke:#ffffff;stroke-width:15;stroke-linecap:butt;stroke-linejoin:miter;stroke-miterlimit:4;stroke-dasharray:none;stroke-opacity:1"
           id="path707" />
        <g
           id="g709"
           transform="translate(555.787,305.27)">
          <path
             d="M 0,0 L -1051.449,-27"
             style="fill:none;stroke:#ffffff;stroke-width:15;stroke-linecap:butt;stroke-linejoin:miter;stroke-miterlimit:4;stroke-dasharray:none;stroke-opacity:1"
             id="path711" />
        </g>
      </g>
      <g
         id="g713"
         transform="translate(1415.69,1725.134)">
        <path
           d="M 0,0 C 0,0 -30,25.5 -65.99,-31.5 C -108.36,-98.58 -226.7,-67.34 -226.7,-67.34"
           style="fill:none;stroke:#ffffff;stroke-width:14;stroke-linecap:butt;stroke-linejoin:miter;stroke-miterlimit:4;stroke-dasharray:none;stroke-opacity:1"
           id="path715" />
      </g>
      <g
         id="g717"
         transform="translate(1538.06,1603.014)">
        <path
           d="M 0,0 L -1104.817,-66.87"
           style="fill:none;stroke:#ffffff;stroke-width:21;stroke-linecap:butt;stroke-linejoin:miter;stroke-miterlimit:4;stroke-dasharray:none;stroke-opacity:1"
           id="path719" />
      </g>
      <g
         id="g721"
         transform="translate(1168.7,1618.143)">
        <path
           d="M 0,0 L -6.5,-92.5"
           style="fill:none;stroke:#ffffff;stroke-width:15;stroke-linecap:butt;stroke-linejoin:miter;stroke-miterlimit:4;stroke-dasharray:none;stroke-opacity:1"
           id="path723" />
      </g>
      <g
         id="g725"
         transform="translate(1229.05,1672.774)">
        <path
           d="M 0,0 L -20.27,3.06 L -12.79,52.5 L 7.48,49.44 L 0,0"
           style="fill:#0c5393;fill-opacity:1;fill-rule:nonzero;stroke:none"
           id="path727" />
      </g>
      <path
         d="M 1160.4,1786.353 L 1184.9,1786.353 L 1184.9,1824.013 L 1160.4,1824.013 L 1160.4,1786.353 z"
         style="fill:#0c5393;fill-opacity:1;fill-rule:nonzero;stroke:none"
         id="path729" />
      <g
         id="g731"
         transform="translate(1327.4,1754.023)">
        <path
           d="M 0,0 L 1,-62 L -26.04,-68.21 L -26.7,-0.21 L 0,0"
           style="fill:#0c5393;fill-opacity:1;fill-rule:nonzero;stroke:none"
           id="path733" />
      </g>
      <path
         d="M 878.736,1653.694 L 930.069,1653.694 L 930.069,1713.694 L 878.736,1713.694 L 878.736,1653.694 z"
         style="fill:#0c5393;fill-opacity:1;fill-rule:nonzero;stroke:none"
         id="path735" />
      <g
         id="g737"
         transform="translate(786.308,1732.353)">
        <path
           d="M 0,0 L 11.8,0 L 11.8,6.05 L 6.226,6.05 L 6.226,32.49 L 11.8,32.49 L 11.8,38.54 L 6.226,38.54 L 6.226,63.59 L 18.205,63.59 L 18.205,60.24 L 63.435,60.24 L 63.435,73.21 L 18.234,73.21 L 18.234,76.76 L 6.226,76.76 L 6.226,94.8 L -6.743,94.8 L -6.743,69.65 L -32.819,69.65 L -32.819,94.08 L -69.653,94.08 L -69.653,69.41 L -68.287,69.41 L -68.287,63.82 L -69.653,63.82 L -69.653,38.53 L -32.819,38.53 L -32.819,63.6 L -6.743,63.6 L -6.815,0 L -4.84,0 L -4.84,-5.14 L -23.063,-2.88 L -23.059,-6.84 L -29.705,-6.84 L -29.707,-2.14 C -29.707,-2.14 -40.553,0.1 -43.104,0.1 C -45.655,0.1 -49.278,1.79 -51.829,-3.1 C -54.327,-7.88 -59.823,-19.68 -56.596,-24.35 L -67.782,-24.35 L -67.782,-37.32 L -50.899,-37.32 L -50.899,-43.5 L -53.528,-43.5 L -53.528,-56.46 L -52.014,-56.46 L -52.454,-61.84 L -4.836,-65.59 L -4.836,-67.14 L 8.013,-67.14 L 8.013,-43.5 L 6.879,-43.5 L 6.879,-37.32 L 12.183,-37.32 L 12.183,-24.35 L 10.715,-24.35 C 11.011,-22.51 12.496,-13.16 12.302,-11.91 C 12.088,-10.53 12.732,-7.45 9.752,-6.81 C 7.697,-6.37 3.546,-5.67 0.015,-5.47"
           style="fill:#0c5393;fill-opacity:1;fill-rule:nonzero;stroke:none"
           id="path739" />
      </g>
      <text
         style="font-size:11.89425278px"
         y="-1833.6049"
         x="824.36584"
         transform="matrix(1.0083648,3.3143194e-2,3.2570526e-2,-0.9906341,0,0)"
         id="text741">
        <tspan
           style="font-size:18.16059113px;font-variant:normal;font-weight:normal;font-stretch:normal;writing-mode:lr-tb;fill:#080c0c;fill-opacity:1;fill-rule:nonzero;stroke:none;font-family:Helvetica;-inkscape-font-specification:Helvetica"
           x="824.36584 836.84216 848.30145 860.77783 873.25415 885.73047 898.20679 911.68195 922.14246 927.55432"
           y="-1833.6049"
           sodipodi:role="line"
           id="tspan743">STAKKAHLÍÐ</tspan>
      </text>
      <text
         style="font-size:11.89526463px"
         y="826.79077"
         x="1773.9916"
         transform="matrix(7.7354194e-2,1.0059391,0.9882529,-7.5985148e-2,0,0)"
         id="text745">
        <tspan
           style="font-size:16.14262962px;font-variant:normal;font-weight:normal;font-stretch:normal;writing-mode:lr-tb;fill:#080c0c;fill-opacity:1;fill-rule:nonzero;stroke:none;font-family:Helvetica;-inkscape-font-specification:Helvetica"
           x="1773.9916 1785.9694 1797.0593 1807.2454 1818.3353 1823.1459 1836.0277 1847.1177 1858.2076 1869.2976 1882.1794 1894.1572"
           y="826.79077"
           sodipodi:role="line"
           id="tspan747">HÁTEIGSVEGUR</tspan>
      </text>
      <text
         style="font-size:11.89506531px"
         y="-1538.3756"
         x="808.88483"
         transform="matrix(1.0063237,7.2206376e-2,7.0948836e-2,-0.9886253,0,0)"
         id="text749">
        <tspan
           style="font-size:16.14261818px;font-variant:normal;font-weight:normal;font-stretch:normal;writing-mode:lr-tb;fill:#080c0c;fill-opacity:1;fill-rule:nonzero;stroke:none;font-family:Helvetica;-inkscape-font-specification:Helvetica"
           x="808.88483 819.97479 832.85657 842.15472 853.24469 863.43073 874.52069 886.49854 897.5885 909.56628 921.54413 930.84229 935.65277"
           y="-1538.3756"
           sodipodi:role="line"
           id="tspan751">BÓLSTAÐARHLÍÐ</tspan>
      </text>
      <text
         style="font-size:11.89410114px"
         y="-1589.0643"
         x="1025.3665"
         transform="matrix(1.0086463,2.3174668e-2,2.2778203e-2,-0.9909044,0,0)"
         id="text753">
        <tspan
           style="font-size:16.14262581px;font-variant:normal;font-weight:normal;font-stretch:normal;writing-mode:lr-tb;fill:#080c0c;fill-opacity:1;fill-rule:nonzero;stroke:none;font-family:Helvetica;-inkscape-font-specification:Helvetica"
           x="1025.3665 1036.4564 1047.5465 1052.3569 1063.4469 1075.4248 1088.3066 1097.6047"
           y="-1589.0643"
           sodipodi:role="line"
           id="tspan755">SKIPHOLT</tspan>
        <tspan
           style="font-size:16.14262581px;font-variant:normal;font-weight:normal;font-stretch:normal;writing-mode:lr-tb;fill:#080c0c;fill-opacity:1;fill-rule:nonzero;stroke:none;font-family:Helvetica;-inkscape-font-specification:Helvetica"
           x="1245.9264 1257.0164 1269.8982 1279.1964 1291.1742 1304.056 1313.3541"
           y="-1631.337"
           sodipodi:role="line"
           id="tspan757">BOLHOLT</tspan>
      </text>
      <text
         style="font-size:11.89991474px"
         y="905.84235"
         x="1929.9857"
         transform="matrix(0.1707772,0.9943555,0.9768615,-0.1677761,0,0)"
         id="text759">
        <tspan
           style="font-size:18.16050529px;font-variant:normal;font-weight:normal;font-stretch:normal;writing-mode:lr-tb;fill:#080c0c;fill-opacity:1;fill-rule:nonzero;stroke:none;font-family:Helvetica;-inkscape-font-specification:Helvetica"
           x="1929.9857 1942.462 1954.9382 1960.3501 1972.8264 1986.3015 2000.7936 2011.254"
           y="905.84235"
           sodipodi:role="line"
           id="tspan761">SKIPHOLT</tspan>
      </text>
      <text
         style="font-size:11.89463234px"
         y="-1519.5056"
         x="963.99969"
         transform="matrix(1.0073866,5.5440883e-2,5.4474497e-2,-0.9896696,0,0)"
         id="text763">
        <tspan
           style="font-size:20.17825127px;font-variant:normal;font-weight:normal;font-stretch:normal;writing-mode:lr-tb;fill:#080c0c;fill-opacity:1;fill-rule:nonzero;stroke:none;font-family:Helvetica;-inkscape-font-specification:Helvetica"
           x="963.99969 977.86212 992.83441 998.84753 1013.8198 1029.922 1041.5447 1056.517"
           y="-1519.5056"
           sodipodi:role="line"
           id="tspan765">KRINGLUM</tspan>
        <tspan
           style="font-size:20.17825127px;font-variant:normal;font-weight:normal;font-stretch:normal;writing-mode:lr-tb;fill:#080c0c;fill-opacity:1;fill-rule:nonzero;stroke:none;font-family:Helvetica;-inkscape-font-specification:Helvetica"
           x="1073.733 1087.5955 1102.5677 1116.4302 1131.4025 1145.2649 1160.2372 1174.0996 1189.0719"
           y="-1519.5016"
           sodipodi:role="line"
           id="tspan767">ÝRARBRAUT</tspan>
      </text>
      <text
         style="font-size:11.89425945px"
         y="-1706.924"
         x="1266.9335"
         transform="matrix(1.0083019,3.5051156e-2,3.4442942e-2,-0.9905691,0,0)"
         id="text769">
        <tspan
           style="font-size:22.19612885px;font-variant:normal;font-weight:normal;font-stretch:normal;writing-mode:lr-tb;fill:#004982;fill-opacity:1;fill-rule:nonzero;stroke:none;font-family:Helvetica;-inkscape-font-specification:Helvetica"
           x="1266.9335 1281.9824 1293.3247 1298.4963 1311.0815 1323.6667 1336.252 1341.4237"
           y="-1706.924"
           sodipodi:role="line"
           id="tspan771">Skipholt</tspan>
        <tspan
           style="font-size:22.19612885px;font-variant:normal;font-weight:normal;font-stretch:normal;writing-mode:lr-tb;fill:#004982;fill-opacity:1;fill-rule:nonzero;stroke:none;font-family:Helvetica;-inkscape-font-specification:Helvetica"
           x="1266.9268 1292.5856 1305.1708"
           y="-1680.2931"
           sodipodi:role="line"
           id="tspan773">37</tspan>
        <tspan
           style="font-size:22.19612885px;font-variant:normal;font-weight:normal;font-stretch:normal;writing-mode:lr-tb;fill:#004982;fill-opacity:1;fill-rule:nonzero;stroke:none;font-family:Helvetica;-inkscape-font-specification:Helvetica"
           x="1170.7821 1185.8311 1197.1732 1202.345 1214.9302 1227.5154 1240.1006 1245.2722"
           y="-1801.859"
           sodipodi:role="line"
           id="tspan775">Skipholt</tspan>
        <tspan
           style="font-size:22.19612885px;font-variant:normal;font-weight:normal;font-stretch:normal;writing-mode:lr-tb;fill:#004982;fill-opacity:1;fill-rule:nonzero;stroke:none;font-family:Helvetica;-inkscape-font-specification:Helvetica"
           x="1170.7843 1183.3695"
           y="-1775.217"
           sodipodi:role="line"
           id="tspan777">50</tspan>
        <tspan
           style="font-size:22.19612885px;font-variant:normal;font-weight:normal;font-stretch:normal;writing-mode:lr-tb;fill:#004982;fill-opacity:1;fill-rule:nonzero;stroke:none;font-family:Helvetica;-inkscape-font-specification:Helvetica"
           x="1368.6805 1383.7295 1396.3147 1401.4865 1414.0717 1426.6569 1431.8285"
           y="-1728.1678"
           sodipodi:role="line"
           id="tspan779">Bolholt</tspan>
        <tspan
           style="font-size:22.19612885px;font-variant:normal;font-weight:normal;font-stretch:normal;writing-mode:lr-tb;fill:#004982;fill-opacity:1;fill-rule:nonzero;stroke:none;font-family:Helvetica;-inkscape-font-specification:Helvetica"
           x="1368.6827 1381.5121 1394.0973 1401.7328"
           y="-1701.537"
           sodipodi:role="line"
           id="tspan781">6-8</tspan>
      </text>
      <text
         y="-1671.0037"
         x="667.08002"
         transform="scale(1,-1)"
         id="text783">
        <tspan
           style="font-size:22px;font-variant:normal;font-weight:normal;font-stretch:normal;writing-mode:lr-tb;fill:#004982;fill-opacity:1;fill-rule:nonzero;stroke:none;font-family:Helvetica;-inkscape-font-specification:Helvetica"
           x="667.08002 682.96399 695.19598 713.52197 725.75403"
           y="-1671.0037"
           sodipodi:role="line"
           id="tspan785">Hamar</tspan>
        <tspan
           style="font-size:22px;font-variant:normal;font-weight:normal;font-stretch:normal;writing-mode:lr-tb;fill:#004982;fill-opacity:1;fill-rule:nonzero;stroke:none;font-family:Helvetica;-inkscape-font-specification:Helvetica"
           x="658.58142 673.25537 678.1394 690.3714 696.48743 702.60339 714.83539"
           y="-1752.5049"
           sodipodi:role="line"
           id="tspan787">Klettur</tspan>
        <tspan
           style="font-size:22px;font-variant:normal;font-weight:normal;font-stretch:normal;writing-mode:lr-tb;fill:#004982;fill-opacity:1;fill-rule:nonzero;stroke:none;font-family:Helvetica;-inkscape-font-specification:Helvetica"
           x="825.08179 831.19781 843.42981 850.7558 862.98779 869.10382 875.21979 887.45178 899.68378 911.91577"
           y="-1632.8447"
           sodipodi:role="line"
           id="tspan789">Íþróttahús</tspan>
        <tspan
           style="font-size:22px;font-variant:normal;font-weight:normal;font-stretch:normal;writing-mode:lr-tb;fill:#004982;fill-opacity:1;fill-rule:nonzero;stroke:none;font-family:Helvetica;-inkscape-font-specification:Helvetica"
           x="824.08081 838.75482 850.98682 863.21881"
           y="-1767.0051"
           sodipodi:role="line"
           id="tspan791">Enni</tspan>
      </text>
      <text
         style="font-size:11.89410591px"
         y="-1885.9124"
         x="1090.8767"
         transform="matrix(1.00873,1.9009412e-2,1.8685981e-2,-0.9909934,0,0)"
         id="text793">
        <tspan
           style="font-size:19.16945076px;font-variant:normal;font-weight:normal;font-stretch:normal;writing-mode:lr-tb;fill:#080c0c;fill-opacity:1;fill-rule:nonzero;stroke:none;font-family:Helvetica;-inkscape-font-specification:Helvetica"
           x="1090.8767 1101.9183 1115.0878 1129.3115 1144.6088 1157.7781 1172.0018"
           y="-1885.9124"
           sodipodi:role="line"
           id="tspan795">LANGAHL</tspan>
        <tspan
           style="font-size:19.16945076px;font-variant:normal;font-weight:normal;font-stretch:normal;writing-mode:lr-tb;fill:#080c0c;fill-opacity:1;fill-rule:nonzero;stroke:none;font-family:Helvetica;-inkscape-font-specification:Helvetica"
           x="1183.0511 1188.7637"
           y="-1885.9104"
           sodipodi:role="line"
           id="tspan797">ÍÐ</tspan>
      </text>
      <g
         id="g799"
         transform="translate(1480.99,1946.343)">
        <path
           d="M 0,0 L -124.59,-421.42"
           style="fill:none;stroke:#ffffff;stroke-width:18;stroke-linecap:butt;stroke-linejoin:miter;stroke-miterlimit:4;stroke-dasharray:none;stroke-opacity:1"
           id="path801" />
      </g>
      <g
         id="g803"
         transform="translate(1301.7,1704.644)">
        <path
           d="M 0,0 L -69,-11.5"
           style="fill:none;stroke:#0e1111;stroke-width:1;stroke-linecap:butt;stroke-linejoin:miter;stroke-miterlimit:4;stroke-dasharray:none;stroke-opacity:1"
           id="path805" />
        <g
           id="g807"
           transform="translate(-72.65,-31.87)">
          <path
             d="M 0,0 L 72.31,13.04"
             style="fill:none;stroke:#0e1111;stroke-width:1;stroke-linecap:butt;stroke-linejoin:miter;stroke-miterlimit:4;stroke-dasharray:none;stroke-opacity:1"
             id="path809" />
        </g>
      </g>
      <g
         id="g811"
         transform="translate(496.239,1957.623)">
        <path
           d="M 0,0 L -31.498,-500.98"
           style="fill:none;stroke:#ffffff;stroke-width:20;stroke-linecap:butt;stroke-linejoin:miter;stroke-miterlimit:4;stroke-dasharray:none;stroke-opacity:1"
           id="path813" />
      </g>
      <text
         style="font-size:11.89474964px"
         y="388.8559"
         x="1652.6525"
         transform="matrix(6.0099112e-2,1.0071198,0.9894077,-5.9033613e-2,0,0)"
         id="text815">
        <tspan
           style="font-size:20.17833519px;font-variant:normal;font-weight:normal;font-stretch:normal;writing-mode:lr-tb;fill:#080c0c;fill-opacity:1;fill-rule:nonzero;stroke:none;font-family:Helvetica;-inkscape-font-specification:Helvetica"
           x="1652.6525 1669.8646 1675.8778 1689.7404 1701.363 1715.2256 1729.088 1744.0604 1757.9229 1772.8953"
           y="388.8559"
           sodipodi:role="line"
           id="tspan817">MIKLABRAUT</tspan>
      </text>
      <g
         id="g819"
         transform="translate(565.235,1939.623)">
        <path
           d="M 0,0 L -16.499,-277.49"
           style="fill:none;stroke:#ffffff;stroke-width:15;stroke-linecap:butt;stroke-linejoin:miter;stroke-miterlimit:4;stroke-dasharray:none;stroke-opacity:1"
           id="path821" />
        <g
           id="g823"
           transform="translate(71.004,18)">
          <path
             d="M 0,0 L -14.543,-242.48"
             style="fill:none;stroke:#ffffff;stroke-width:15;stroke-linecap:butt;stroke-linejoin:miter;stroke-miterlimit:4;stroke-dasharray:none;stroke-opacity:1"
             id="path825" />
        </g>
      </g>
      <text
         style="font-size:11.8946867px"
         y="462.51044"
         x="1711.5869"
         transform="matrix(5.8206066e-2,1.0072326,0.9895155,-5.717154e-2,0,0)"
         id="text827">
        <tspan
           style="font-size:16.1426487px;font-variant:normal;font-weight:normal;font-stretch:normal;writing-mode:lr-tb;fill:#080c0c;fill-opacity:1;fill-rule:nonzero;stroke:none;font-family:Helvetica;-inkscape-font-specification:Helvetica"
           x="1711.5869 1722.6769 1733.767 1744.8569 1755.043 1765.2289 1776.319 1788.2968 1797.595 1802.4055"
           y="462.51044"
           sodipodi:role="line"
           id="tspan829">SKAFTAHLÍÐ</tspan>
        <tspan
           style="font-size:16.1426487px;font-variant:normal;font-weight:normal;font-stretch:normal;writing-mode:lr-tb;fill:#080c0c;fill-opacity:1;fill-rule:nonzero;stroke:none;font-family:Helvetica;-inkscape-font-specification:Helvetica"
           x="1738.8712 1749.9612 1762.843 1772.1412 1783.2312 1793.4172 1804.5072 1816.4851 1827.5751 1839.553 1851.5308 1860.829 1865.6394"
           y="532.14984"
           sodipodi:role="line"
           id="tspan831">BÓLSTAÐARHLÍÐ</tspan>
      </text>
      <text
         style="font-size:11.91262817px"
         y="848.98969"
         x="2016.5227"
         transform="matrix(0.3016865,0.9627503,0.9458211,-0.2963689,0,0)"
         id="text833">
        <tspan
           style="font-size:20.1782341px;font-variant:normal;font-weight:normal;font-stretch:normal;writing-mode:lr-tb;fill:#080c0c;fill-opacity:1;fill-rule:nonzero;stroke:none;font-family:Helvetica;-inkscape-font-specification:Helvetica"
           x="2016.5227 2028.1454 2042.0078 2056.98 2073.0823"
           y="848.98969"
           sodipodi:role="line"
           id="tspan835">LAUGA</tspan>
        <tspan
           style="font-size:20.1782341px;font-variant:normal;font-weight:normal;font-stretch:normal;writing-mode:lr-tb;fill:#080c0c;fill-opacity:1;fill-rule:nonzero;stroke:none;font-family:Helvetica;-inkscape-font-specification:Helvetica"
           x="2086.9468 2100.8093 2114.6716 2130.7739 2145.7461"
           y="848.99371"
           sodipodi:role="line"
           id="tspan837">VEGUR</tspan>
      </text>
    </g>
  </g>
</svg>
