<?xml version="1.0" encoding="UTF-8" standalone="no"?>
<!-- Created with Inkscape (http://www.inkscape.org/) -->
<svg
   xmlns:dc="http://purl.org/dc/elements/1.1/"
   xmlns:cc="http://creativecommons.org/ns#"
   xmlns:rdf="http://www.w3.org/1999/02/22-rdf-syntax-ns#"
   xmlns:svg="http://www.w3.org/2000/svg"
   xmlns="http://www.w3.org/2000/svg"
   xmlns:sodipodi="http://sodipodi.sourceforge.net/DTD/sodipodi-0.dtd"
   xmlns:inkscape="http://www.inkscape.org/namespaces/inkscape"
   width="744.09448819"
   height="1052.3622047"
   id="svg8220"
   sodipodi:version="0.32"
   inkscape:version="0.46"
   sodipodi:docname="Vatnsmýri.svg"
   inkscape:output_extension="org.inkscape.output.svg.inkscape">
  <defs
     id="defs8222">
    <inkscape:perspective
       sodipodi:type="inkscape:persp3d"
       inkscape:vp_x="0 : 526.18109 : 1"
       inkscape:vp_y="0 : 1000 : 0"
       inkscape:vp_z="744.09448 : 526.18109 : 1"
       inkscape:persp3d-origin="372.04724 : 350.78739 : 1"
       id="perspective8228" />
  </defs>
  <sodipodi:namedview
     id="base"
     pagecolor="#ffffff"
     bordercolor="#666666"
     borderopacity="1.0"
     gridtolerance="10000"
     guidetolerance="10"
     objecttolerance="10"
     inkscape:pageopacity="0.0"
     inkscape:pageshadow="2"
     inkscape:zoom="0.35"
     inkscape:cx="375"
     inkscape:cy="520"
     inkscape:document-units="px"
     inkscape:current-layer="layer1"
     showgrid="false"
     inkscape:window-width="1278"
     inkscape:window-height="1022"
     inkscape:window-x="0"
     inkscape:window-y="0" />
  <metadata
     id="metadata8225">
    <rdf:RDF>
      <cc:Work
         rdf:about="">
        <dc:format>image/svg+xml</dc:format>
        <dc:type
           rdf:resource="http://purl.org/dc/dcmitype/StillImage" />
      </cc:Work>
    </rdf:RDF>
  </metadata>
  <g
     inkscape:label="Layer 1"
     inkscape:groupmode="layer"
     id="layer1">
    <g
       transform="matrix(1.25,0,0,-1.25,-673.74,4671.2034)"
       id="g7407">
      <path
         d="M 258.484,3115.664 L 1419.5,3115.664 L 1419.5,3503.424 L 258.484,3503.424 L 258.484,3115.664 z"
         style="fill:#c4cfd0;fill-opacity:1;fill-rule:nonzero;stroke:none"
         id="path45" />
      <g
         id="g47"
         transform="translate(800.504,3407.114)">
        <path
           d="M 0,0 L 0.51,18.89 L -21.6,19.47 L -21.83,10.2 L -7.34,9.86 L -7.85,-9.28 L -0.231,-9.47 L -0.061,-2.03 L 1.33,-2.08 L 1.279,-3.21 L 3.121,-3.27 L 3.23,0.67 L 1.221,0.72 L 1.189,-0.03 L 0,0"
           style="fill:#0c5393;fill-opacity:1;fill-rule:evenodd;stroke:none"
           id="path49" />
      </g>
      <g
         id="g51"
         transform="translate(777.562,3384.104)">
        <path
           d="M 0,0 L 4.679,-0.03 L 4.679,1.13 L 10.288,1.1 L 10.347,12.27 L -18.081,12.39 L -18.081,13.95 L -20.301,13.95 L -20.301,12.41 L -25.821,12.41 L -25.881,1.27 L 0.029,1.16 L 0,0"
           style="fill:#0c5393;fill-opacity:1;fill-rule:evenodd;stroke:none"
           id="path53" />
      </g>
      <g
         id="g55"
         transform="translate(916.691,3358.864)">
        <path
           d="M 0,0 L 0.311,11.1 L -10.236,11.38 L -10.126,15.69 L -15.814,15.87 L -15.912,11.52 L -34.348,12.02 L -34.498,8.44 L -37.922,8.5 L -38.034,4.58 L -34.597,4.51 L -34.67,0.9 L -15.629,0.42 L -10.867,0.27 L 0,0"
           style="fill:#0c5393;fill-opacity:1;fill-rule:evenodd;stroke:none"
           id="path57" />
      </g>
      <g
         id="g59"
         transform="translate(759.121,3363.094)">
        <path
           d="M 0,0 L 4.604,7.15 L 11.564,-1.19 L 15.965,-4.18 L 10.723,-17.32 L 11.126,-26.59 L 4.129,-24.81 L 3.596,-23.64 L 1.437,-24.41 L 6.952,-40.42 L 1.068,-42.44 L -0.105,-39 L -3.865,-40.28 L -18.225,1.3 L -14.489,2.62 L -16.542,8.5 L -16.412,8.57 L -6.628,8.59 L -3.003,-0.59 L 0,0"
           style="fill:#0c5393;fill-opacity:1;fill-rule:evenodd;stroke:none"
           id="path61" />
      </g>
      <g
         id="g63"
         transform="translate(847.982,3327.633)">
        <path
           d="M 0,0 L -0.322,-11.76 L 39.224,-12.88 L 39.602,-1.15 L 36.208,-1.02 L 36.251,0.58 L 32.538,0.71 L 32.493,-0.95 L 0,0"
           style="fill:#0c5393;fill-opacity:1;fill-rule:evenodd;stroke:none"
           id="path65" />
      </g>
      <g
         id="g67"
         transform="translate(611.588,3378.523)">
        <path
           d="M 0,0 L -0.281,0 L -0.141,7.17 L -6.75,7.26 L -6.861,0.11 L -7.99,0.14 L -8.051,-3.17 L -5.701,-3.23 L -0.061,-3.34 L 0,0"
           style="fill:#0c5393;fill-opacity:1;fill-rule:evenodd;stroke:none"
           id="path69" />
      </g>
      <g
         id="g71"
         transform="translate(568.127,3417.744)">
        <path
           d="M 0,0 L -0.029,-3 L -1.17,-2.97 L -1.221,-6.01 L -1.25,-7.62 L -0.971,-7.62 L -1.02,-11.02 L -4.141,-10.97 L -10.289,-10.85 L -10.24,-7.45 L -8.25,-7.48 L -8.199,-3.74 L -8.141,0.15 L 0,0"
           style="fill:#0c5393;fill-opacity:1;fill-rule:evenodd;stroke:none"
           id="path73" />
      </g>
      <g
         id="g75"
         transform="translate(1194.82,3237.944)">
        <path
           d="M 0,0 L -0.89,10.8 L -2.41,10.66 L -3.11,10.97 L -3.44,11.59 L -5.03,12.27 L -6.18,12.98 L -7,14.37 L -7.37,15.13 L -7.28,15.98 L -6.39,17.12 L -4.69,18.82 L -3.13,19.53 L -2.12,19.73 L -1.38,19.87 L 2.47,20.38 L 4.82,20.15 L 5.5,19.84 L 6.58,18.68 L 7.26,17.18 L 7.21,15.64 L 6.92,14.85 L 6.41,14.34 L 5.94,14.88 L 5.16,14.74 L 4.99,13.97 L 3.72,13.18 L 3.23,11.7 L 1.97,11.19 L 1.69,11.11 L 0.17,10.88 L -0.89,10.8 L 0,0 L 0.95,0.2 L 5.06,1.36 L 6.45,1.81 L 8.59,2.49 L 10.01,3.2 L 11.77,4.99 L 12.97,6.09 L 14.04,8.16 L 15.51,11.82 L 16.33,13.94 L 16.42,14.68 L 16.06,16.24 L 16.47,17.71 L 17.15,18.31 L 20.11,20.95 L 22.96,23.87 L 24.11,25 L 25.13,27.38 L 25.81,28.88 L 25.49,30.36 L 24.81,31.66 L 24.07,31.89 L 23.33,31.89 L 22.74,32.37 L 21.36,32.79 L 19.94,33.22 L 16.27,32.77 L 14.87,32.54 L 14.01,32.68 L 12.02,33.84 L 10.66,34.58 L 9.84,34.75 L 8.39,34.55 L 6.28,33.53 L 5.08,32.62 L 4.61,31.94 L 3.89,31.55 L 1.76,30.61 L -0.02,29.79 L -2.31,30.38 L -3.68,30.81 L -7.25,30.53 L -7.7,30.47 L -9.2,30.33 L -9.86,30.04 L -11.25,29.36 L -11.72,28.83 L -12.36,28.46 L -13.14,28.4 L -14.48,27.52 L -18.08,26.16 L -19.61,25.62 L -20.35,25.62 L -21.03,25.23 L -23.54,23.1 L -25.95,21.31 L -27.24,20.49 L -28.03,20.32 L -29.64,19.64 L -31.39,18.22 L -32.48,17.03 L -32.51,16.3 L -32.34,15.62 L -31.83,15.02 L -30.29,15.02 L -27.96,14.85 L -26.59,14.51 L -25.76,14.57 L -24.26,14.79 L -22.64,14.6 L -19.12,13.12 L -17.74,12.58 L -16.86,11.28 L -16.49,9.83 L -16.06,9.38 L -16.03,9.35 L -14.44,7.74 L -13.09,5.87 L -11.53,4.14 L -10.39,3.14 L -10.05,2.46 L -9.35,1.19 L -8.21,0.22 L -6.87,-0.34 L -4.59,-0.6 L -2.14,-0.46 L 0,0"
           style="fill:#53bad8;fill-opacity:1;fill-rule:evenodd;stroke:none"
           id="path77" />
      </g>
      <g
         id="g79"
         transform="translate(1035.96,3267.693)">
        <path
           d="M 0,0 L -0.67,-0.76 L -3.38,-4.39 L -4.25,-5.68 L -5.61,-7.66 L -6.32,-9.26 L -6.53,-12.23 L -6.76,-14.12 L -6.18,-17 L -4.78,-21.86 L -3.95,-24.65 L -3.49,-25.51 L -2.03,-27.01 L -1.32,-28.86 L -1.47,-29.91 L -2.1,-34.49 L -2.43,-39.33 L -2.6,-41.23 L -1.74,-44.42 L -1.24,-46.45 L 0.11,-47.89 L 1.65,-48.93 L 2.45,-48.75 L 3.09,-48.33 L 3.95,-48.51 L 5.46,-48.17 L 7,-47.83 L 9.83,-45.23 L 10.88,-44.16 L 11.72,-43.83 L 14.28,-43.95 L 16,-43.98 L 16.83,-43.69 L 17.94,-42.64 L 25.64,-31.6 L 28.52,-29.24 L 28.87,-28.91 L 30.07,-27.89 L 30.42,-27.2 L 31.12,-25.66 L 31.15,-24.8 L 31.42,-24.03 L 32.06,-23.51 L 32.57,-21.78 L 34.69,-18.22 L 35.62,-16.75 L 36.25,-16.33 L 36.56,-15.51 L 37.18,-11.73 L 37.96,-8.38 L 35.8,-2.58 L 31.73,-2.22 L 30.2,-2.94 L 26.08,-3.35 L 24.49,-3.56 L 22.78,-2.64 L 21.41,-1.27 L 20.72,-1.02 L 20.67,-1 L 18.12,-0.15 L 15.58,1.11 L 12.97,2.11 L 11.27,2.55 L 10.48,3.1 L 8.94,4.08 L 7.26,4.49 L 5.69,4.33 L 3.52,3.3 L 1.51,1.74 L 0,0"
           style="fill:#53bad8;fill-opacity:1;fill-rule:evenodd;stroke:none"
           id="path81" />
      </g>
      <g
         id="g83"
         transform="translate(1357.38,3297.443)">
        <path
           d="M 0,0 L -2.79,8.93 L -3.58,8.87 L -4.37,9.15 L -4.92,9.58 L -5.36,10.06 L -5.74,10.94 L -14.69,38.75 L -20.5,56.77 L -21.67,57.82 L -22.43,59.35 L -22.45,60.88 L -22.85,61.51 L -24.22,62.19 L -25.92,62.64 L -27.4,62.44 L -28.81,61.88 L -31.1,60.71 L -33.62,59.24 L -37.25,57.28 L -40.45,55.61 L -44.34,53.51 L -47.75,51.64 L -51.37,49.63 L -54.04,47.99 L -57.39,46 L -60.1,44.61 L -63.84,42.6 L -67.59,40.56 L -71.59,38.41 L -74.5,36.62 L -78.31,34.49 L -81.5,32.74 L -84.66,30.98 L -87.93,29.11 L -91.7,26.98 L -94.85,25.23 L -98.66,23.04 L -101.83,21.4 L -105.2,19.56 L -108.72,17.49 L -112.18,15.36 L -115.86,13.32 L -118.84,11.87 L -122.3,9.92 L -122.18,8.47 L -121.67,7 L -121.75,6.26 L -122.77,5.16 L -124.7,3.4 L -126.68,1.95 L -128.17,0.31 L -128.99,-1.08 L -130.51,-2.92 L -132.31,-5.5 L -132.52,-6.18 L -133.47,-7.6 L -134.93,-9.3 L -136.22,-10.12 L -136.73,-10.77 L -137.26,-12.22 L -137.12,-13.72 L -136.6,-17.75 L -135.99,-21.01 L -135.14,-24.04 L -134.57,-26.54 L -134.06,-28.75 L -133.67,-30.36 L -132.65,-33.59 L -131.59,-37.31 L -130.45,-41.02 L -129.3,-44.56 L -128.02,-46.41 L -126.55,-48.19 L -125.01,-49.92 L -124.34,-49.61 L -123.32,-48.45 L -122.84,-47.91 L -122.18,-47.65 L -120.66,-47.46 L -116.83,-47.43 L -114.56,-47.94 L -111.47,-48.96 L -108.1,-50.06 L -105.8,-51.11 L -102.53,-52.64 L -101.85,-53.01 L -100.73,-54 L -100.26,-54.66 L -100.33,-56.1 L -99.74,-56.61 L -98.17,-56.61 L -95.82,-56.38 L -94.28,-56.21 L -93.52,-56.36 L -91.94,-56.21 L -88.1,-56.04 L -84.7,-56.07 L -81.7,-55.93 L -78.56,-55.56 L -74.44,-55.25 L -70.48,-54.91 L -67.25,-54.88 L -64.26,-54.49 L -60.08,-53.66 L -55.87,-52.95 L -53.61,-52.16 L -51,-51.48 L -47.09,-50.37 L -43.84,-49.24 L -40.62,-47.97 L -37.51,-46.95 L -29.85,-44.25 L -25.92,-42.89 L -22.43,-41.45 L -18.44,-40.03 L -14.56,-38.7 L -10.67,-37.39 L -8.29,-36.29 L -5.87,-34.81 L -0.44,-31.75 L -0.94,-30.82 L -1.18,-29.57 L -1.06,-28.24 L -0.72,-26.93 L -0.07,-25.91 L 0.61,-25.03 L 1.39,-24.35 L 2.15,-23.98 L 2.76,-23.7 L 1.86,-20.72 L 1.24,-18.32 L 0.88,-16.7 L 0.33,-14.2 L -0.24,-11.63 L -0.6,-9.81 L -0.85,-7.54 L -1.18,-5.45 L -1.36,-3.6 L -1.54,-2.16 L -1.34,-1.25 L -0.89,-0.57 L -0.44,-0.2 L 0,0"
           style="fill:#53bad8;fill-opacity:1;fill-rule:evenodd;stroke:none"
           id="path85" />
      </g>
      <g
         id="g87"
         transform="translate(1175.68,3358.563)">
        <path
           d="M 0,0 L -0.03,-2.98 L -0.48,-2.98 L -0.63,-11.6 L -23.02,-11.29 L -23.08,-14.32 L -24.49,-14.32 L -24.49,-16.08 L -22.91,-16.1 L -22.96,-19.17 L 1.95,-19.56 L 1.92,-19.36 L 1.98,-17.52 L 1.98,-16.42 L 4.53,-16.47 L 4.56,-14.01 L 4.73,-14.01 L 4.9,-3.26 L 3.99,-3.26 L 4.05,0.08"
           style="fill:none;stroke:#080c0c;stroke-width:1;stroke-linecap:butt;stroke-linejoin:miter;stroke-miterlimit:3;stroke-dasharray:none;stroke-opacity:1"
           id="path89" />
      </g>
      <g
         id="g91"
         transform="translate(1107.2,3369.753)">
        <path
           d="M 0,0 L -0.08,-8.43 L 21.77,-8.63 L 21.83,-0.21 L 0,0"
           style="fill:#0c5393;fill-opacity:1;fill-rule:nonzero;stroke:none"
           id="path93" />
      </g>
      <g
         id="g95"
         transform="translate(743.924,3249.444)">
        <path
           d="M 0,0 L -2.951,-11.26 L -7.74,-10.01 L -9.92,-9.42 L -12.871,-8.65 L -12.471,-6.16 L -12.44,-6.04 L -12.051,-3.77 L -11.371,0.05 L -14.17,0.79 L -14.291,0.82 L -17.86,1.75 L -16.67,8.67 L -14.881,8.22 L -14.651,8.16 L -13.721,7.88 L -9.721,23.07 L -4.02,21.6 L 7.709,18.51 L 6.721,14.82 L 6.039,14.99 L 5.588,13.26 L 7.088,12.87 L 6.89,12.18 L 6.859,11.99 L 4.279,2.12 L 1.959,2.72 L 1.16,-0.32 L 0,0 z"
           style="fill:none;stroke:#080c0c;stroke-width:1;stroke-linecap:butt;stroke-linejoin:miter;stroke-miterlimit:3;stroke-dasharray:none;stroke-opacity:1"
           id="path97" />
        <g
           id="g99"
           transform="translate(435.806,109.2)">
          <path
             d="M 0,0 L 4.65,-0.08 L 5.05,26.96 L -10.77,27.21 L -11.2,0.03 L -4.05,-0.08"
             style="fill:none;stroke:#080c0c;stroke-width:1;stroke-linecap:butt;stroke-linejoin:miter;stroke-miterlimit:3;stroke-dasharray:none;stroke-opacity:1"
             id="path101" />
        </g>
      </g>
      <g
         id="g103"
         transform="translate(1071.38,3394.694)">
        <path
           d="M 0,0 L 0.2,13.45 L -2.58,13.45 L -2.54,16.56 L -14.52,16.74 L -14.55,13.71 L -28.19,13.9 L -27.94,33.89 L -39.39,34.04 L -39.69,14.2 L -53.51,14.38 L -53.47,17.48 L -65.52,17.7 L -65.56,14.56 L -68.26,14.6 L -68.44,1.47 L -40.47,1.03 L -40.54,-0.85 L -37.17,-0.89 L -37.17,-0.33 L -31.41,-0.41 L -31.41,-0.93 L -28.05,-0.97 L -28.01,0.4 L 0,0"
           style="fill:#0c5393;fill-opacity:1;fill-rule:nonzero;stroke:none"
           id="path105" />
      </g>
      <g
         id="g107"
         transform="translate(708.431,3208.624)">
        <path
           d="M 0,0 L -0.511,0.77 L -1.02,1.45 L -1.469,2.16 L -1.92,2.9 L -2.379,3.6 L -2.77,4.34 L -3.2,5.08 L -3.6,5.84 L -3.991,6.58 L -4.361,7.32 L -4.732,8.08 L -5.071,8.85 L -5.379,9.64 L -5.719,10.41 L -6.03,11.2 L -6.321,11.99 L -6.6,12.82 L -6.879,13.61 L -7.111,14.43 L -7.369,15.23 L -7.59,16.05 L -8.95,15.93 L -8.469,20.95 L -12.861,21.35 L -12.379,26.37 L -22.7,24.98 L -23.661,14.52 L -21.281,14.83 L -20.35,7.8 L -24.35,7.29 L -25.821,-8.27 L -23.44,-7.96 L -22.5,-14.96 L -26.5,-15.5 L -27.969,-31.04 L -25.562,-30.72 L -24.63,-37.75 L -28.63,-38.29 L -29.619,-48.75 L -8.1,-45.89 L -6.151,-50.71 L 3.768,-44.87 L 2.33,-42.37 L 1.54,-40.9 L 0.768,-39.4 L 0.031,-37.9 L -0.7,-36.36 L -1.379,-34.83 L -1.27,-34.81 L -1.21,-34.78 L -1.161,-34.72 L -1.071,-34.72 L -1.02,-34.66 L -0.96,-34.66 L -0.901,-34.64 L -0.821,-34.61 L -0.761,-34.58 L -0.7,-34.58 L -0.619,-34.55 L -0.562,-34.55 L -0.481,-34.52 L -0.361,-34.52 L -0.281,-34.49 L -0.219,-34.49 L -0.138,-34.47 L -0.081,-34.47 L 0,-34.44 L 0.06,-34.47 L 0.121,-34.47 L 0.201,-34.44 L 0.4,-34.44 L 0.489,-34.47 L 0.54,-34.44 L 0.599,-34.47 L 0.83,-34.47 L 0.881,-34.49 L 0.97,-34.49 L 1.019,-34.52 L 1.08,-34.52 L 1.17,-34.55 L 1.31,-34.55 L 1.37,-34.58 L 1.419,-34.61 L 1.48,-34.64 L 1.56,-34.64 L 1.621,-34.66 L 1.711,-34.69 L 1.759,-34.72 L 1.821,-34.72 L 1.881,-34.78 L 1.961,-34.78 L 2.019,-34.83 L 2.05,-34.86 L 2.131,-34.89 L 2.188,-34.92 L 2.268,-34.95 L 2.3,-34.98 L 2.389,-35.03 L 2.41,-35.06 L 2.5,-35.09 L 2.56,-35.15 L 2.612,-35.17 L 2.701,-35.26 L 2.75,-35.29 L 2.839,-35.34 L 2.9,-35.37 L 2.919,-35.43 L 2.98,-35.49 L 3.04,-35.51 L 3.089,-35.57 L 3.179,-35.66 L 3.239,-35.71 L 5.589,-34.44 L 5.31,-32.93 L 10.15,-29.22 L 9.131,-28.48 L 7.768,-27.46 L 7.121,-26.93 L 6.47,-26.39 L 5.821,-25.82 L 5.188,-25.28 L 4.571,-24.69 L 3.97,-24.12 L 3.381,-23.52 L 2.781,-22.9 L 2.188,-22.3 L 1.621,-21.68 L 1.05,-21.03 L 0.509,-20.41 L -0.02,-19.73 L -0.562,-19.07 L -1.039,-18.39 L -2.062,-17.03 L -2.52,-16.32 L -3,-15.62 L -3.429,-14.91 L -3.879,-14.17 L -4.299,-13.46 L -4.7,-12.72 L -5.13,-11.96 L -5.52,-11.22 L -5.888,-10.46 L -6.261,-9.69 L -8.53,-10.4 L -8.812,-8.33 L -9.011,-6.66 L -9.21,-4.99 L -9.35,-3.31 L -9.46,-1.64 L -9.52,0.03 L -9.429,0.03 L -9.35,0.06 L -9.261,0.06 L -9.179,0.03 L -8.92,0.03 L -8.869,0 L -8.732,0 L -8.67,-0.02 L -8.562,-0.02 L -8.5,-0.05 L -8.469,-0.05 L -8.388,-0.08 L -8.33,-0.08 L -8.299,-0.11 L -8.241,-0.14 L -8.19,-0.14 L -8.161,-0.17 L -8.071,-0.19 L -8.049,-0.22 L -7.991,-0.22 L -7.929,-0.25 L -7.879,-0.28 L -7.85,-0.31 L -7.789,-0.34 L -7.732,-0.34 L -7.71,-0.36 L -7.619,-0.45 L -7.539,-0.48 L -7.511,-0.51 L -7.481,-0.53 L -7.42,-0.56 L -7.369,-0.59 L -7.34,-0.62 L -7.312,-0.65 L -7.25,-0.7 L -7.219,-0.73 L -7.2,-0.76 L -7.138,-0.82 L -7.081,-0.85 L -7.081,-0.87 L -7.03,-0.93 L -6.969,-0.96 L -6.94,-0.99 L -6.911,-1.04 L -6.879,-1.07 L -6.83,-1.13 L -6.799,-1.16 L -6.799,-1.22 L -6.741,-1.24 L -6.71,-1.3 L -6.69,-1.36 L -6.661,-1.39 L -6.63,-1.44 L -6.6,-1.47 L -6.539,-1.53 L -6.539,-1.58 L -6.52,-1.64 L -6.491,-1.67 L -6.491,-1.73 L -6.46,-1.78 L -6.429,-1.81 L -6.401,-1.87 L -6.401,-1.92 L -6.369,-1.98 L -6.35,-2.01 L -6.321,-2.09 L -6.321,-2.12 L 0,0"
           style="fill:#0c5393;fill-opacity:1;fill-rule:nonzero;stroke:none"
           id="path109" />
      </g>
      <g
         id="g111"
         transform="translate(1210.15,3420.664)">
        <path
           d="M 0,0 L 0.59,-0.03 L 0.53,-4.76 L -1.56,-4.73 L -1.68,-13.01 L -11.68,-12.89 L -11.65,-8.98 L -34.86,-8.56 L -34.8,-4.65 L -35.31,-4.62 L -35.25,1.17 L -34.66,1.19 L -34.63,5.08 L -9.58,4.65 L -9.53,9.1 L -4.77,9.05 L -4.77,7.71 L 2.41,7.71"
           style="fill:none;stroke:#080c0c;stroke-width:1;stroke-linecap:butt;stroke-linejoin:miter;stroke-miterlimit:3;stroke-dasharray:none;stroke-opacity:1"
           id="path113" />
        <g
           id="g115"
           transform="translate(2.49,0.83)">
          <path
             d="M 0,0 L 0.06,0.02 L 0.11,0.02 L 0.17,0.05 L 0.23,0.05 L 0.28,0.11 L 0.37,0.11 L 0.43,0.14 L 0.45,0.17 L 0.51,0.19 L 0.57,0.19 L 0.62,0.25 L 0.71,0.28 L 0.77,0.31 L 0.79,0.34 L 0.85,0.36 L 0.91,0.42 L 0.96,0.45 L 1.02,0.48 L 1.08,0.51 L 1.11,0.53 L 1.16,0.59 L 1.28,0.65 L 1.36,0.73 L 1.39,0.79 L 1.45,0.82 L 1.53,0.9 L 1.59,0.96 L 1.62,1.02 L 1.67,1.04 L 1.7,1.07 L 1.76,1.13 L 1.79,1.19 L 1.81,1.24 L 1.87,1.3 L 1.9,1.33 L 1.96,1.38 L 1.98,1.44 L 2.01,1.5 L 2.04,1.55 L 2.07,1.61 L 2.1,1.67 L 2.13,1.72 L 2.18,1.75 L 2.18,1.84 L 2.24,1.87 L 2.24,1.92 L 2.27,2.01 L 2.3,2.04 L 2.33,2.12 L 2.35,2.18 L 2.38,2.23 L 2.38,2.29 L 2.41,2.35 L 2.41,2.4 L 2.44,2.46 L 2.47,2.52 L 2.47,2.6 L 2.5,2.66 L 2.5,2.72 L 2.52,2.77 L 2.52,2.89 L 2.55,2.97 L 2.55,3.06 L 2.58,3.14 L 2.58,3.71 L 2.55,3.77 L 2.55,3.88 L 2.52,3.96 L 2.52,4.08 L 2.5,4.13 L 2.5,4.28 L 2.47,4.33 L 2.44,4.36 L 2.44,4.45 L 2.41,4.5 L 2.38,4.56 L 2.38,4.64 L 2.35,4.67 L 2.33,4.73 L 2.33,4.81 L 2.3,4.87 L 2.24,4.93 L 2.24,4.96 L 2.21,5.01 L 2.18,5.07 L 2.16,5.15 L 2.13,5.21 L 2.1,5.27 L 2.07,5.3 L 2.04,5.35 L 1.98,5.41 L 1.96,5.47 L 1.93,5.52 L 1.87,5.55 L 1.84,5.61 L 1.81,5.66 L 1.76,5.72 L 1.73,5.78 L 1.7,5.81 L 1.64,5.83 L 1.62,5.89 L 1.56,5.95 L 1.5,5.98 L 1.47,6.03 L 1.42,6.06 L 1.39,6.12 L 1.33,6.15 L 1.28,6.2 L 1.25,6.23 L 1.16,6.26 L 1.13,6.32 L 1.08,6.34 L 1.02,6.4 L 0.99,6.43 L 0.91,6.46 L 0.88,6.49 L 0.82,6.51 L 0.77,6.54 L 0.71,6.6 L 0.65,6.63 L 0.6,6.63 L 0.54,6.69 L 0.48,6.69 L 0.43,6.71 L 0.4,6.74 L 0.31,6.77 L 0.26,6.8 L 0.2,6.83 L 0.14,6.83 L 0.09,6.86 L 0,6.86 L -0.08,6.88"
             style="fill:none;stroke:#080c0c;stroke-width:1;stroke-linecap:butt;stroke-linejoin:miter;stroke-miterlimit:3;stroke-dasharray:none;stroke-opacity:1"
             id="path117" />
          <g
             id="g119">
            <path
               d="M 0,0 L -2.49,0 L -2.49,-0.83"
               style="fill:none;stroke:#080c0c;stroke-width:1;stroke-linecap:butt;stroke-linejoin:miter;stroke-miterlimit:3;stroke-dasharray:none;stroke-opacity:1"
               id="path121" />
            <g
               id="g123"
               transform="translate(-27.42,-9.53)">
              <path
                 d="M 0,0 L -0.06,-2.47"
                 style="fill:none;stroke:#080c0c;stroke-width:1;stroke-linecap:butt;stroke-linejoin:miter;stroke-miterlimit:3;stroke-dasharray:none;stroke-opacity:1"
                 id="path125" />
              <g
                 id="g127"
                 transform="translate(-16.62,6.95)">
                <path
                   d="M 0,0 C -0.02,-5.08 4.06,-9.22 9.13,-9.33"
                   style="fill:none;stroke:#080c0c;stroke-width:1;stroke-linecap:butt;stroke-linejoin:miter;stroke-miterlimit:3;stroke-dasharray:none;stroke-opacity:1"
                   id="path129" />
                <g
                   id="g131"
                   transform="translate(16.56,-9.42)">
                  <path
                     d="M 0,0 L -7.43,0.09"
                     style="fill:none;stroke:#080c0c;stroke-width:1;stroke-linecap:butt;stroke-linejoin:miter;stroke-miterlimit:3;stroke-dasharray:none;stroke-opacity:1"
                     id="path133" />
                  <g
                     id="g135"
                     transform="translate(-9.61,16.25)">
                    <path
                       d="M 0,0 C -3.77,0.05 -6.89,-2.92 -6.95,-6.69 C -7.03,-10.46 -4.03,-13.58 -0.26,-13.64"
                       style="fill:none;stroke:#080c0c;stroke-width:1;stroke-linecap:butt;stroke-linejoin:miter;stroke-miterlimit:3;stroke-dasharray:none;stroke-opacity:1"
                       id="path137" />
                    <g
                       id="g139"
                       transform="translate(-619.616,-234.45)">
                      <path
                         d="M 0,0 L -49.49,16.67 L -45.58,28.35 C -44.9,30.36 -43.51,31.92 -41.81,32.85 L -39.2,28.57 C -39.881,28.09 -40.36,27.41 -40.621,26.67 L -41.72,23.33 L -40.19,22.79 L -39.06,26.16 L 3.94,11.65 L 2.81,8.31 L 5.019,7.57 L 7.26,14.29 L 12.11,12.64 L 9.839,5.95 L 12.16,5.16 L 13.269,8.48 L 57.89,-6.58 L 59.05,-3.18 L 59.64,-3.37 L 61.369,-3.94 L 63.92,-4.82 L 61.4,-12.33 L 58.849,-19.84 L 9.36,-3.15 L 10.46,0.17 L 1.14,3.32 L 0,0 z"
                         style="fill:none;stroke:#080c0c;stroke-width:1;stroke-linecap:butt;stroke-linejoin:miter;stroke-miterlimit:3;stroke-dasharray:none;stroke-opacity:1"
                         id="path141" />
                      <g
                         id="g143"
                         transform="translate(64.15,43.51)">
                        <path
                           d="M 0,0 L 0.229,-0.11 L 0.229,-0.14 L 1.16,-0.65 L -13.41,-27.24 L -27.07,-22.59 L -23.92,-16.84 L -24.23,-16.67 L -24.66,-17.46 L -26.301,-16.55 L -25.881,-15.76 L -26.62,-15.36 L -28.09,-17.46 L -29,-18.68 L -29.59,-18.48 L -29.93,-18.37 L -30.301,-18.23 L -30.64,-18.08 L -31.01,-17.94 L -31.35,-17.8 L -31.69,-17.63 L -32.031,-17.49 L -32.71,-17.15 L -33.05,-16.95 L -33.36,-16.78 L -33.7,-16.58 L -33.08,-13.66 L -32.71,-12.02 L -33.11,-11.79 L -35.631,-16.41 L -36.11,-16.16 L -36.59,-17.03 L -36.14,-17.29 L -38.69,-21.97 L -39.32,-21.63 L -39.51,-21.97 L -43.771,-19.64 L -49.26,-29.73 L -51.11,-28.71 L -45.58,-18.62 L -53.12,-14.51 L -55.19,-18.25 L -62.7,-15.7 L -61.11,-11.03 L -75.51,-6.15 L -75.37,-5.72 L -76,-5.53 L -74.29,-0.51 L -73.781,-0.68 L -73.44,0.28 L -73.951,0.46 L -72.25,5.47 L -71.66,5.25 L -70.381,8.76 L -68.74,13.69 L -68.801,13.69 L -68.65,14.12 L -69.25,14.32 L -67.55,19.33 L -67.12,19.19 L -66.811,20.16 L -67.24,20.3 L -65.54,25.31 L -64.94,25.09 L -64.801,25.51 L -49.75,20.41 L -48.5,24.04 L -45.83,25.37 L -42.66,24.29 L -41.33,21.63 L -42.57,17.97 L -27.381,12.81 L -27.521,12.45 L -26.84,12.22 L -28.54,7.17 L -29.05,7.34 L -29.39,6.38 L -28.881,6.21 L -30.561,1.25 L -30.021,1.05 L -29.34,2.61 L -28.631,4.08 L -27.92,5.56 L -27.15,7.03 L -26.39,8.48 L -25.85,9.44 L -25.34,10.38 L -24.061,9.89 L -22.82,9.41 L -21.6,8.9 L -20.381,8.36 L -19.16,7.83 L -17.97,7.26 L -16.781,6.66 L -19.93,-2.8 L -19.87,-2.86 L -17.01,-4.42 L -11.22,6.15 L -6.801,3.74 L -6.86,3.66 L -4.561,2.38 L -4.51,2.47 L -0.17,0.11 L 0,0 z"
                           style="fill:none;stroke:#080c0c;stroke-width:1;stroke-linecap:butt;stroke-linejoin:miter;stroke-miterlimit:3;stroke-dasharray:none;stroke-opacity:1"
                           id="path145" />
                        <g
                           id="g147"
                           transform="translate(2.67,-39.29)">
                          <path
                             d="M 0,0 L 2.26,6.72 L 5.78,5.53 L 16.98,38.81 L 19.949,37.82 L 21.57,42.52 L 6.91,47.48 L -5.9,9.47 L -2.56,8.37 L -4.82,1.65 L 0,0"
                             style="fill:none;stroke:#080c0c;stroke-width:1;stroke-linecap:butt;stroke-linejoin:miter;stroke-miterlimit:3;stroke-dasharray:none;stroke-opacity:1"
                             id="path149" />
                          <g
                             id="g151"
                             transform="translate(-162.673,100.08)">
                            <path
                               d="M 0,0 L 2.921,8.59 L 8.481,6.69 L 7.291,3.21 L 6.75,1.62 L 7.601,1.34 L 8.65,1.82 L 11.682,0.8 L 12.22,-0.22 L 13.069,-0.51 L 13.611,1.08 L 14.772,4.54 L 20.361,2.67 L 17.441,-5.92 L 11.342,-3.85 L 10.89,-5.18 L 5.64,-3.4 L 6.101,-2.07 L 0,0 z"
                               style="fill:none;stroke:#080c0c;stroke-width:1;stroke-linecap:butt;stroke-linejoin:miter;stroke-miterlimit:3;stroke-dasharray:none;stroke-opacity:1"
                               id="path153" />
                            <g
                               id="g155"
                               transform="translate(-26.05,-62.64)">
                              <path
                                 d="M 0,0 L -0.06,-0.12 L -1.73,-4 L -0.768,-4.42 L -3.55,-10.86 L -6.04,-9.78 L -6.639,-11.11 L -6.381,-11.23 L -7.849,-14.63 L -8.108,-14.52 L -8.7,-15.88 L -6.178,-16.95 L -8.988,-23.39 L -9.95,-22.96 L -11.62,-26.85 L -11.711,-26.99 L -11.909,-26.96 L -12.08,-26.93 L -12.279,-26.9 L -12.45,-26.87 L -12.639,-26.85 L -12.81,-26.82 L -13.009,-26.79 L -13.178,-26.76 L -13.381,-26.7 L -13.55,-26.68 L -13.719,-26.62 L -13.889,-26.56 L -14.089,-26.51 L -14.429,-26.39 L -14.598,-26.34 L -14.768,-26.25 L -14.938,-26.19 L -15.108,-26.11 L -15.279,-26.05 L -15.45,-25.97 L -15.62,-25.88 L -15.79,-25.8 L -15.961,-25.71 L -16.098,-25.63 L -16.268,-25.54 L -16.438,-25.43 L -16.58,-25.34 L -16.749,-25.23 L -16.899,-25.15 L -17.069,-25.03 L -17.349,-24.81 L -17.488,-24.69 L -17.63,-24.58 L -17.779,-24.47 L -17.919,-24.32 L -18.06,-24.21 L -18,-24.07 L -16.329,-20.21 L -17.29,-19.79 L -14.598,-13.61 L -15.849,-13.07 L -12.979,-6.47 L -11.738,-7 L -9.069,-0.82 L -8.08,-1.25 L -6.409,2.63 L -6.349,2.78 L -6.149,2.75 L -5.95,2.75 L -5.779,2.72 L -5.589,2.69 L -5.419,2.66 L -5.219,2.63 L -5.05,2.58 L -4.881,2.55 L -4.678,2.52 L -4.509,2.46 L -4.31,2.41 L -4.139,2.35 L -3.969,2.32 L -3.8,2.24 L -3.63,2.18 L -3.429,2.12 L -3.259,2.07 L -3.089,1.98 L -2.919,1.93 L -2.749,1.84 L -2.58,1.76 L -2.409,1.7 L -2.268,1.61 L -2.098,1.5 L -1.929,1.42 L -1.759,1.33 L -1.62,1.25 L -1.45,1.13 L -1.31,1.05 L -1.139,0.93 L -0.988,0.82 L -0.849,0.71 L -0.711,0.59 L -0.54,0.48 L -0.399,0.37 L -0.259,0.25 L -0.12,0.14 L 0,0 z"
                                 style="fill:none;stroke:#080c0c;stroke-width:1;stroke-linecap:butt;stroke-linejoin:miter;stroke-miterlimit:3;stroke-dasharray:none;stroke-opacity:1"
                                 id="path157" />
                              <g
                                 id="g159"
                                 transform="translate(22.19,108.68)">
                                <path
                                   d="M 0,0 L -3.708,-0.03 L -3.708,0.68 L -5.329,0.68 L -5.329,-0.03 L -9.039,-0.03 L -9.039,-2.64 L -10.089,-2.67 L -10.089,-4.76 L -9.039,-4.76 L -9.009,-11.65 L -10.089,-11.65 L -10.06,-13.78 L -9.009,-13.75 L -8.98,-20.64 L -10.06,-20.64 L -10.06,-22.76 L -8.98,-22.76 L -8.98,-25.37 L -5.24,-25.37 L -5.24,-26.65 L -7.279,-26.65 L -7.279,-30.67 L -6.628,-30.67 L -6.628,-33.31 L -6.49,-33.34 L -6.32,-33.37 L -6.178,-33.39 L -6.029,-33.42 L -5.89,-33.45 L -5.719,-33.48 L -5.579,-33.51 L -5.439,-33.51 L -5.27,-33.54 L -5.128,-33.54 L -4.99,-33.56 L -3.909,-33.56 L -3.77,-33.54 L -3.628,-33.54 L -3.449,-33.51 L -3.31,-33.51 L -3.169,-33.48 L -3,-33.45 L -2.719,-33.39 L -2.579,-33.37 L -2.428,-33.34 L -2.24,-33.28 L -2.24,-30.67 L -1.609,-30.67 L -1.609,-26.62 L -3.678,-26.62 L -3.678,-25.37 L 0.091,-25.34 L 0.061,-16.07 L -2.208,-16.07 L -2.208,-13.61 L -2.009,-13.61 L -2.009,-11.77 L -2.208,-11.77 L -2.24,-9.3 L -0.31,-9.27 L 0.031,-9.27 L 0,0 z"
                                   style="fill:none;stroke:#080c0c;stroke-width:1;stroke-linecap:butt;stroke-linejoin:miter;stroke-miterlimit:3;stroke-dasharray:none;stroke-opacity:1"
                                   id="path161" />
                                <g
                                   id="g163"
                                   transform="translate(-51.359,-93.72)">
                                <path
                                   d="M 0,0 L 5.58,-1.89 L 11.879,-4.02 L 17.431,-5.92 L 14.51,-14.48 L 9.24,-12.69 L 8.788,-14.03 L 5.359,-12.86 L 1.931,-11.73 L 2.379,-10.37 L -2.891,-8.58"
                                   style="fill:none;stroke:#080c0c;stroke-width:1;stroke-linecap:butt;stroke-linejoin:miter;stroke-miterlimit:3;stroke-dasharray:none;stroke-opacity:1"
                                   id="path165" />
                                <g
                                   id="g167"
                                   transform="translate(50.969,45.5)">
                                <path
                                   d="M 0,0 L -6.181,2.1 L -6.519,1.11 L -17.038,4.68 L -17.1,4.54 L -17.269,4 L -19.139,-1.44 L -18.149,-1.78 L -18.8,-3.77 L -14.6,-5.19 L -15.59,-8.11 L -14.459,-8.47 L -15.511,-11.56 L -16.639,-11.17 L -17.658,-14.17 L -13.181,-15.7 L -13.5,-16.67 L -23.219,-13.38 L -23.84,-15.28 L -25.261,-19.44 L -24.318,-19.78 L -25.011,-21.74 L -20.719,-23.21 L -21.719,-26.11 L -20.579,-26.5 L -21.629,-29.56 L -22.738,-29.2 L -23.761,-32.2 L -19.279,-33.7 L -19.619,-34.67 L -27.949,-31.83 L -28.61,-33.73 L -30.019,-37.93 L -29.03,-38.27 L -29.709,-40.25 L -25.86,-41.55 L -25.519,-40.56 L -23.36,-41.27 L -23.699,-42.26 L -20.1,-43.51 L -19.761,-42.52 L -17.61,-43.23 L -17.949,-44.22 L -14.09,-45.52 L -13.439,-43.54 L -12.449,-43.88 L -11.03,-39.71 L -13.949,-38.69 L -11.969,-32.88 L -12.219,-32.8 L -11.511,-30.64 L -10.519,-30.98 L -9.898,-29.14 L -9.869,-29.11 L -9.238,-27.27 L -10.238,-26.93 L -9.53,-24.77 L -8.538,-25.11 L -7.288,-21.49 L -8.279,-21.15 L -7.568,-19.02 L -6.579,-19.36 L -5.329,-15.73 L -6.318,-15.39 L -5.619,-13.24 L -4.619,-13.58 L -3.969,-11.73 L -3.969,-11.71 L 0,0 z"
                                   style="fill:none;stroke:#080c0c;stroke-width:1;stroke-linecap:butt;stroke-linejoin:miter;stroke-miterlimit:3;stroke-dasharray:none;stroke-opacity:1"
                                   id="path169" />
                                <g
                                   id="g171"
                                   transform="translate(-53.86,-54.08)">
                                <path
                                   d="M 0,0 L -5.298,1.81 L -5.759,0.45 L -9.189,1.61 L -12.589,2.77 L -12.128,4.11 L -17.428,5.92 L -14.538,14.48 L -8.958,12.61 L -2.67,10.46 L 2.891,8.58"
                                   style="fill:none;stroke:#080c0c;stroke-width:1;stroke-linecap:butt;stroke-linejoin:miter;stroke-miterlimit:3;stroke-dasharray:none;stroke-opacity:1"
                                   id="path173" />
                                <g
                                   id="g175"
                                   transform="translate(-11.789,39.96)">
                                <path
                                   d="M 0,0 L 5.299,-1.81 L 2.38,-10.37 L -3.18,-8.5 L -1.48,-3.43 L -2.3,-3.14 L -2.58,-3.96 L -3.381,-3.68 L -6.41,-2.66 L -7.201,-2.38 L -6.919,-1.58 L -7.771,-1.3 L -9.5,-6.37 L -15.06,-4.47 L -12.139,4.11 L -6.839,2.3 L -6.381,3.66 L 0.45,1.34 L 0,0 z"
                                   style="fill:none;stroke:#080c0c;stroke-width:1;stroke-linecap:butt;stroke-linejoin:miter;stroke-miterlimit:3;stroke-dasharray:none;stroke-opacity:1"
                                   id="path177" />
                                <g
                                   id="g179"
                                   transform="translate(24.119,-8.19)">
                                <path
                                   d="M 0,0 L 5.301,-1.81 L 2.381,-10.37 L -3.179,-8.5 L -1.448,-3.43 L -2.299,-3.14 L -3.32,-3.54 L -6.35,-2.52 L -6.919,-1.59 L -7.77,-1.3 L -9.47,-6.35 L -15.049,-4.48 L -12.128,4.11 L -6.83,2.33 L -6.378,3.66 L 0.451,1.33 L 0,0 z"
                                   style="fill:none;stroke:#080c0c;stroke-width:1;stroke-linecap:butt;stroke-linejoin:miter;stroke-miterlimit:3;stroke-dasharray:none;stroke-opacity:1"
                                   id="path181" />
                                <g
                                   id="g183"
                                   transform="translate(-24.208,160.22)">
                                <path
                                   d="M 0,0 L -1.901,0 L -1.901,-0.37 L -3.571,-0.37 L -3.571,0 L -3.773,0 L -3.773,-0.37 L -5.411,-0.37 L -5.411,-0.03 L -8.981,-0.03 L -8.981,-0.37 L -10.631,-0.4 L -10.631,-0.03 L -10.862,-0.03 L -10.862,-0.4 L -12.5,-0.4 L -12.5,-0.03 L -16.071,-0.06 L -16.071,-0.4 L -17.721,-0.4 L -17.721,-0.06 L -17.943,-0.06 L -17.943,-0.4 L -19.591,-0.4 L -19.591,-0.06 L -21.491,-0.06 L -21.491,-0.63 L -27.151,-0.66 L -26.391,-3.83 L -26.67,-3.89 L -26.701,-3.77 L -28.541,-4.23 L -28.491,-4.57 L -30.071,-4.94 L -30.16,-4.6 L -30.362,-4.65 L -30.273,-4.99 L -31.891,-5.39 L -31.971,-5.05 L -35.432,-5.87 L -35.352,-6.24 L -36.961,-6.61 L -37.05,-6.27 L -37.25,-6.32 L -37.16,-6.66 L -38.781,-7.06 L -38.83,-6.72 L -42.321,-7.54 L -42.24,-7.88 L -43.821,-8.28 L -43.911,-7.94 L -44.131,-8 L -44.05,-8.34 L -45.642,-8.73 L -45.721,-8.39 L -47.591,-8.82 L -46.541,-13.13 L -47.142,-13.27 L -46.711,-15 L -46.122,-14.86 L -45.071,-19.14 L -43.231,-18.71 L -43.311,-18.34 L -41.701,-17.98 L -41.612,-18.32 L -41.411,-18.26 L -41.5,-17.92 L -39.881,-17.52 L -39.83,-17.86 L -36.341,-17.04 L -36.42,-16.67 L -34.841,-16.3 L -34.75,-16.64 L -34.523,-16.59 L -34.612,-16.25 L -33.023,-15.85 L -32.943,-16.19 L -29.481,-15.37 L -29.541,-15.03 L -27.951,-14.63 L -27.862,-14.97 L -27.67,-14.91 L -27.75,-14.57 L -26.131,-14.18 L -26.05,-14.55 L -24.211,-14.09 L -24.891,-11.29 L -21.461,-10.46 L -21.461,-10.69 L -19.562,-10.66 L -19.562,-10.32 L -17.911,-10.32 L -17.911,-10.66 L -17.692,-10.66 L -17.692,-10.32 L -16.041,-10.32 L -16.041,-10.66 L -12.471,-10.66 L -12.471,-10.29 L -10.83,-10.29 L -10.83,-10.66 L -10.602,-10.66 L -10.631,-10.29 L -8.961,-10.29 L -8.961,-10.63 L -5.381,-10.63 L -5.381,-10.29 L -3.74,-10.29 L -3.74,-10.63 L -3.541,-10.63 L -3.541,-10.29 L -1.901,-10.26 L -1.901,-10.63 L 0.029,-10.63 L 0,-6.21 L 0.619,-6.21 L 0.619,-4.43 L 0,-4.43 L 0,0 z"
                                   style="fill:none;stroke:#080c0c;stroke-width:1;stroke-linecap:butt;stroke-linejoin:miter;stroke-miterlimit:3;stroke-dasharray:none;stroke-opacity:1"
                                   id="path185" />
                                <g
                                   id="g187"
                                   transform="translate(-5.041,-38.53)">
                                <path
                                   d="M 0,0 L 0,2.16 L -3.43,2.16 L -3.43,4.77 L -4.141,4.77 L -4.141,9.27 L -3.43,9.27 L -3.459,15.99 L -4.17,15.99 L -4.17,18.37 L 3.939,18.4 L 3.939,20.13 L 9.291,20.13 L 9.291,17.52 L 10,17.52 L 10,13.01 L 9.291,13.01 L 9.32,8.9 L 10.029,8.9 L 10.029,6.52 L 9.32,6.52 L 9.32,5.53 L 10.029,4.82 L 9.32,4.11 L 9.32,2.19 L 8.098,2.19 L 8.098,0.03 L 11.5,0.03 L 11.5,-4.45 L 12.211,-4.45 L 12.241,-8.95 L 11.529,-8.95 L 11.529,-15.64 L 12.241,-15.64 L 12.268,-18.05 L 11.56,-18.05 L 11.56,-19.13 L 4.47,-19.16 L -1.199,-19.16 L -1.221,-16.55 L -1.93,-16.55 L -1.93,-12.04 L -1.221,-12.04 L -1.221,-7.11 L -1.93,-7.11 L -1.959,-2.63 L -1.251,-2.63 L -1.251,0 L 0,0 z"
                                   style="fill:none;stroke:#080c0c;stroke-width:1;stroke-linecap:butt;stroke-linejoin:miter;stroke-miterlimit:3;stroke-dasharray:none;stroke-opacity:1"
                                   id="path189" />
                                <g
                                   id="g191"
                                   transform="translate(32.06,-73.53)">
                                <path
                                   d="M 0,0 L 5.58,-1.9 L 6.681,1.39 L 7.03,2.38 L 7.28,3.21 L 8.129,2.92 L 8.67,1.85 L 10.03,1.36 L 11.67,0.82 L 12.75,1.34 L 13.6,1.05 L 12.981,-0.76 L 11.869,-4.02 L 17.431,-5.92 L 20.35,2.67 L 14.99,4.48 L 14.311,4.71 L 14.76,6.04 L 9.41,7.85 L 8.95,6.52 L 2.91,8.56 L -2.439,10.38 L -3.121,10.6 L -2.67,11.97 L -8.031,13.78 L -8.48,12.45 L -9.161,12.67 L -14.519,14.49 L -17.439,5.9 L -11.849,4.03 L -10.75,7.29 L -10.121,9.1 L -9.3,8.82 L -8.759,7.74 L -7.121,7.2 L -5.759,6.72 L -4.679,7.26 L -3.83,6.98 L -4.121,6.15 L -4.371,5.36 L -5.56,1.87 L 0,0 z"
                                   style="fill:none;stroke:#080c0c;stroke-width:1;stroke-linecap:butt;stroke-linejoin:miter;stroke-miterlimit:3;stroke-dasharray:none;stroke-opacity:1"
                                   id="path193" />
                                <g
                                   id="g195"
                                   transform="translate(34.609,95.73)">
                                <path
                                   d="M 0,0 L -29.99,-0.09 L -29.99,3.15 L -34.099,3.12 L -34.099,-0.09 L -35.039,-0.09 L -35.039,-1.9 L -40,-1.93 L -40.029,15.33 L -38.548,15.33 L -38.548,18.45 L -40.708,18.42 L -40.74,23.38 L -23.5,23.44 L -23.469,18.48 L -25.628,18.48 L -25.628,12.87 L -0.029,12.95 L -0.029,7.99 L -2.19,7.99 L -2.159,4.93 L 0,4.93 L 0,0 z"
                                   style="fill:none;stroke:#080c0c;stroke-width:1;stroke-linecap:butt;stroke-linejoin:miter;stroke-miterlimit:3;stroke-dasharray:none;stroke-opacity:1"
                                   id="path197" />
                                <g
                                   id="g199"
                                   transform="translate(-46.439,-108.54)">
                                <path
                                   d="M 0,0 L -2.89,-8.59 L -9.01,-6.52 L -9.462,-7.85 L -14.68,-6.09 L -14.23,-4.73 L -20.32,-2.66 L -17.429,5.9 L -11.84,4.03 L -13.03,0.54 L -13.57,-1.05 L -12.72,-1.33 L -11.67,-0.85 L -8.67,-1.9 L -8.1,-2.89 L -7.28,-3.17 L -6.739,-1.62 L -5.551,1.87 L 0,0 z"
                                   style="fill:none;stroke:#080c0c;stroke-width:1;stroke-linecap:butt;stroke-linejoin:miter;stroke-miterlimit:3;stroke-dasharray:none;stroke-opacity:1"
                                   id="path201" />
                                <g
                                   id="g203"
                                   transform="translate(3.799,-10.86)">
                                <path
                                   d="M 0,0 L 2.921,8.59 L 8.481,6.69 L 7.291,3.21 L 6.75,1.62 L 7.601,1.34 L 8.65,1.82 L 11.682,0.8 L 12.22,-0.22 L 13.069,-0.51 L 13.611,1.08 L 14.772,4.54 L 20.361,2.67 L 17.441,-5.92 L 11.342,-3.85 L 10.89,-5.18 L 5.64,-3.4 L 6.101,-2.07 L 0,0 z"
                                   style="fill:none;stroke:#080c0c;stroke-width:1;stroke-linecap:butt;stroke-linejoin:miter;stroke-miterlimit:3;stroke-dasharray:none;stroke-opacity:1"
                                   id="path205" />
                                <g
                                   id="g207"
                                   transform="translate(11.432,71.58)">
                                <path
                                   d="M 0,0 L 2.148,0 L 2.119,3.4 L 6.599,3.43 L 6.599,4.14 L 11.109,4.14 L 11.109,3.43 L 13.629,3.43 L 15.958,5.78 L 15.449,6.26 L 18.648,9.47 L 19.129,8.96 L 21.458,11.31 L 21.458,13.83 L 20.75,13.83 L 20.75,18.34 L 21.458,18.34 L 21.429,23.27 L 20.718,23.24 L 20.718,27.75 L 21.429,27.75 L 21.429,30.07 L 20.718,30.07 L 20.718,32.48 L 21.429,32.48 L 21.398,35.09 L 26.759,35.12 L 26.759,32.71 L 34.179,32.74 L 34.208,11.45 L 34.92,11.45 L 34.949,9.04 L 34.239,9.04 L 34.239,6.04 L 30.53,2.32 L 31.039,1.84 L 27.859,-1.36 L 27.349,-0.85 L 24.349,-3.89 L 24.859,-4.4 L 23.16,-6.1 L 22.648,-5.59 L 18.958,-9.3 L 15.958,-9.33 L 15.958,-10.04 L 13.549,-10.04 L 13.549,-9.33 L 9.288,-9.33 L 9.288,-10.04 L 4.788,-10.06 L 4.788,-9.36 L 2.148,-9.36 L 2.148,-8.08 L 0.03,-8.11 L 0,-8.11 L 0.03,-11.51 L -2.612,-11.54 L -2.612,-12.25 L -7.09,-12.25 L -7.09,-11.54 L -12.022,-11.54 L -12.022,-12.25 L -16.532,-12.28 L -16.532,-11.57 L -21.461,-11.57 L -21.461,-12.28 L -23.871,-12.28 L -23.871,-8.79 L -28.011,-8.82 L -30.961,-5.9 L -30.961,-1.76 L -28.042,1.16 L -23.901,1.19 L -18.432,1.19 L -18.432,1.9 L -13.92,1.9 L -13.92,1.19 L -8.991,1.22 L -8.991,1.93 L -4.482,1.93 L -4.482,1.22 L 0,1.25 L 0,0 z"
                                   style="fill:none;stroke:#080c0c;stroke-width:1;stroke-linecap:butt;stroke-linejoin:miter;stroke-miterlimit:3;stroke-dasharray:none;stroke-opacity:1"
                                   id="path209" />
                                </g>
                                </g>
                                </g>
                                </g>
                                </g>
                                </g>
                                </g>
                                </g>
                                </g>
                                </g>
                                </g>
                                </g>
                              </g>
                            </g>
                          </g>
                        </g>
                      </g>
                    </g>
                  </g>
                </g>
              </g>
            </g>
          </g>
        </g>
      </g>
      <g
         id="g211"
         transform="translate(865.037,3430.943)">
        <path
           d="M 0,0 L -0.029,-5.59 L 32.682,-5.73 L 32.451,-29.31 L 8.59,-29.2 L 8.42,-32.75 L 3.582,-32.96 L -11.584,-40.63 L -16.752,-25.29 L -14.752,-24.29 L -14.908,-0.17 L 0,0"
           style="fill:#0c5393;fill-opacity:1;fill-rule:nonzero;stroke:none"
           id="path213" />
      </g>
      <g
         id="g215"
         transform="translate(806.314,3387.144)">
        <path
           d="M 0,0 L 3.746,0 L 34.497,-0.12 L 34.429,-15.69 L 44.124,-15.72 L 44.057,-18.99 L 34.429,-18.93 L 34.374,-29.47 L 5.37,-28.71 L -0.024,-15.58 L -52.236,-29.91 L -52.896,-28.56 L -0.357,-11.58 L 0,0"
           style="fill:#0c5393;fill-opacity:1;fill-rule:nonzero;stroke:none"
           id="path217" />
      </g>
      <g
         id="g219"
         transform="translate(1158.56,3266.053)">
        <path
           d="M 0,0 L 0.28,0.65"
           style="fill:none;stroke:#080c0c;stroke-width:0.03;stroke-linecap:butt;stroke-linejoin:miter;stroke-miterlimit:3;stroke-dasharray:none;stroke-opacity:1"
           id="path221" />
        <g
           id="g223"
           transform="translate(49.74,76.01)">
          <path
             d="M 0,0 L -0.11,-0.34"
             style="fill:none;stroke:#080c0c;stroke-width:0.03;stroke-linecap:butt;stroke-linejoin:miter;stroke-miterlimit:3;stroke-dasharray:none;stroke-opacity:1"
             id="path225" />
          <g
             id="g227"
             transform="translate(31.92,72.91)">
            <path
               d="M 0,0 L -0.05,-0.12"
               style="fill:none;stroke:#080c0c;stroke-width:0.03;stroke-linecap:butt;stroke-linejoin:miter;stroke-miterlimit:3;stroke-dasharray:none;stroke-opacity:1"
               id="path229" />
            <g
               id="g231"
               transform="translate(-31.92,-72.91)">
              <path
                 d="M 0,0 L -0.11,-0.34"
                 style="fill:none;stroke:#080c0c;stroke-width:0.03;stroke-linecap:butt;stroke-linejoin:miter;stroke-miterlimit:3;stroke-dasharray:none;stroke-opacity:1"
                 id="path233" />
            </g>
          </g>
        </g>
      </g>
      <g
         id="g235"
         transform="translate(1042.94,3330.633)">
        <path
           d="M 0,0 L -0.09,-0.59 L -0.23,-1.16 L -0.43,-1.72 L -0.68,-2.26 L -1,-2.74 L -1.34,-3.23 L -1.76,-3.65 L -2.21,-4.05 L -2.7,-4.36 L -3.21,-4.64 L -3.74,-4.87 L -4.31,-5.04 L -4.91,-5.15 L -5.5,-5.21 L -6.07,-5.18 L -6.66,-5.1 L -7.23,-4.96 L -7.8,-4.76 L -8.34,-4.5 L -8.85,-4.22 L -9.3,-3.85 L -9.73,-3.45 L -10.12,-3 L -10.43,-2.52 L -10.72,-1.98 L -10.94,-1.44 L -11.12,-0.87 L -11.23,-0.31 L -11.29,0.29 L -11.26,0.88 L -11.17,1.48 L -11.06,2.05 L -10.86,2.61 L -10.6,3.12 L -10.29,3.63 L -9.92,4.12 L -9.53,4.54 L -9.07,4.91 L -8.59,5.25 L -8.05,5.53 L -7.52,5.76 L -6.95,5.93 L -6.38,6.04 L -5.79,6.07 L -5.19,6.07 L -4.6,5.99 L -4.03,5.84 L -3.46,5.65 L -2.95,5.39 L -2.44,5.08 L -1.96,4.74 L -1.53,4.31 L -1.17,3.89 L -0.83,3.38 L -0.54,2.87 L -0.32,2.33 L -0.14,1.76 L -0.03,1.17 L 0,0.57 L 0,0 z M -7.73,45.68 L -2.21,45.62 L -2.89,8.26 L -3.46,8.38 L -3.73,8.43 L -4.06,8.52 L -4.34,8.58 L -4.65,8.63 L -4.94,8.66 L -5.25,8.69 L -5.56,8.69 L -5.84,8.72 L -6.15,8.72 L -6.44,8.69 L -7.06,8.63 L -7.34,8.58 L -7.65,8.52 L -7.94,8.46 L -8.39,8.32 L -7.73,45.68 z M 2.89,1.34 L 2.86,1.65 L 2.83,1.93 L 2.77,2.24 L 2.72,2.53 L 2.63,2.84 L 2.55,3.12 L 2.46,3.41 L 2.35,3.69 L 2.24,3.97 L 2.12,4.23 L 1.98,4.51 L 1.84,4.77 L 1.67,5.05 L 1.53,5.31 L 1.36,5.53 L 1.19,5.79 L 0.99,6.01 L 0.59,6.47 L 0.39,6.69 L 0,7.06 L 0.2,18.69 L 0.68,46.1 L 1.78,46.1 L 1.87,52.33 L -11.43,52.42 L -11.51,46.24 L -10.38,46.21 L -10.52,38.13 L -11.09,7.35 L -11.31,7.15 L -11.77,6.75 L -11.97,6.52 L -12.16,6.3 L -12.56,5.84 L -12.73,5.62 L -12.9,5.36 L -13.07,5.11 L -13.21,4.85 L -13.35,4.57 L -13.5,4.31 L -13.64,4.03 L -13.75,3.75 L -13.86,3.46 L -13.95,3.18 L -14.03,2.9 L -14.12,2.61 L -14.18,2.3 L -14.23,2.02 L -14.29,1.71 L -14.32,1.42 L -14.35,1.11 L -14.35,0.2 L -14.32,-0.08 L -14.29,-0.39 L -14.26,-0.68 L -14.2,-0.99 L -14.15,-1.27 L -14.09,-1.58 L -14.01,-1.87 L -13.92,-2.15 L -13.81,-2.43 L -13.69,-2.72 L -13.58,-3 L -13.47,-3.25 L -13.33,-3.54 L -13.18,-3.79 L -13.01,-4.05 L -12.84,-4.3 L -12.67,-4.56 L -12.5,-4.79 L -12.31,-5.04 L -12.11,-5.27 L -11.88,-5.47 L -11.68,-5.69 L -11.31,-6 L -11.28,-5.98 L -11.57,-18.4 L -8.73,-18.48 L -8.54,-7.71 L -7.94,-7.79 L -7.66,-7.85 L -7.37,-7.93 L -7.06,-7.96 L -6.78,-8.02 L -6.47,-8.05 L -6.15,-8.07 L -5.28,-8.07 L -4.96,-8.05 L -4.65,-8.02 L -4.37,-7.96 L -4.06,-7.93 L -3.77,-7.85 L -3.49,-7.79 L -3.01,-7.65 L -3.21,-18.56 L -0.49,-18.62 L -0.26,-6.15 L 0.2,-5.75 L 0.42,-5.52 L 0.62,-5.32 L 0.82,-5.1 L 1.02,-4.84 L 1.22,-4.62 L 1.39,-4.36 L 1.56,-4.13 L 1.7,-3.88 L 1.87,-3.6 L 2.01,-3.34 L 2.12,-3.06 L 2.26,-2.8 L 2.38,-2.52 L 2.46,-2.23 L 2.55,-1.95 L 2.63,-1.64 L 2.72,-1.36 L 2.77,-1.07 L 2.83,-0.76 L 2.86,-0.48 L 2.89,-0.17 L 2.92,0.15 L 2.92,1.05 L 2.89,1.34"
           style="fill:#ffffff;fill-opacity:1;fill-rule:nonzero;stroke:none"
           id="path237" />
      </g>
      <g
         id="g239"
         transform="translate(856.084,3403.463)">
        <path
           d="M 0,0 L -29.299,-18.31 L -31.466,-15.98 L -1.332,4 L 0,0"
           style="fill:#0c5393;fill-opacity:1;fill-rule:nonzero;stroke:none"
           id="path241" />
      </g>
      <g
         id="g243"
         transform="translate(657.574,3363.313)">
        <path
           d="M 0,0 L -23.283,0.4 L -46.783,0.79 L -78.273,1.56 L -105.603,2.1 L -141.844,2.44 L -144.142,2.35 L -144.902,2.78 L -145.533,3.37 L -146.213,4 L -146.523,4.51 L -146.722,5.36 L -146.693,6.6 L -146.693,6.72 L -146.803,11.04 L -146.803,23.15 L -145.822,25.58 L -108.322,25.81 L 0.058,23.24 C 0.058,23.24 1.992,23.05 3.125,21.68 C 4.26,20.31 3.576,17.43 3.576,17.43 C 3.576,17.43 3.444,8.06 3.32,4.06 C 3.195,0.06 0,0 0,0 z M -143.603,79.29 L -143.494,79.29 L -115.693,79.44 L -76.633,79.58 L -72.203,79.58 L -66.344,79.61 L -49.732,79.66 L -48.424,79.66 L -45.873,79.69 L -38.982,79.69 L -36.664,79.72 L -2.522,79.78 L -1.192,79.8 L 1.219,79.78 L 2.147,79.66 L 3.058,79.24 L 3.827,78.7 L 4.278,78.07 L 4.678,77.56 L 4.757,77.28 L 4.928,76.77 L 5.098,75.81 L 5.268,74.87 L 5.438,73.82 L 5.469,72.69 L 5.576,67.87 L 5.607,60.67 L 5.607,52.25 L 5.558,41.05 C 5.558,41.05 5.26,37.31 1.956,37.37 C -0.488,37.31 -75.613,40.01 -75.613,40.01 L -147.062,42.07 L -147.062,74.96 L -146.892,76.97 L -146.523,77.82 L -145.873,78.44 L -144.793,79.04 L -144.344,79.27 M 4.76,-39.69 C 4.76,-39.69 -1.572,-42.1 -2.99,-47.02 C -4.406,-51.94 -2.868,-58.44 -0.906,-61.19 C -0.147,-62.27 5.01,-66.19 5.01,-66.19 C 5.01,-66.19 3.607,-86.42 1.01,-100.94 C -1.588,-115.46 -4.543,-126.75 -4.543,-126.75 L -7.142,-137.98 L -9.683,-149.12 L -23.674,-206.18 L -26.594,-210.52 L -26.623,-210.57 C -28.613,-213.21 -31.783,-214.46 -34.873,-214.06 L -35.322,-214.03 L -40.713,-212.84 L -189.289,-163.83 C -192.554,-160.26 -191.535,-158.08 -190.363,-153.57 L -179.053,-120.09 L -168.504,-91.28 L -152.133,-54.37 L -149.322,-32.87 L -149.353,-28.62 L -149.353,-24.37 L -149.383,-17.09 L -149.244,-15.9 L -148.732,-14.54 L -147.853,-13.37 L -147.312,-12.92 L -146.494,-12.41 L -145.693,-12.07 L -145.103,-11.96 L -114.533,-11.76 L -41.023,-13.2 L 5.26,-14.44 L 4.76,-39.69 z M -335.123,96.53 L -335.123,78.92 L -281.834,79.09 L -279.424,79.09 L -276.584,79.12 L -260.793,79.07 L -258.213,79.04 L -245.603,79.09 L -245.123,79.12 L -234.744,79.29 L -233.303,79.32 L -218.533,79.27 L -197.924,79.27 L -173.482,79.55 L -163.594,79.32 L -162.322,78.75 L -161.152,78.02 L -160.594,77.34 L -159.232,11.42 L -159.203,-2.5 L -159.174,-22.41 L -159.232,-23.09 L -159.572,-24.26 L -160.164,-25.19 L -161.013,-25.96 L -170.822,-26.5 L -171.925,-32.33 C -171.925,-32.33 -163.644,-32.82 -163.623,-34 C -163.46,-42.71 -175.029,-68.58 -175.029,-68.58 L -185.49,-96.4 L -187.822,-104.85 L -196.283,-126.07 L -205.273,-149.32 C -206.751,-152.55 -209.63,-164.11 -216.963,-162.78 L -254.623,-165.5 L -290.167,-164.77 L -292.997,-182.41 L -200.963,-179.28 C -200.963,-179.28 3.196,-237.93 16.512,-240.85 C 29.826,-243.77 62.036,-242.25 85.323,-231.77 C 105.324,-222.77 133.178,-200.85 161.844,-197.52 C 188.512,-191.52 301.155,-206.59 301.155,-206.59 C 301.155,-206.59 333.209,-210.48 342.006,-214.11 C 350.806,-217.74 315.585,-247.03 315.585,-247.03 L 346.256,-246.69 C 361.506,-228.19 371.376,-224.33 371.376,-224.33 L 499.756,-224.6 C 499.896,-224.82 500.016,-225.05 500.106,-225.3 C 500.576,-226.7 501.256,-226.99 502.256,-227.94 L 501.516,-229.19 L 481.636,-247.56 L 492.386,-247.69 L 507.006,-230.02 C 507.526,-230.17 511.796,-230.46 512.346,-230.52 C 513.506,-230.56 519.136,-229.06 520.846,-224.88 C 520.986,-224.54 521.276,-224.29 521.466,-223.98 L 605.596,-234.89 L 606.506,-225.19 L 526.916,-216.08 L 525.586,-216.16 C 525.586,-216.16 525.146,-216.24 524.616,-215.43 C 523.886,-214.33 524.156,-212.89 524.826,-211.85 L 564.236,-176.66 L 554.336,-173.76 L 519.366,-205.03 L 515.116,-209.06 C 514.376,-210.17 513.126,-210.73 511.886,-210.62 C 508.856,-210.34 506.076,-211.63 504.266,-213.85 C 504.006,-214.17 503.376,-214.33 503.376,-214.33 L 387.376,-215.08 C 387.376,-215.08 382.806,-214.64 383.376,-207.33 C 383.546,-203.82 396.846,-199.19 403.846,-192.19 C 403.846,-192.19 454.506,-161.19 494.506,-111.19 C 514.656,-86 530.046,-54.16 530.046,-54.16 C 530.046,-54.16 536.716,-43.5 539.376,-38.83 C 542.046,-34.16 548.466,-37.61 548.466,-37.61 L 554.326,-35.91 L 552.766,-30.58 L 551.806,-30.66 L 551.576,-30.69 L 550.446,-30.49 L 549.486,-30.12 L 548.686,-29.64 L 548.066,-28.96 L 547.616,-28.28 L 547.296,-27.57 L 547.046,-26.69 L 547.016,-25.79 L 547.046,-24.99 L 547.296,-24 L 547.756,-22.84 L 567.486,22.18 L 567.876,23 L 568.246,23.71 L 568.386,23.96 L 568.586,24.19 L 568.896,24.56 L 569.186,24.78 L 569.526,24.98 L 569.896,25.18 L 570.086,25.21 L 570.486,25.27 L 570.766,25.32 L 571.086,25.41 L 571.506,25.46 L 572.046,25.52 L 572.696,25.61 L 578.906,26.48 L 581.796,26.88 L 581.656,32.44 L 577.406,31.84 L 576.126,31.76 L 575.786,31.84 L 575.446,31.98 L 575.136,32.12 L 574.856,32.32 L 574.566,32.52 L 574.316,32.78 L 574.086,33.03 L 573.886,33.34 L 573.716,33.66 L 573.606,33.97 L 573.516,34.31 L 573.436,34.65 L 573.436,35.36 L 573.496,35.72 L 573.546,36.07 L 573.716,36.38 L 579.586,49.87 L 579.586,49.95 L 580.716,52.51 L 584.176,60.36 L 584.436,60.87 L 584.776,61.41 L 585.116,61.92 L 585.536,62.4 L 586.026,62.99 L 586.756,63.65 L 587.496,64.24 L 588.006,64.64 L 588.996,65.21 L 590.156,65.77 L 592.626,67.02 L 594.696,68.15 L 596.706,69.54 L 599.056,71.38 L 601.016,73.03 L 603.166,74.96 L 604.556,76.4 L 605.406,77.59 L 606.486,78.61 L 607.706,79.49 L 608.696,79.92 L 609.096,80.09 L 610.486,80.63 L 611.676,80.82 L 613.146,80.91 L 614.876,80.88 L 615.956,80.88 L 759.386,77.34 L 759.386,95.22 L 618.136,98.73 C 618.136,98.73 613.506,98.73 612.346,99.06 C 611.176,99.4 610.736,99.61 610.736,99.61 L 610.286,99.84 L 609.466,100.41 L 608.696,101 L 607.966,101.65 L 607.196,102.47 L 606.406,103.41 L 605.726,104.26 L 605.126,105.11 L 604.616,106.05 L 604.166,106.98 L 603.826,107.86 L 603.566,108.94 L 603.366,110.13 L 603.286,111.52 L 603.456,113.27 L 603.536,114.12 L 604.276,116.42 L 614.796,143.21 L 602.796,143.21 L 592.456,112.29 L 592.176,111.64 L 591.496,110.08 L 590.836,109.03 L 589.876,107.81 L 588.936,106.87 L 587.386,105.88 L 585.656,105.06 C 585.656,105.06 578.636,102.94 575.256,100.87 C 571.876,98.79 569.726,97.03 569.726,97.03 L 548.566,97.72 L 430.586,97.69 C 419.466,97.69 417.626,98.86 416.626,100.58 C 416.146,101.49 415.916,102.43 415.916,103.36 L 410.986,103.28 C 410.986,102.31 410.766,101.38 410.336,100.58 C 409.346,98.71 407.416,97.64 405.406,97.58 L 405.316,97.58 L 392.026,97.61 L 355.486,97.61 L 307.066,97.75 L 303.866,97.75 L 202.327,97.84 C 200.286,97.86 198.507,98.94 197.507,100.58 L 186.173,100.58 C 185.184,98.77 183.315,97.69 181.323,97.64 L 178.996,97.61 L 172.286,97.58 L 172.196,97.58 L 163.808,97.61 L 163.667,97.61 L 137.478,97.55 L 136.337,97.58 L 118.087,97.52 L 116.696,97.52 L 93.596,97.55 L -6.083,97.52 L 2.507,97.52 L -7.072,97.38 L 5.117,97.35 L -2.953,97.3 L -19.033,97.24 C -19.033,97.24 -23.289,97.17 -24.997,99.5 C -26.705,101.84 -26.512,104.44 -26.512,104.44 L -25.362,121.45 C -25.311,123.77 -34.652,121.65 -34.652,121.65 L -34.994,103.9 C -34.994,103.9 -34.873,99.88 -35.955,98.25 C -37.039,96.63 -40.997,97.18 -40.997,97.18 L -154.322,96.98 L -168.123,96.98 L -186.193,96.81 L -186.303,96.81 L -191.353,96.84 L -192.562,96.84 L -335.123,96.53 z M 598.946,86.59 L 598.866,85.24 L 598.626,83.95 L 598.146,82.5 L 597.516,81.18 L 596.686,79.99 L 595.436,78.46 L 594.126,77.24 L 592.806,76.29 L 591.376,75.51 L 589.946,74.96 L 588.516,74.55 L 587.016,74.36 L 585.416,74.33 L 584.106,74.46 L 582.746,74.86 L 581.666,75.26 L 580.766,75.73 L 579.826,76.39 L 578.896,77.22 L 578.166,78.06 L 577.636,78.97 L 577.186,79.9 L 576.796,80.89 L 576.506,81.93 L 576.356,83.1 L 576.386,84.16 L 576.486,85.26 L 576.666,86.23 L 576.946,87.34 L 577.316,88.42 L 577.916,89.52 L 578.466,90.52 L 579.416,91.67 L 580.496,92.8 L 581.426,93.58 L 582.576,94.31 L 583.826,95 L 585.136,95.54 L 586.766,96.06 L 588.266,96.26 L 589.796,96.34 L 591.056,96.14 L 592.586,95.81 L 593.956,95.26 L 595.206,94.46 L 596.256,93.58 L 597.116,92.71 L 597.616,91.85 L 598.146,90.88 L 598.516,89.99 L 598.716,88.9 L 598.966,87.64 L 598.946,86.59 z M 322.26,-0.69 C 308.01,-26.69 308.76,-51.69 308.76,-51.69 L 176.337,-51.27 L 173.017,-51.67 L 175.435,-51.7 L 175.286,-51.7 L 173.017,-51.67 L 161.795,-51.44 L 151.417,-51.19 L 148.587,-51.1 L 147.138,-50.68 L 146.116,-49.91 L 145.238,-48.72 L 143.196,-44.47 L 138.036,-47.33 L 138.888,-48.07 L 139.488,-49.17 L 139.178,-50.11 L 138.206,-50.87 L 135.517,-50.82 L 122.907,-50.51 L 121.625,-50.48 L 90.937,-50.25 C 89.607,-50.22 25.53,-48.12 25.215,-46.89 C 24.26,-43.19 22.01,-41.23 20.01,-40.69 C 20.01,-40.69 23.318,17.27 23.318,19.48 L 23.397,22.09 L 25.157,23.56 L 24.587,27.33 L 23.657,27.99 L 23.346,28.69 L 23.346,29.52 L 23.318,31.95 L 23.318,36.07 L 23.346,44.6 L 23.397,55.68 L 23.418,58.56 L 23.536,59.48 L 23.738,60.05 L 24.227,60.87 L 24.928,61.63 L 25.607,62.09 L 26.438,62.43 L 26.917,62.54 L 29.01,62.6 L 29.26,66.88 L 27.647,66.88 L 26.947,66.93 L 26.068,67.19 L 25.638,67.39 L 25.219,67.64 L 24.647,68.12 L 24.246,68.61 L 23.877,69.23 L 23.688,69.71 L 23.537,70.11 L 23.457,70.87 L 23.428,64.65 L 23.428,68.75 L 23.488,74.56 L 23.428,75.98 L 23.397,76.23 L 23.627,77.31 L 23.688,77.59 L 24.246,78.39 L 24.928,79.09 L 25.28,79.3 L 25.608,79.49 L 25.949,79.61 L 26.438,79.75 L 26.969,79.8 L 26.658,79.8 L 26.996,79.83 L 29.268,79.72 L 116.417,79.8 L 117.746,79.8 L 142.887,79.86 L 160.488,79.92 L 164.286,79.92 L 179.227,79.99 L 179.227,79.97 L 188.946,80.03 L 207.687,80.09 L 305.058,80.09 L 308.058,80.12 L 349.336,80.09 L 351.746,80.12 L 405.346,80.12 C 406.936,80.12 408.326,79.27 409.056,77.96 L 414.386,77.96 C 415.186,79.35 416.596,80.12 418.106,80.14 L 455.236,80.2 C 457.536,79.92 459.436,78.47 460.366,76.52 L 492.706,77.22 C 492.936,78.87 494.266,80.09 495.876,80.2 L 503.846,80.2 L 514.706,80.29 L 525.646,79.89 L 527.716,79.72 L 562.406,79.55 L 564.336,79.21 L 566.096,78.64 L 566.206,78.61 L 566.746,78.36 L 567.226,78.07 L 567.676,77.76 L 568.136,77.45 L 568.846,76.86 L 569.236,76.43 L 569.606,76.03 L 570.206,75.3 L 570.516,74.84 L 570.826,74.39 L 571.086,73.91 L 571.306,73.4 L 571.676,72.52 L 571.846,71.98 L 571.986,71.47 L 572.156,70.53 L 572.216,70.11 L 572.216,69.97 L 572.276,69.43 L 572.276,68.86 L 572.246,68.29 L 572.156,67.39 L 572.046,66.82 L 571.936,66.31 L 571.766,65.74 L 571.566,65.23 L 568.366,57.84 L 560.226,39.21 L 554.586,26.34 L 550.876,17.75 L 531.676,-19.24 L 527.506,-28.76 L 521.386,-39.81 L 512.096,-55.1 L 459.456,-54.59 L 456.736,-54.53 L 455.516,-54.42 L 454.526,-53.79 L 453.566,-52.74 L 453.226,-51.87 L 452.966,-50.73 L 452.996,-49.31 L 453.026,-47.9 L 452.686,-40.02 L 451.636,-32.59 L 450.046,-25.05 L 448.146,-18.56 L 444.666,-9.54 L 444.466,-9.15 L 440.356,-1.24 L 436.476,4.37 L 430.746,10.87 L 422.586,17.41 L 413.166,22.49 L 412.126,22.83 L 410.076,23.71 L 407.896,24.33 L 406.226,24.75 L 405.236,25.01 L 403.986,25.41 L 396.506,26.8 L 387.176,27.5 L 385.446,27.5 L 376.346,27.59 L 373.936,27.62 C 373.936,27.62 336.51,25.31 322.26,-0.69 z M 373.936,21.18 L 387.146,21.07 L 387.236,21.07 L 395.656,20.39 L 402.426,19.14 L 410.646,16.53 L 419.006,12.03 L 426.266,6.19 L 431.396,0.38 L 434.826,-4.58 L 438.766,-12.21 L 438.796,-12.29 L 442.026,-20.63 L 443.786,-26.64 L 445.256,-33.7 L 446.246,-40.61 L 446.566,-48.15 L 446.616,-50.19 L 446.446,-51.58 L 445.426,-53.2 L 444.606,-53.68 L 443.696,-54.08 L 443.746,-54.08 L 443.676,-54.11 L 442.536,-54.28 L 409.036,-53.62 L 316.26,-52.57 C 316.26,-52.57 317.01,-12.69 332.01,2.81 C 347.006,18.31 373.936,21.18 373.936,21.18 z M 9.686,-46.4 C 13.098,-44.56 17.318,-45.78 19.204,-49.14 C 21.035,-52.56 19.815,-56.77 16.455,-58.66 C 13.045,-60.55 8.823,-59.27 6.94,-55.91 C 5.11,-52.56 6.33,-48.26 9.686,-46.4 z M 13.844,-95.52 C 15.01,-85.69 17.51,-68.19 17.51,-68.19 C 17.51,-68.19 22.545,-66.93 22.782,-65.6 C 23.02,-64.28 24.102,-62.73 25.523,-62.62 C 39.01,-62.19 74.51,-62.19 74.51,-62.19 L 399.496,-68.05 L 502.516,-67.85 C 502.516,-67.85 494.016,-84.59 473.176,-110.85 C 447.176,-143.61 377.176,-195.52 377.176,-195.52 C 377.176,-195.52 371.506,-199.5 365.586,-203.13 C 362.296,-205.15 352.216,-204.03 352.216,-204.03 C 352.216,-204.03 217.178,-179.52 160.512,-184.85 C 118.696,-188.79 73.178,-252.19 -11.49,-220.69 C -14.99,-218.69 -11.062,-211.7 -11.062,-211.7 C -11.062,-211.7 9.642,-130.92 13.844,-95.52 z M 509.966,-215.56 C 512.616,-214.59 515.496,-215.98 516.466,-218.59 C 517.396,-221.2 516.046,-224.13 513.436,-225.09 C 510.786,-226.02 507.906,-224.67 506.936,-222.06 C 506.006,-219.41 507.356,-216.53 509.966,-215.56 z M 186.2,129.8 L 186.2,111.1 L 186.258,103.36 C 186.258,103.33 186.258,103.33 186.258,103.31 C 186.258,102.31 186.239,101.38 185.819,100.61 L 197.507,100.58 C 196.978,101.52 198.51,112.84 198.51,132.48 L 186.2,129.8"
           style="fill:#ffffff;fill-opacity:1;fill-rule:nonzero;stroke:none"
           id="path245" />
      </g>
      <text
         style="font-size:11.99760056px"
         y="-3384.1624"
         x="873.11786"
         transform="matrix(0.9997997,-8.5221024e-4,-8.5221024e-4,-1.0001996,0,0)"
         id="text247">
        <tspan
           style="font-size:21.00420761px;font-variant:normal;font-weight:normal;font-stretch:normal;writing-mode:lr-tb;fill:#004982;fill-opacity:1;fill-rule:nonzero;stroke:none;font-family:Helvetica;-inkscape-font-specification:Helvetica"
           x="873.11786"
           y="-3384.1624"
           id="tspan249">H</tspan>
        <tspan
           style="font-size:21.00420761px;font-variant:normal;font-weight:normal;font-stretch:normal;writing-mode:lr-tb;fill:#004982;fill-opacity:1;fill-rule:nonzero;stroke:none;font-family:Helvetica;-inkscape-font-specification:Helvetica"
           x="888.70715 900.8056 911.72778 922.64996 934.74841 939.83142 951.92981 958.18909 970.28754 977.70197"
           y="-3384.1665"
           sodipodi:role="line"
           id="tspan251">áskólatorg</tspan>
      </text>
      <text
         y="-3279.2236"
         x="1250.5699"
         transform="scale(1,-1)"
         id="text253">
        <tspan
           style="font-size:18px;font-variant:normal;font-weight:normal;font-stretch:normal;writing-mode:lr-tb;fill:#080c0c;fill-opacity:1;fill-rule:nonzero;stroke:none;font-family:Helvetica;-inkscape-font-specification:Helvetica"
           x="1250.5699 1262.4679 1272.3679 1287.2719 1301.1678 1315.0638 1320.9679"
           y="-3279.2236"
           sodipodi:role="line"
           id="tspan255">TJÖRNIN</tspan>
      </text>
      <text
         style="font-size:11.99880028px"
         y="-3283.4119"
         x="866.00439"
         transform="scale(1.0001,-0.9999)"
         id="text257">
        <tspan
           style="font-size:21.00209999px;font-variant:normal;font-weight:normal;font-stretch:normal;writing-mode:lr-tb;fill:#004982;fill-opacity:1;fill-rule:nonzero;stroke:none;font-family:Helvetica;-inkscape-font-specification:Helvetica"
           x="866.00439 881.58795 892.50903 897.59155 903.85016 920.60986 932.70703 940.12079 952.21802 964.31525"
           y="-3283.4119"
           sodipodi:role="line"
           id="tspan259">Nýi Garður</tspan>
      </text>
      <text
         style="font-size:11.99880028px"
         y="-3339.3984"
         x="894.31012"
         transform="matrix(1.0000984,1.7712487e-3,1.7617259e-3,-0.9998985,0,0)"
         id="text261">
        <tspan
           style="font-size:21.00213242px;font-variant:normal;font-weight:normal;font-stretch:normal;writing-mode:lr-tb;fill:#004982;fill-opacity:1;fill-rule:nonzero;stroke:none;font-family:Helvetica;-inkscape-font-specification:Helvetica"
           x="894.31012 906.40735 918.50458 930.60181 942.69904 954.79626 962.21002"
           y="-3339.3984"
           sodipodi:role="line"
           id="tspan263">Lögberg</tspan>
      </text>
      <text
         style="font-size:11.99880028px"
         y="-3363.6492"
         x="704.64075"
         transform="matrix(0.9996504,-2.9982796e-2,-2.9987558e-2,-0.9994503,0,0)"
         id="text265">
        <tspan
           style="font-size:21.00204468px;font-variant:normal;font-weight:normal;font-stretch:normal;writing-mode:lr-tb;fill:#004982;fill-opacity:1;fill-rule:nonzero;stroke:none;font-family:Helvetica;-inkscape-font-specification:Helvetica"
           x="704.64075 721.40039 726.48285 744.39764 749.4801"
           y="-3363.6492"
           sodipodi:role="line"
           id="tspan267">Gimli</tspan>
      </text>
      <text
         style="font-size:11.99880028px"
         y="-3399.9617"
         x="692.16022"
         transform="matrix(1.0000996,8.7134112e-4,8.6181826e-4,-0.9998997,0,0)"
         id="text269">
        <tspan
           style="font-size:21.00210762px;font-variant:normal;font-weight:normal;font-stretch:normal;writing-mode:lr-tb;fill:#004982;fill-opacity:1;fill-rule:nonzero;stroke:none;font-family:Helvetica;-inkscape-font-specification:Helvetica"
           x="692.16022 706.58868 714.00238 726.09961 738.19684"
           y="-3399.9617"
           sodipodi:role="line"
           id="tspan271">Árna-</tspan>
        <tspan
           style="font-size:21.00210762px;font-variant:normal;font-weight:normal;font-stretch:normal;writing-mode:lr-tb;fill:#004982;fill-opacity:1;fill-rule:nonzero;stroke:none;font-family:Helvetica;-inkscape-font-specification:Helvetica"
           x="692.16022 704.25745 716.35468 723.76837 735.8656 747.96283"
           y="-3374.759"
           sodipodi:role="line"
           id="tspan273">garður</tspan>
        <tspan
           style="font-size:21.00210762px;font-variant:normal;font-weight:normal;font-stretch:normal;writing-mode:lr-tb;fill:#004982;fill-opacity:1;fill-rule:nonzero;stroke:none;font-family:Helvetica;-inkscape-font-specification:Helvetica"
           x="708.75818 725.51788 737.61505 749.71228"
           y="-3322.1089"
           sodipodi:role="line"
           id="tspan275">Oddi</tspan>
      </text>
      <text
         style="font-size:11.99634457px"
         y="-3426.9507"
         x="747.76501"
         transform="matrix(0.9996935,1.9184595e-3,1.9089386e-3,-1.0003029,0,0)"
         id="text277">
        <tspan
           style="font-size:21.0064373px;font-variant:normal;font-weight:normal;font-stretch:normal;writing-mode:lr-tb;fill:#004982;fill-opacity:1;fill-rule:nonzero;stroke:none;font-family:Helvetica;-inkscape-font-specification:Helvetica"
           x="747.76501 754.0249 766.12463 773.53992 785.63959 791.89954 798.15948 810.25916 822.35889 834.45856"
           y="-3426.9507"
           sodipodi:role="line"
           id="tspan279">Íþróttahús</tspan>
      </text>
      <text
         style="font-size:11.99880028px"
         y="-3422.0459"
         x="1045.5155"
         transform="scale(1.0001,-0.9999)"
         id="text281">
        <tspan
           style="font-size:21.00209999px;font-variant:normal;font-weight:normal;font-stretch:normal;writing-mode:lr-tb;fill:#004982;fill-opacity:1;fill-rule:nonzero;stroke:none;font-family:Helvetica;-inkscape-font-specification:Helvetica"
           x="1045.5155 1059.944 1072.0411 1084.1384 1089.2209 1101.3181 1112.2393 1124.3364 1136.4336 1141.5161 1153.6133"
           y="-3422.0459"
           sodipodi:role="line"
           id="tspan283">Aðalbygging</tspan>
      </text>
      <text
         style="font-size:11.99999905px"
         y="609.07886"
         x="3347.155"
         transform="matrix(2.0007142e-2,0.9997999,0.9997999,-1.9999999e-2,0,0)"
         id="text285">
        <tspan
           style="font-size:14px;font-variant:normal;font-weight:normal;font-stretch:normal;writing-mode:lr-tb;fill:#080c0c;fill-opacity:1;fill-rule:nonzero;stroke:none;font-family:Helvetica;-inkscape-font-specification:Helvetica"
           x="3347.155 3356.675 3365.4111 3375.7009 3385.991 3393.957 3404.2471 3415.321 3424.8411 3433.5769"
           y="609.07886"
           sodipodi:role="line"
           id="tspan287">STURLUGATA</tspan>
      </text>
      <text
         style="font-size:11.9470129px"
         y="-3348.0537"
         x="307.17474"
         transform="matrix(1.0044346,1.1250097e-3,1.105098e-3,-0.9955838,0,0)"
         id="text289">
        <tspan
           style="font-size:20.08871651px;font-variant:normal;font-weight:normal;font-stretch:normal;writing-mode:lr-tb;fill:#080c0c;fill-opacity:1;fill-rule:nonzero;stroke:none;font-family:Helvetica;-inkscape-font-specification:Helvetica"
           x="307.17474 320.97568"
           y="-3348.0537"
           sodipodi:role="line"
           id="tspan291">St</tspan>
        <tspan
           style="font-size:20.08871651px;font-variant:normal;font-weight:normal;font-stretch:normal;writing-mode:lr-tb;fill:#080c0c;fill-opacity:1;fill-rule:nonzero;stroke:none;font-family:Helvetica;-inkscape-font-specification:Helvetica"
           x="326.9581 338.52921 350.10031 361.67142 373.24249 379.22894 390.80005"
           y="-3348.0618"
           sodipodi:role="line"
           id="tspan293">údenta-</tspan>
        <tspan
           style="font-size:20.08871651px;font-variant:normal;font-weight:normal;font-stretch:normal;writing-mode:lr-tb;fill:#080c0c;fill-opacity:1;fill-rule:nonzero;stroke:none;font-family:Helvetica;-inkscape-font-specification:Helvetica"
           x="307.17474 318.74585 330.31696 337.40826 348.97937 360.55045"
           y="-3323.9473"
           sodipodi:role="line"
           id="tspan295">garðar</tspan>
      </text>
      <text
         style="font-size:11.99880028px"
         y="-3248.4385"
         x="755.55255"
         transform="scale(1.0001,-0.9999)"
         id="text297">
        <tspan
           style="font-size:16.00160027px;font-variant:normal;font-weight:normal;font-stretch:normal;writing-mode:lr-tb;fill:#080c0c;fill-opacity:1;fill-rule:nonzero;stroke:none;font-family:Helvetica;-inkscape-font-specification:Helvetica"
           x="755.55255 767.10571 776.00256 781.33112 786.65967 800.88507 809.78198 818.67883 823.12726 832.02417 840.92108 848.92188 852.47424"
           y="-3248.4385"
           sodipodi:role="line"
           id="tspan299">Norræna húsið</tspan>
      </text>
      <text
         y="-3209.2336"
         x="717.44202"
         transform="scale(1,-1)"
         id="text301">
        <tspan
           style="font-size:21px;font-variant:normal;font-weight:normal;font-stretch:normal;writing-mode:lr-tb;fill:#004982;fill-opacity:1;fill-rule:nonzero;stroke:none;font-family:Helvetica;-inkscape-font-specification:Helvetica"
           x="717.44202 731.974 742.99902 754.02399 759.211"
           y="-3209.2336"
           sodipodi:role="line"
           id="tspan303">Askja</tspan>
        <tspan
           style="font-size:21px;font-variant:normal;font-weight:normal;font-stretch:normal;writing-mode:lr-tb;fill:#004982;fill-opacity:1;fill-rule:nonzero;stroke:none;font-family:Helvetica;-inkscape-font-specification:Helvetica"
           x="717.44202 733.12903 745.33002 751.69299 758.05597 770.25702 777.77502 789.97601 796.33899 803.85699 823.05103 835.25201 840.43903 852.64001 864.841"
           y="-3184.0337"
           sodipodi:role="line"
           id="tspan305">Náttúrufræðihús</tspan>
      </text>
      <text
         style="font-size:11.99945736px"
         y="-3375.5361"
         x="1090.2705"
         transform="scale(1.0000453,-0.9999547)"
         id="text307">
        <tspan
           style="font-size:21.00094986px;font-variant:normal;font-weight:normal;font-stretch:normal;writing-mode:lr-tb;fill:#004982;fill-opacity:1;fill-rule:nonzero;stroke:none;font-family:Helvetica;-inkscape-font-specification:Helvetica"
           x="1090.2705 1104.6982 1116.7948 1123.0531 1135.1495 1147.2461 1154.6594"
           y="-3375.5361"
           sodipodi:role="line"
           id="tspan309">Setberg</tspan>
      </text>
      <text
         style="font-size:11.99946308px"
         y="-3413.8164"
         x="1221.7153"
         transform="scale(1.0000448,-0.9999552)"
         id="text311">
        <tspan
           style="font-size:19.00084877px;font-variant:normal;font-weight:normal;font-stretch:normal;writing-mode:lr-tb;fill:#080c0c;fill-opacity:1;fill-rule:nonzero;stroke:none;font-family:Helvetica;-inkscape-font-specification:Helvetica"
           x="1221.7153 1234.3889 1238.6071 1249.1715 1259.736 1275.5637 1279.7819 1290.3464 1294.5646 1305.129 1314.6295 1325.194 1330.4762"
           y="-3413.8164"
           sodipodi:role="line"
           id="tspan313">Þjóðminjasafn</tspan>
      </text>
      <text
         style="font-size:11.99167252px"
         y="-3285.5317"
         x="523.82654"
         transform="scale(0.999306,-1.0006945)"
         id="text315">
        <tspan
           style="font-size:19.01319504px;font-variant:normal;font-weight:normal;font-stretch:normal;writing-mode:lr-tb;fill:#080c0c;fill-opacity:1;fill-rule:nonzero;stroke:none;font-family:Helvetica;-inkscape-font-specification:Helvetica"
           x="523.82654 529.11218 538.61877 542.83972 553.41107 563.98242 573.48901"
           y="-3285.5317"
           sodipodi:role="line"
           id="tspan317">Íslensk</tspan>
      </text>
      <text
         style="font-size:11.99880028px"
         y="-3273.2209"
         x="523.40863"
         transform="scale(1.0001,-0.9999)"
         id="text319">
        <tspan
           style="font-size:19.00189972px;font-variant:normal;font-weight:normal;font-stretch:normal;writing-mode:lr-tb;fill:#080c0c;fill-opacity:1;fill-rule:nonzero;stroke:none;font-family:Helvetica;-inkscape-font-specification:Helvetica"
           x="523.40863 533.97369 540.30133 545.58386 556.14893 566.71399 577.27905 583.60669 594.17175 598.39014 608.9552 613.17365 623.73871"
           y="-3273.2209"
           sodipodi:role="line"
           id="tspan321">erfðagreining</tspan>
      </text>
      <text
         style="font-size:11.96875572px"
         y="-3435.9939"
         x="953.33417"
         transform="scale(0.9973963,-1.0026105)"
         id="text323">
        <tspan
           style="font-size:18.04698944px;font-variant:normal;font-weight:normal;font-stretch:normal;writing-mode:lr-tb;fill:#080c0c;fill-opacity:1;fill-rule:nonzero;stroke:none;font-family:Helvetica;-inkscape-font-specification:Helvetica"
           x="953.33417 965.37152 978.40143 991.4314 1004.4613 1017.4912 1031.5317 1043.5691 1054.5958"
           y="-3435.9939"
           sodipodi:role="line"
           id="tspan325">SUÐURGATA</tspan>
      </text>
      <text
         style="font-size:11.98458195px"
         y="-1786.9465"
         x="2788.5225"
         transform="matrix(0.7773729,0.6392966,0.6310832,-0.7673932,0,0)"
         id="text327">
        <tspan
           style="font-size:18.11678696px;font-variant:normal;font-weight:normal;font-stretch:normal;writing-mode:lr-tb;fill:#080c0c;fill-opacity:1;fill-rule:nonzero;stroke:none;font-family:Helvetica;-inkscape-font-specification:Helvetica"
           x="2788.5225 2802.5088 2816.4949 2822.437 2836.4233 2851.4241 2864.4138 2878.3999 2891.3896 2905.3757"
           y="-1786.9465"
           sodipodi:role="line"
           id="tspan329">HRINGBRAUT</tspan>
      </text>
      <text
         style="font-size:11.7327919px"
         y="-3251.5149"
         x="884.94189"
         transform="matrix(0.9772551,-2.9309448e-2,-3.0672805e-2,-1.0223544,0,0)"
         id="text331">
        <tspan
           style="font-size:18.41044426px;font-variant:normal;font-weight:normal;font-stretch:normal;writing-mode:lr-tb;fill:#080c0c;fill-opacity:1;fill-rule:nonzero;stroke:none;font-family:Helvetica;-inkscape-font-specification:Helvetica"
           x="884.94189 897.22162 915.63208 930.96796 944.26031 957.55267 970.84503 983.12476 996.41711 1010.7405 1023.0202 1034.269"
           y="-3251.5149"
           sodipodi:role="line"
           id="tspan333">SÆMUNDARGATA</tspan>
      </text>
      <text
         style="font-size:11.90223694px"
         y="8.8375549"
         x="3199.7229"
         transform="matrix(0.2001591,0.9888517,0.9714709,-0.1966404,0,0)"
         id="text335">
        <tspan
           style="font-size:14.1247673px;font-variant:normal;font-weight:normal;font-stretch:normal;writing-mode:lr-tb;fill:#080c0c;fill-opacity:1;fill-rule:nonzero;stroke:none;font-family:Helvetica;-inkscape-font-specification:Helvetica"
           x="3199.7229 3209.3418 3218.1697 3228.5657 3238.9614 3247.0125 3257.4084 3268.5952 3278.2141 3287.0422"
           y="8.8375549"
           sodipodi:role="line"
           id="tspan337">STURLUGATA</tspan>
      </text>
      <text
         style="font-size:11.91397953px"
         y="-3199.0449"
         x="-540.79413"
         transform="matrix(0.9593358,-0.312358,-0.3068669,-0.9424726,0,0)"
         id="text339">
        <tspan
           style="font-size:15.13359642px;font-variant:normal;font-weight:normal;font-stretch:normal;writing-mode:lr-tb;fill:#080c0c;fill-opacity:1;fill-rule:nonzero;stroke:none;font-family:Helvetica;-inkscape-font-specification:Helvetica"
           x="-540.79413 -529.65576 -521.87714 -511.57114 -500.4328 -489.29449 -478.98849 -467.85019 -455.86438 -445.55841 -436.09988"
           y="-3199.0449"
           sodipodi:role="line"
           id="tspan341">NJARÐARGATA</tspan>
      </text>
      <text
         style="font-size:11.89692879px"
         y="-3275.78"
         x="483.18634"
         transform="matrix(1.0019369,-0.1183716,-0.1162968,-0.9843272,0,0)"
         id="text343">
        <tspan
           style="font-size:15.13368797px;font-variant:normal;font-weight:normal;font-stretch:normal;writing-mode:lr-tb;fill:#080c0c;fill-opacity:1;fill-rule:nonzero;stroke:none;font-family:Helvetica;-inkscape-font-specification:Helvetica"
           x="483.18634 494.32474 502.10345 512.40948 523.54791 534.68628 544.99231 556.13074 568.11658 578.42267 587.88123"
           y="-3275.78"
           sodipodi:role="line"
           id="tspan345">NJARÐARGATA</tspan>
      </text>
      <text
         style="font-size:11.97071743px"
         y="-721.84088"
         x="3148.8381"
         transform="matrix(0.3603735,0.9363318,0.9302019,-0.3580241,0,0)"
         id="text347">
        <tspan
           style="font-size:14.04598331px;font-variant:normal;font-weight:normal;font-stretch:normal;writing-mode:lr-tb;fill:#080c0c;fill-opacity:1;fill-rule:nonzero;stroke:none;font-family:Helvetica;-inkscape-font-specification:Helvetica"
           x="3148.8381 3158.2769 3169.2749 3180.2729 3189.7119 3199.9233 3208.5757 3218.0144 3229.0125 3238.4514 3247.1038"
           y="-721.84088"
           sodipodi:role="line"
           id="tspan349">EGGERTSGATA</tspan>
      </text>
      <text
         style="font-size:11.96064281px"
         y="-3407.9463"
         x="513.12524"
         transform="matrix(1.0032411,-1.0024152e-2,-9.9671963e-3,-0.9966698,0,0)"
         id="text351">
        <tspan
           style="font-size:14.04607677px;font-variant:normal;font-weight:normal;font-stretch:normal;writing-mode:lr-tb;fill:#080c0c;fill-opacity:1;fill-rule:nonzero;stroke:none;font-family:Helvetica;-inkscape-font-specification:Helvetica"
           x="513.12524 522.56421 532.7757 542.21466 553.21277 562.65173 571.30408"
           y="-3407.9463"
           sodipodi:role="line"
           id="tspan353">ARAGATA</tspan>
        <tspan
           style="font-size:14.04607677px;font-variant:normal;font-weight:normal;font-stretch:normal;writing-mode:lr-tb;fill:#080c0c;fill-opacity:1;fill-rule:nonzero;stroke:none;font-family:Helvetica;-inkscape-font-specification:Helvetica"
           x="513.50171 524.49976 534.71124 544.92279 554.36176 565.3598 574.79877 583.45117"
           y="-3369.9939"
           sodipodi:role="line"
           id="tspan355">ODDAGATA</tspan>
      </text>
      <g
         id="g357"
         transform="translate(863.416,3316.463)">
        <path
           d="M 0,0 L 8.668,-19.34"
           style="fill:none;stroke:#0c5393;stroke-width:1;stroke-linecap:butt;stroke-linejoin:miter;stroke-miterlimit:4;stroke-dasharray:4, 4;stroke-dashoffset:0;stroke-opacity:1"
           id="path359" />
      </g>
    </g>
  </g>
</svg>
