<?xml version="1.0" encoding="UTF-8" standalone="no"?>
<!-- Created with Inkscape (http://www.inkscape.org/) -->
<svg
   xmlns:dc="http://purl.org/dc/elements/1.1/"
   xmlns:cc="http://creativecommons.org/ns#"
   xmlns:rdf="http://www.w3.org/1999/02/22-rdf-syntax-ns#"
   xmlns:svg="http://www.w3.org/2000/svg"
   xmlns="http://www.w3.org/2000/svg"
   xmlns:sodipodi="http://sodipodi.sourceforge.net/DTD/sodipodi-0.dtd"
   xmlns:inkscape="http://www.inkscape.org/namespaces/inkscape"
   width="744.09448819"
   height="1052.3622047"
   id="svg8409"
   sodipodi:version="0.32"
   inkscape:version="0.46"
   sodipodi:docname="Vesturbær.svg"
   inkscape:output_extension="org.inkscape.output.svg.inkscape">
  <defs
     id="defs8411">
    <inkscape:perspective
       sodipodi:type="inkscape:persp3d"
       inkscape:vp_x="0 : 526.18109 : 1"
       inkscape:vp_y="0 : 1000 : 0"
       inkscape:vp_z="744.09448 : 526.18109 : 1"
       inkscape:persp3d-origin="372.04724 : 350.78739 : 1"
       id="perspective8417" />
  </defs>
  <sodipodi:namedview
     id="base"
     pagecolor="#ffffff"
     bordercolor="#666666"
     borderopacity="1.0"
     gridtolerance="10000"
     guidetolerance="10"
     objecttolerance="10"
     inkscape:pageopacity="0.0"
     inkscape:pageshadow="2"
     inkscape:zoom="0.35"
     inkscape:cx="375"
     inkscape:cy="520"
     inkscape:document-units="px"
     inkscape:current-layer="layer1"
     showgrid="false"
     inkscape:window-width="1278"
     inkscape:window-height="1022"
     inkscape:window-x="0"
     inkscape:window-y="0" />
  <metadata
     id="metadata8414">
    <rdf:RDF>
      <cc:Work
         rdf:about="">
        <dc:format>image/svg+xml</dc:format>
        <dc:type
           rdf:resource="http://purl.org/dc/dcmitype/StillImage" />
      </cc:Work>
    </rdf:RDF>
  </metadata>
  <g
     inkscape:label="Layer 1"
     inkscape:groupmode="layer"
     id="layer1">
    <g
       transform="matrix(1.25,0,0,-1.25,-452.7525,5527.8072)"
       id="g6731">
      <g
         id="g839"
         transform="translate(1065.92,3851.725)">
        <path
           d="M 0,0 L -805.417,12 L -807.436,289.262 L -2.02,289.262 L 0,0"
           style="fill:#c4cfd0;fill-opacity:1;fill-rule:evenodd;stroke:none"
           id="path841" />
      </g>
      <g
         id="g847"
         transform="translate(676.89,4025.376)">
        <path
           d="M 0,0 C 0,-13.669 -15.559,-24.75 -34.75,-24.75 C -53.942,-24.75 -69.5,-13.669 -69.5,0 C -69.5,13.669 -53.942,24.75 -34.75,24.75 C -15.559,24.75 0,13.669 0,0 z"
           style="fill:none;stroke:#ffffff;stroke-width:15;stroke-linecap:butt;stroke-linejoin:miter;stroke-miterlimit:4;stroke-dasharray:none;stroke-opacity:1"
           id="path849" />
      </g>
      <g
         id="g851"
         transform="translate(769.229,3996.824)">
        <path
           d="M 0,0 L 0.709,1.699 L 1.559,2.889 L 2.43,3.679 L 3.059,4.049 L 3.94,4.25 L -7.089,5.92 L -7.71,6.04 L -7.771,5.839 L -6.83,5.469 L -6.21,4.929 L -5.5,4.139 L -4.82,3.23 L -4.451,2.24 L -4.31,1.33 L -4.31,1.25 L -4.281,-10.29 L -4.281,-15.25 L 1.071,-15.221 L 0.68,-15.051 L 0.28,-14.77 L 0.081,-14.46 L 0.02,-9.21 L 0.219,-8.901 L 0.559,-8.59 L 0.85,-8.42 L 1.299,-8.281 L 1.75,-8.25 L 1.75,-3.971 L 1.5,-4 L 0.93,-3.83 L 0.54,-3.6 L 0.338,-3.35 L -0.06,-2.721 L -0.06,-2.58 L 0,0"
           style="fill:#ffffff;fill-opacity:1;fill-rule:evenodd;stroke:none"
           id="path853" />
      </g>
      <g
         id="g855"
         transform="translate(696.979,3921.285)">
        <path
           d="M 0,0 L -5.191,0.02"
           style="fill:#ffffff;fill-opacity:1;fill-rule:evenodd;stroke:none"
           id="path857" />
      </g>
      <g
         id="g859"
         transform="translate(590.798,3929.814)">
        <path
           d="M 0,0 L 0.06,-4.401"
           style="fill:#ffffff;fill-opacity:1;fill-rule:evenodd;stroke:none"
           id="path861" />
      </g>
      <g
         id="g863"
         transform="translate(377.699,3941.424)">
        <path
           d="M 0,0 L -0.03,5.821 L -0.03,14.211 L 30.67,14.09 L 30.7,7.861 L 29.481,7.861 L 29.481,6.131 L 30.7,6.131 L 30.67,0.09 L 20.97,0.09 L 20.941,1.141 L 18.87,1.141 L 18.87,0.031 L 0,0"
           style="fill:#0c5393;fill-opacity:1;fill-rule:nonzero;stroke:none"
           id="path865" />
      </g>
      <g
         id="g867"
         transform="translate(669.583,4082.101)">
        <path
           d="M 0,0 L -6.533,-1.41 L -15.959,-3.407 L -21.412,23.018 L -14.42,24.525 L -14.198,23.478 L -12.255,23.889 L -12.479,24.937 L -5.687,26.349 L -3.92,18.008 L -5.096,17.733 L -4.718,15.954 L -3.471,16.217 L 0,0"
           style="fill:#0c5393;fill-opacity:1;fill-rule:nonzero;stroke:none"
           id="path869" />
      </g>
      <g
         id="g871"
         transform="translate(759.829,4089.371)">
        <path
           d="M 0,0 L -0.836,5.759 L -1.996,14.07 L 28.425,18.198 L 29.317,12.032 L 28.109,11.864 L 28.348,10.15 L 29.557,10.32 L 30.363,4.333 L 20.756,2.99 L 20.582,4.026 L 18.531,3.74 L 18.686,2.64 L 0,0"
           style="fill:#0c5393;fill-opacity:1;fill-rule:nonzero;stroke:none"
           id="path873" />
      </g>
      <g
         id="g875"
         transform="translate(459.06,4001.374)">
        <path
           d="M 0,0 L -0.051,15.22 L -0.051,17.46 L -0.081,19.67 L 8.959,19.73 L 9.048,-10.86 L 0.058,-10.919 L 0,0 z"
           style="fill:none;stroke:#080c0c;stroke-width:1;stroke-linecap:butt;stroke-linejoin:miter;stroke-miterlimit:3;stroke-dasharray:none;stroke-opacity:1"
           id="path877" />
        <g
           id="g879"
           transform="translate(-26.231,6.72)">
          <path
             d="M 0,0 L 0.91,0 L 0.969,-12.619 L -3.201,-12.65 L -3.201,-13.33 L -3.17,-13.349 L -3.121,-13.38 L -3.09,-13.41 L -3.031,-13.439 L -3,-13.5 L -2.971,-13.519 L -2.951,-13.55 L -2.891,-13.58 L -2.801,-13.67 L -2.75,-13.72 L -2.75,-13.75 L -2.689,-13.779 L -2.689,-13.84 L -2.631,-13.869 L -2.6,-13.889 L -2.6,-13.92 L -2.551,-13.979 L -2.519,-14.039 L -2.49,-14.059 L -2.461,-14.09 L -2.43,-14.119 L -2.41,-14.18 L -2.381,-14.229 L -2.35,-14.26 L -2.35,-14.289 L -2.32,-14.349 L -2.291,-14.38 L -2.291,-14.459 L -2.26,-14.49 L -2.24,-14.519 L -2.211,-14.57 L -2.211,-14.66 L -2.15,-14.72 L -2.15,-14.8 L -2.121,-14.83 L -2.121,-14.889 L -2.09,-14.91 L -2.09,-15.029 L -2.07,-15.08 L -2.07,-15.17 L -2.041,-15.229 L -2.041,-15.449 L -2.01,-15.51 L -2.01,-15.619 L -2.041,-15.65 L -2.041,-15.74 L -2.01,-15.789 L -2.01,-15.849 L -2.041,-15.91 L -2.041,-15.99 L -2.07,-16.05 L -2.07,-16.13 L -2.09,-16.189 L -2.09,-16.22 L -2.121,-16.269 L -2.121,-16.33 L -2.15,-16.359 L -2.121,-16.42 L -2.15,-16.439 L -2.15,-16.5 L -2.18,-16.529 L -2.211,-16.609 L -2.211,-16.639 L -2.24,-16.699 L -2.26,-16.729 L -2.291,-16.779 L -2.291,-16.809 L -2.32,-16.869 L -2.35,-16.9 L -2.381,-16.949 L -2.41,-16.979 L -2.43,-17.039 L -2.43,-17.07 L -2.461,-17.119 L -2.49,-17.15 L -2.519,-17.209 L -2.551,-17.209 L -2.58,-17.269 L -2.6,-17.3 L -2.631,-17.349 L -2.66,-17.38 L -2.689,-17.439 L -2.721,-17.439 L -2.75,-17.49 L -2.781,-17.519 L -2.83,-17.55 L -2.859,-17.609 L -2.891,-17.639 L -2.951,-17.66 L -2.971,-17.689 L -3,-17.72 L -3.031,-17.75 L -3.06,-17.779 L -3.121,-17.809 L -3.17,-17.83 L -3.201,-17.889 L -3.23,-17.889 L -3.291,-17.92 L -3.31,-17.949 L -3.371,-17.979 L -3.4,-18 L -3.461,-18.029 L -3.48,-18.029 L -3.51,-18.059 L -3.6,-18.09 L -3.631,-18.119 L -3.65,-18.15 L -3.74,-18.15 L -3.801,-18.17 L -3.85,-18.199 L -3.91,-18.199 L -3.939,-18.229 L -3.971,-18.26 L -4.019,-18.26 L -4.051,-18.289 L -4.08,-19 L -5.471,-19.019 L -5.471,-18.289 L -5.519,-18.26 L -5.58,-18.26 L -5.641,-18.229 L -5.67,-18.229 L -5.721,-18.199 L -5.781,-18.199 L -5.81,-18.17 L -5.84,-18.15 L -5.92,-18.15 L -5.98,-18.09 L -6.031,-18.09 L -6.09,-18.059 L -6.121,-18.029 L -6.15,-18.029 L -6.201,-18 L -6.23,-17.979 L -6.26,-17.949 L -6.32,-17.92 L -6.35,-17.889 L -6.4,-17.859 L -6.43,-17.83 L -6.49,-17.809 L -6.519,-17.779 L -6.551,-17.75 L -6.6,-17.72 L -6.631,-17.66 L -6.66,-17.639 L -6.689,-17.609 L -6.721,-17.58 L -6.769,-17.55 L -6.83,-17.49 L -6.83,-17.47 L -6.891,-17.439 L -6.891,-17.41 L -6.91,-17.349 L -6.971,-17.32 L -6.971,-17.3 L -7.031,-17.24 L -7.06,-17.209 L -7.08,-17.15 L -7.08,-17.119 L -7.109,-17.099 L -7.141,-17.039 L -7.17,-16.979 L -7.201,-16.949 L -7.23,-16.9 L -7.23,-16.869 L -7.25,-16.84 L -7.281,-16.779 L -7.31,-16.729 L -7.34,-16.699 L -7.371,-16.67 L -7.371,-16.59 L -7.4,-16.5 L -7.42,-16.47 L -7.42,-16.389 L -7.451,-16.33 L -7.451,-16.3 L -7.48,-16.25 L -7.48,-16.189 L -7.51,-16.16 L -7.51,-16.05 L -7.541,-15.99 L -7.541,-15.709 L -7.57,-15.65 L -7.57,-15.619 L -7.541,-15.57 L -7.541,-15.479 L -7.57,-15.42 L -7.57,-15.4 L -7.541,-15.309 L -7.541,-15.199 L -7.51,-15.139 L -7.51,-15.109 L -7.48,-15.059 L -7.48,-14.97 L -7.451,-14.91 L -7.451,-14.8 L -7.42,-14.74 L -7.42,-14.72 L -7.4,-14.66 L -7.4,-14.63 L -7.371,-14.599 L -7.34,-14.55 L -7.31,-14.49 L -7.31,-14.459 L -7.281,-14.4 L -7.25,-14.349 L -7.23,-14.32 L -7.23,-14.289 L -7.201,-14.229 L -7.17,-14.18 L -7.141,-14.15 L -7.109,-14.119 L -7.08,-14.059 L -7.06,-14.039 L -7.031,-13.979 L -7,-13.949 L -6.971,-13.889 L -6.939,-13.889 L -6.91,-13.84 L -6.891,-13.809 L -6.859,-13.75 L -6.83,-13.75 L -6.801,-13.699 L -6.769,-13.67 L -6.721,-13.639 L -6.689,-13.58 L -6.66,-13.58 L -6.6,-13.519 L -6.57,-13.5 L -6.551,-13.47 L -6.519,-13.439 L -6.49,-13.41 L -6.43,-13.38 L -6.381,-13.349 L -6.381,-12.65 L -18.14,-12.67 L -18.2,-0.09 L -17.26,-0.059 L -17.29,1.87 L 0,1.92 L 0,0 z"
             style="fill:none;stroke:#080c0c;stroke-width:1;stroke-linecap:butt;stroke-linejoin:miter;stroke-miterlimit:3;stroke-dasharray:none;stroke-opacity:1"
             id="path881" />
        </g>
      </g>
      <g
         id="g883"
         transform="translate(382.339,3979.083)">
        <path
           d="M 0,0 L 0,-1.42 L -1.84,-1.42 L -1.81,0 L -30.721,-0.029 L -30.721,-0.769 L -30.75,-0.859 L -30.75,-0.969 L -30.779,-1 L -30.779,-1.049 L -30.811,-1.109 L -30.811,-1.14 L -30.84,-1.199 L -30.869,-1.219 L -30.869,-1.25 L -30.891,-1.31 L -30.92,-1.37 L -30.949,-1.39 L -30.981,-1.449 L -31.01,-1.449 L -31.01,-1.48 L -31.041,-1.54 L -31.119,-1.62 L -31.151,-1.65 L -31.18,-1.679 L -31.231,-1.71 L -31.26,-1.73 L -31.32,-1.759 L -31.35,-1.79 L -31.381,-1.82 L -31.43,-1.849 L -31.461,-1.879 L -31.551,-1.879 L -31.6,-1.9 L -31.631,-1.929 L -31.69,-1.929 L -31.721,-1.96 L -31.77,-1.96 L -31.801,-1.99 L -32.26,-1.99 L -32.279,-1.96 L -32.369,-1.96 L -32.43,-1.929 L -32.449,-1.929 L -32.51,-1.9 L -32.57,-1.879 L -32.6,-1.879 L -32.619,-1.849 L -32.68,-1.82 L -32.791,-1.82 L -32.82,-1.73 L -32.881,-1.71 L -32.91,-1.679 L -32.94,-1.679 L -32.99,-1.62 L -33.02,-1.589 L -33.02,-1.54 L -33.08,-1.509 L -33.11,-1.48 L -33.11,-1.449 L -33.131,-1.39 L -33.16,-1.37 L -33.19,-1.31 L -33.19,-1.279 L -33.221,-1.25 L -33.25,-1.199 L -33.279,-1.17 L -33.279,-1.029 L -33.301,-1 L -33.301,-0.879 L -33.33,-0.859 L -33.33,-0.689 L -33.36,6.911 L -30.949,6.94 L -30.981,12.641 L 11.599,12.75 L 11.599,6.661 L 10.58,6.661 L 10.599,4.811 L 11.599,4.811 L 11.631,0.02"
           style="fill:#0c5393;fill-opacity:1;fill-rule:nonzero;stroke:none"
           id="path885" />
      </g>
      <g
         id="g887"
         transform="translate(414.72,3989.043)">
        <path
           d="M 0,0 L 2.888,0 L 12.5,0.05 L 24.92,0.05 L 25.738,0.08 L 25.769,-0.77 L 25.789,-17.069 L 24.968,-17.069 L 12.558,-17.12 L 2.949,-17.149 L 0.029,-17.149 L 0,0 z"
           style="fill:none;stroke:#080c0c;stroke-width:1;stroke-linecap:butt;stroke-linejoin:miter;stroke-miterlimit:3;stroke-dasharray:none;stroke-opacity:1"
           id="path889" />
        <g
           id="g891"
           transform="translate(55.478,-86.53)">
          <path
             d="M 0,0 L 12.16,-0.229 L 12.301,7 L 11.481,7.03 L 11.481,7.34 L 10.942,7.34 L 10.971,8.25 L 8.221,8.301 L 8.19,7.061 L 0.141,7.2 L 0,0 z"
             style="fill:none;stroke:#080c0c;stroke-width:1;stroke-linecap:butt;stroke-linejoin:miter;stroke-miterlimit:3;stroke-dasharray:none;stroke-opacity:1"
             id="path893" />
          <g
             id="g895"
             transform="translate(165.67,59.56)">
            <path
               d="M 0,0 L -21.808,0.19 L -21.808,2.041 L -24.639,2.01 L -24.619,0.19 L -24.59,-9.419 L 35.762,-9.36 L 35.772,-30.419 L 46.74,-30.39 L 46.651,18.28 L 35.772,18.251 L 35.772,7.05 L 35.231,7.03 L 35.201,7.85 L 33.272,7.791 L 33.272,7.05 L 31.211,7.03 L 31.211,7.901 L 29.16,7.881 L 29.16,6.911 L 27.121,6.881 L 27.121,7.76 L 24.971,7.76 L 25,6.94 L 24.32,6.94 L 23.781,8.071 L 23.012,9.211 L 22.02,10.171 L 21.99,10.231 L 20.551,11.251 L 18.932,11.821 L 17.17,12.161 L 14.99,11.961 L 13.381,11.421 L 11.791,10.571 L 10.291,9.461 L 9.949,9.12 L 4.871,13.43 L 2.121,10.8 L 5.887,6.75 L 6.602,5.84 L 6.432,5.69 L 5.35,4.731 L 4.16,4.22 L 1.981,3.401 L 0.051,2.921 L 0,0 z"
               style="fill:none;stroke:#080c0c;stroke-width:1;stroke-linecap:butt;stroke-linejoin:miter;stroke-miterlimit:3;stroke-dasharray:none;stroke-opacity:1"
               id="path897" />
          </g>
        </g>
      </g>
      <g
         id="g899"
         transform="translate(420.669,3922.905)">
        <path
           d="M 0,0 L 2.21,0.019 L 2.21,0.759 L 4.73,0.789 L 4.76,0.019 L 9.49,-0.031 L 9.471,0.789 L 11.93,0.849 L 11.959,0 L 14.23,0.05 L 14.26,-15.37 L 0.03,-15.37 L 0.03,-18.37 L -21.399,-18.43 L -21.399,-15.59 L -23.699,-15.62 L -23.699,-17.781 L -26.14,-17.75 L -26.14,-15.62 L -30.76,-15.651 L -30.819,-8.311 L -21.461,-8.311 L -21.461,-3.071 L 0.03,-3.01 L 0,0"
           style="fill:#0c5393;fill-opacity:1;fill-rule:nonzero;stroke:none"
           id="path901" />
      </g>
      <g
         id="g903"
         transform="translate(815.8,3935.705)">
        <path
           d="M 0,0 L 5.439,0 L 5.439,-4.621 L 6.658,-4.621 L 6.629,-5.161 L 10.26,-5.161 L 10.26,-4.621 L 11.478,-4.621 L 11.449,0 L 25.908,0.059 L 25.908,-4.59 L 27.099,-4.59 L 27.099,-5.13 L 30.699,-5.101 L 30.728,-4.56 L 31.888,-4.56 L 31.92,0.059 L 37.357,0.089 L 37.279,32.629 L 31.83,32.629 L 31.83,37.28 L 30.607,37.25 L 30.607,37.79 L 27.01,37.79 L 27.01,37.25 L 25.799,37.219 L 25.818,32.629 L 11.369,32.569 L 11.369,37.19 L 10.148,37.219 L 10.179,37.759 L 6.549,37.729 L 6.549,37.19 L 5.359,37.19 L 5.388,32.569 L -0.092,32.569 L -0.061,11.459 L -0.031,10.52 L -6.092,10.549 L -6.092,13.27 L -7.91,13.239 L -7.91,12.79 L -14.541,12.759 L -14.541,10.44 L -15.932,10.44 L -15.901,7.629 L -14.541,7.629 L -14.512,5.28 L -7.881,5.299 L -7.881,4.819 L -6.092,4.819 L -6.071,6.639 L -6.092,7.94 L -0.031,7.91 L -0.031,6.669 L 0,0 z"
           style="fill:none;stroke:#080c0c;stroke-width:1;stroke-linecap:butt;stroke-linejoin:miter;stroke-miterlimit:3;stroke-dasharray:none;stroke-opacity:1"
           id="path905" />
      </g>
      <g
         id="g907"
         transform="translate(799.899,3943.333)">
        <path
           d="M 0,0 L -0.431,-0.029 L -0.431,0.201 L -0.031,0.201"
           style="fill:none;stroke:#080c0c;stroke-width:0.03;stroke-linecap:butt;stroke-linejoin:miter;stroke-miterlimit:3;stroke-dasharray:none;stroke-opacity:1"
           id="path909" />
        <g
           id="g911"
           transform="translate(0,2.61)">
          <path
             d="M 0,0 L -0.461,0 L -0.431,0.201 L -0.031,0.201"
             style="fill:none;stroke:#080c0c;stroke-width:0.03;stroke-linecap:butt;stroke-linejoin:miter;stroke-miterlimit:3;stroke-dasharray:none;stroke-opacity:1"
             id="path913" />
        </g>
      </g>
      <g
         id="g915"
         transform="translate(542.642,3959.504)">
        <path
           d="M 0,0 L 0,0.001 L 0,0 z M 3.769,17.977 L 4.634,20.4 L 2.212,23.017 L 3.487,26.001 L 1.066,28.73 L 7.857,29.094 L 6.345,37.076 L 12.337,38.181 L 15.711,20.275 L 3.769,17.977 z M 28.537,-4.928 L 27.416,0.825 L 28.257,0.993 L 27.177,6.623 L 28.02,6.79 L 26.939,12.461 L 27.779,12.615 L 18.457,61.676 L 8.179,59.731 L 9.172,54.691 L 3.181,53.542 L 1.625,61.634 L -32.187,50.167 L -32.945,54.171 L -32.58,54.256 L -32.621,54.578 L -41.444,52.911 L -41.401,52.631 L -40.996,52.674 L -35.17,21.827 L -35.565,21.743 L -35.479,21.464 L -26.671,23.143 L -26.756,23.409 L -27.106,23.34 L -27.861,27.387 L -2.784,28.577 L -3.976,25.005 L -1.947,22.262 L -3.092,19.252 L -1.12,17.067 L -8.316,15.686 L -6.72,5.203 L 0.11,0.531 L 10.281,2.457 L 16.777,-7.11 L 16.669,-7.178 L 23.299,-5.91 L 23.82,-8.57 L 26.632,-8.051 L 26.158,-5.404 L 28.537,-4.928 z M 15.931,-7.645 L 9.8,1.348 L 0.413,-0.431 L -2.301,-12.058 L -2.356,-12.048 L -2.981,-14.534 L 5.043,-26.757 L 15.194,-24.642 L 18.022,-10.838 L 16.001,-7.601 L 15.931,-7.645 z M -16.031,-0.01 L -7.73,5.162 L -9.231,14.1 L -18.733,15.919 L -26.912,10.64 L -25.159,1.427 L -16.624,-0.265 L -16.031,-0.01 z M -2.673,-11.261 L -0.553,-0.228 L -7.204,4.322 L -17.116,-1.552 L -17.128,-1.531 L -19.377,-12.42 L -11.633,-17.699 L -3.023,-11.92 L -3.284,-11.87 L -2.673,-11.261"
           style="fill:#0c5393;fill-opacity:1;fill-rule:nonzero;stroke:none"
           id="path917" />
      </g>
      <g
         id="g919"
         transform="translate(678.56,3931.655)">
        <path
           d="M 0,0 L 1.609,0"
           style="fill:none;stroke:#080c0c;stroke-width:0.03;stroke-linecap:butt;stroke-linejoin:miter;stroke-miterlimit:3;stroke-dasharray:none;stroke-opacity:1"
           id="path921" />
      </g>
      <text
         style="font-size:11.94431019px"
         y="-4079.886"
         x="-262.02686"
         transform="matrix(0.9904465,-0.1700693,-0.1684108,-0.9807278,0,0)"
         id="text923">
        <tspan
           style="font-size:12.05920696px;font-variant:normal;font-weight:normal;font-stretch:normal;writing-mode:lr-tb;fill:#080c0c;fill-opacity:1;fill-rule:nonzero;stroke:none;font-family:Helvetica;-inkscape-font-specification:Helvetica"
           x="-262.02686 -253.22365 -244.42043 -235.6172 -226.81398 -218.67403 -209.19548"
           y="-4079.886"
           sodipodi:role="line"
           id="tspan925">DUNHAGI</tspan>
      </text>
      <text
         style="font-size:11.94469643px"
         y="-1355.1476"
         x="-3915.2163"
         transform="matrix(0.1773747,-0.9891599,-0.9794661,-0.1756249,0,0)"
         id="text927">
        <tspan
           style="font-size:12.05922318px;font-variant:normal;font-weight:normal;font-stretch:normal;writing-mode:lr-tb;fill:#080c0c;fill-opacity:1;fill-rule:nonzero;stroke:none;font-family:Helvetica;-inkscape-font-specification:Helvetica"
           x="-3915.2163 -3906.4131 -3898.2729 -3890.1331 -3881.3298 -3873.1899 -3863.7112"
           y="-1355.1476"
           sodipodi:role="line"
           id="tspan929">NESHAGI</tspan>
      </text>
      <text
         style="font-size:12px"
         y="-4060.3511"
         x="267.89517"
         transform="matrix(0.996629,-8.2040196e-2,-8.2040196e-2,-0.996629,0,0)"
         id="text931">
        <tspan
           style="font-size:14.99996471px;font-variant:normal;font-weight:normal;font-stretch:normal;writing-mode:lr-tb;fill:#080c0c;fill-opacity:1;fill-rule:nonzero;stroke:none;font-family:Helvetica;-inkscape-font-specification:Helvetica"
           x="267.89517 278.72516 288.73013 300.40009 310.40506 319.57004 331.24002 342.07001"
           y="-4060.3511"
           sodipodi:role="line"
           id="tspan933">HAGATORG</tspan>
      </text>
      <text
         style="font-size:11.9484148px"
         y="-798.70428"
         x="3926.1089"
         transform="matrix(0.4134307,0.9176472,0.9058635,-0.4081383,0,0)"
         id="text935">
        <tspan
           style="font-size:15.09708786px;font-variant:normal;font-weight:normal;font-stretch:normal;writing-mode:lr-tb;fill:#080c0c;fill-opacity:1;fill-rule:nonzero;stroke:none;font-family:Helvetica;-inkscape-font-specification:Helvetica"
           x="3926.1089 3937.1296 3948.1506 3952.4683 3963.4893 3975.3555 3985.5459 3996.5669 4006.7573 4017.7783"
           y="-798.70428"
           sodipodi:role="line"
           id="tspan937">HRINGBRAUT</tspan>
      </text>
      <text
         style="font-size:11.99880028px"
         y="-3916.2612"
         x="751.19586"
         transform="scale(1.0001,-0.9999)"
         id="text939">
        <tspan
           style="font-size:16.00160027px;font-variant:normal;font-weight:normal;font-stretch:normal;writing-mode:lr-tb;fill:#080c0c;fill-opacity:1;fill-rule:nonzero;stroke:none;font-family:Helvetica;-inkscape-font-specification:Helvetica"
           x="751.19586 761.86896 765.42126 774.31818 783.21509 792.11194 797.44049 806.3374 815.23425 823.23505 832.13196 835.68433 844.58118 853.47809"
           y="-3916.2612"
           sodipodi:role="line"
           id="tspan941">Þjóðarbókhlaða</tspan>
      </text>
      <text
         style="font-size:11.99880028px"
         y="-3926.3271"
         x="448.69012"
         transform="scale(1.0001,-0.9999)"
         id="text943">
        <tspan
           style="font-size:18.00179863px;font-variant:normal;font-weight:normal;font-stretch:normal;writing-mode:lr-tb;fill:#0c5393;fill-opacity:1;fill-rule:nonzero;stroke:none;font-family:Helvetica;-inkscape-font-specification:Helvetica"
           x="448.69012 462.13748 472.59653 482.04745 491.49841 501.95746 506.4039 516.86292 527.32196 532.77655"
           y="-3926.3271"
           sodipodi:role="line"
           id="tspan945">Háskólabíó</tspan>
        <tspan
           style="font-size:18.00179863px;font-variant:normal;font-weight:normal;font-stretch:normal;writing-mode:lr-tb;fill:#0c5393;fill-opacity:1;fill-rule:nonzero;stroke:none;font-family:Helvetica;-inkscape-font-specification:Helvetica"
           x="796.06726 809.51459 819.97363 830.43268"
           y="-4089.3264"
           sodipodi:role="line"
           id="tspan947">Hagi</tspan>
      </text>
      <text
         style="font-size:11.99880028px"
         y="-4081.8638"
         x="667.80511"
         transform="matrix(1.0000994,-1.0498945e-3,-1.0498945e-3,-0.9998995,0,0)"
         id="text949">
        <tspan
           style="font-size:18.00181007px;font-variant:normal;font-weight:normal;font-stretch:normal;writing-mode:lr-tb;fill:#0c5393;fill-opacity:1;fill-rule:nonzero;stroke:none;font-family:Helvetica;-inkscape-font-specification:Helvetica"
           x="667.80511 681.25244 691.71149 701.16241 711.62146 722.08057 732.53961"
           y="-4081.8638"
           sodipodi:role="line"
           id="tspan951">Neshagi</tspan>
      </text>
      <text
         style="font-size:11.99880028px"
         y="-3940.6416"
         x="608.54114"
         transform="scale(1.0001,-0.9999)"
         id="text953">
        <tspan
           style="font-size:12.00119972px;font-variant:normal;font-weight:normal;font-stretch:normal;writing-mode:lr-tb;fill:#080c0c;fill-opacity:1;fill-rule:nonzero;stroke:none;font-family:Helvetica;-inkscape-font-specification:Helvetica"
           x="608.54114 617.20599 623.87866 627.21503 633.8877 636.55194 639.88824 647.89307 654.56573 661.2384"
           y="-3940.6416"
           sodipodi:role="line"
           id="tspan955">Hótel Saga</tspan>
      </text>
      <text
         style="font-size:11.9994669px"
         y="-3994.3062"
         x="341.02417"
         transform="scale(0.9999555,-1.0000445)"
         id="text957">
        <tspan
           style="font-size:18.00079918px;font-variant:normal;font-weight:normal;font-stretch:normal;writing-mode:lr-tb;fill:#0c5393;fill-opacity:1;fill-rule:nonzero;stroke:none;font-family:Helvetica;-inkscape-font-specification:Helvetica"
           x="341.02417 353.48071 366.92731 373.37161 378.82584"
           y="-3994.3062"
           sodipodi:role="line"
           id="tspan959">VR-II</tspan>
        <tspan
           style="font-size:18.00079918px;font-variant:normal;font-weight:normal;font-stretch:normal;writing-mode:lr-tb;fill:#0c5393;fill-opacity:1;fill-rule:nonzero;stroke:none;font-family:Helvetica;-inkscape-font-specification:Helvetica"
           x="359.36517 371.82172 385.26831 391.71262"
           y="-3959.1162"
           sodipodi:role="line"
           id="tspan961">VR-I</tspan>
      </text>
      <text
         y="-3922.2744"
         x="373.92899"
         transform="scale(1,-1)"
         id="text963">
        <tspan
           style="font-size:18px;font-variant:normal;font-weight:normal;font-stretch:normal;writing-mode:lr-tb;fill:#0c5393;fill-opacity:1;fill-rule:nonzero;stroke:none;font-family:Helvetica;-inkscape-font-specification:Helvetica"
           x="373.92899 386.38501 399.83099 406.27499 411.729 417.18301"
           y="-3922.2744"
           sodipodi:role="line"
           id="tspan965">VR-III</tspan>
      </text>
      <text
         style="font-size:11.9687624px"
         y="-3871.4492"
         x="473.17975"
         transform="scale(0.9973969,-1.0026099)"
         id="text967">
        <tspan
           style="font-size:15.03914833px;font-variant:normal;font-weight:normal;font-stretch:normal;writing-mode:lr-tb;fill:#080c0c;fill-opacity:1;fill-rule:nonzero;stroke:none;font-family:Helvetica;-inkscape-font-specification:Helvetica"
           x="473.17975 483.21088 494.06912 504.9274 515.78564 526.64392 538.34436 548.37549 557.56439"
           y="-3871.4492"
           sodipodi:role="line"
           id="tspan969">SUÐURGATA</tspan>
      </text>
      <text
         style="font-size:11.99760056px"
         y="-3918.9788"
         x="592.64148"
         transform="scale(0.9998001,-1.0002)"
         id="text971">
        <tspan
           style="font-size:12.00239944px;font-variant:normal;font-weight:normal;font-stretch:normal;writing-mode:lr-tb;fill:#080c0c;fill-opacity:1;fill-rule:nonzero;stroke:none;font-family:Helvetica;-inkscape-font-specification:Helvetica"
           x="592.64148 600.64709 609.31281 617.97858 627.31641 635.98212 639.31879 649.31683 657.32239 666.66028 674.66589 681.99933"
           y="-3918.9788"
           sodipodi:role="line"
           id="tspan973">ARNGRÍMSGATA</tspan>
      </text>
      <text
         style="font-size:11.99825096px"
         y="-772.10095"
         x="-3987.5305"
         transform="matrix(1.9997084e-2,-0.9999459,-0.9996542,-1.9997084e-2,0,0)"
         id="text975">
        <tspan
           style="font-size:12.00174999px;font-variant:normal;font-weight:normal;font-stretch:normal;writing-mode:lr-tb;fill:#080c0c;fill-opacity:1;fill-rule:nonzero;stroke:none;font-family:Helvetica;-inkscape-font-specification:Helvetica"
           x="-3987.5305 -3978.1931 -3969.5278 -3960.8625 -3952.8574 -3944.1921 -3936.187 -3927.5217 -3918.8564 -3910.8513 -3901.5139 -3893.5088 -3886.1758"
           y="-772.10095"
           sodipodi:role="line"
           id="tspan977">GUÐBRANDSGATA</tspan>
      </text>
      <text
         style="font-size:11.83271503px"
         y="-247.28487"
         x="-3947.675"
         transform="matrix(-2.0279737e-2,-1.0139458,-0.9858516,1.9720976e-2,0,0)"
         id="text979">
        <tspan
           style="font-size:12.16978359px;font-variant:normal;font-weight:normal;font-stretch:normal;writing-mode:lr-tb;fill:#080c0c;fill-opacity:1;fill-rule:nonzero;stroke:none;font-family:Helvetica;-inkscape-font-specification:Helvetica"
           x="-3947.675 -3938.645 -3932.3167 -3923.9561 -3914.926 -3905.896 -3897.5354 -3888.5054 -3879.4756 -3871.1147 -3861.4033"
           y="-247.28487"
           sodipodi:role="line"
           id="tspan981">HJARÐARHAGI</tspan>
      </text>
      <text
         style="font-size:11.81999302px"
         y="-588.80542"
         x="-3936.7053"
         transform="matrix(0,-1.0152291,-0.9849994,0,0,0)"
         id="text983">
        <tspan
           style="font-size:10.15229034px;font-variant:normal;font-weight:normal;font-stretch:normal;writing-mode:lr-tb;fill:#080c0c;fill-opacity:1;fill-rule:nonzero;stroke:none;font-family:Helvetica;-inkscape-font-specification:Helvetica"
           x="-3936.7053 -3929.7305 -3922.1975 -3915.2229 -3907.6899 -3902.4109 -3894.3093 -3888.4614 -3882.0554 -3875.0808 -3866.9792 -3860.0046 -3853.5986"
           y="-588.80542"
           sodipodi:role="line"
           id="tspan985">BRYNJÓLFSGATA</tspan>
      </text>
      <text
         style="font-size:11.80365086px"
         y="-4136.0317"
         x="283.84192"
         transform="matrix(1.0098923,-0.1209224,-0.1168913,-0.9762083,0,0)"
         id="text987">
        <tspan
           style="font-size:10.17098618px;font-variant:normal;font-weight:normal;font-stretch:normal;writing-mode:lr-tb;fill:#080c0c;fill-opacity:1;fill-rule:nonzero;stroke:none;font-family:Helvetica;-inkscape-font-specification:Helvetica"
           x="283.84192"
           y="-4136.0317"
           id="tspan989">B</tspan>
        <tspan
           style="font-size:10.17098618px;font-variant:normal;font-weight:normal;font-stretch:normal;writing-mode:lr-tb;fill:#080c0c;fill-opacity:1;fill-rule:nonzero;stroke:none;font-family:Helvetica;-inkscape-font-specification:Helvetica"
           x="290.85989 293.92136 301.49875 308.51672 311.57819 320.28455 327.30255 333.19153 340.76892"
           y="-4136.0308"
           sodipodi:role="line"
           id="tspan991">IRKIMELUR</tspan>
      </text>
      <text
         style="font-size:11.79832745px"
         y="-4200.3833"
         x="578.77612"
         transform="matrix(1.0168912,-2.0974667e-2,-2.0273327e-2,-0.9829712,0,0)"
         id="text993">
        <tspan
           style="font-size:15.25649929px;font-variant:normal;font-weight:normal;font-stretch:normal;writing-mode:lr-tb;fill:#080c0c;fill-opacity:1;fill-rule:nonzero;stroke:none;font-family:Helvetica;-inkscape-font-specification:Helvetica"
           x="578.77612 590.14221 602.36267 612.03528 622.56232 633.08929 643.61627 652.44977 661.28326 671.8103 684.0307 694.55774 704.23035"
           y="-4200.3833"
           sodipodi:role="line"
           id="tspan995">HOFSVALLAGATA</tspan>
      </text>
      <g
         id="g997"
         transform="translate(613.39,4044.626)">
        <path
           d="M 0,0 L -46.5,40.5"
           style="fill:none;stroke:#ffffff;stroke-width:13;stroke-linecap:butt;stroke-linejoin:miter;stroke-miterlimit:4;stroke-dasharray:none;stroke-opacity:1"
           id="path999" />
      </g>
      <g
         id="g1001"
         transform="translate(879.354,3886.959)">
        <path
           d="M 0,0 C 0,-8.399 -7.033,-15.208 -15.707,-15.208 C -24.382,-15.208 -31.416,-8.399 -31.416,0 C -31.416,8.4 -24.382,15.209 -15.707,15.209 C -7.033,15.209 0,8.4 0,0 z"
           style="fill:none;stroke:#ffffff;stroke-width:15;stroke-linecap:butt;stroke-linejoin:miter;stroke-miterlimit:4;stroke-dasharray:none;stroke-opacity:1"
           id="path1003" />
      </g>
    </g>
  </g>
</svg>
